<mxfile host="app.diagrams.net" agent="Mozilla/5.0 (Windows NT 10.0; Win64; x64) AppleWebKit/537.36 (KHTML, like Gecko) Chrome/135.0.0.0 Safari/537.36" version="26.2.9">
  <diagram name="ページ1" id="e73BD_UCz2sOzbugugLm">
    <mxGraphModel dx="1428" dy="743" grid="1" gridSize="10" guides="1" tooltips="1" connect="1" arrows="1" fold="1" page="1" pageScale="1" pageWidth="1200" pageHeight="1920" math="0" shadow="0">
      <root>
        <mxCell id="0" />
        <mxCell id="1" parent="0" />
        <mxCell id="25C5jH4GBrIcWp3-VjL9-13" value="" style="rounded=0;whiteSpace=wrap;html=1;fillColor=#F2F2F2;" vertex="1" parent="1">
          <mxGeometry x="50" y="80" width="1120" height="640" as="geometry" />
        </mxCell>
        <mxCell id="25C5jH4GBrIcWp3-VjL9-1" value="messages&lt;div&gt;----------------&lt;/div&gt;&lt;div&gt;id (&lt;b style=&quot;color: light-dark(rgb(0, 0, 0), rgb(255, 255, 255)); background-color: transparent;&quot;&gt;&lt;font style=&quot;color: rgb(255, 128, 0);&quot;&gt;PK&lt;/font&gt;&lt;/b&gt;&lt;span style=&quot;color: light-dark(rgb(0, 0, 0), rgb(255, 255, 255)); background-color: transparent;&quot;&gt;)&lt;/span&gt;&lt;/div&gt;&lt;div&gt;chat_room_id(chat_rooms.id) (&lt;b style=&quot;background-color: transparent; color: light-dark(rgb(0, 0, 0), rgb(255, 255, 255));&quot;&gt;&lt;font style=&quot;color: rgb(0, 102, 0);&quot;&gt;FK&lt;/font&gt;&lt;/b&gt;&lt;span style=&quot;background-color: transparent; color: light-dark(rgb(0, 0, 0), rgb(255, 255, 255));&quot;&gt;)&lt;/span&gt;&lt;/div&gt;&lt;div&gt;user_id(users.id) (&lt;b style=&quot;background-color: transparent; color: light-dark(rgb(0, 0, 0), rgb(255, 255, 255));&quot;&gt;&lt;font style=&quot;color: rgb(0, 102, 0);&quot;&gt;FK&lt;/font&gt;&lt;/b&gt;&lt;span style=&quot;background-color: transparent; color: light-dark(rgb(0, 0, 0), rgb(255, 255, 255));&quot;&gt;)&lt;/span&gt;&lt;/div&gt;&lt;div&gt;content&lt;/div&gt;&lt;div&gt;created_at&lt;/div&gt;" style="whiteSpace=wrap;html=1;align=left;spacingLeft=9;verticalAlign=top;" vertex="1" parent="1">
          <mxGeometry x="596" y="200" width="210" height="120" as="geometry" />
        </mxCell>
        <mxCell id="25C5jH4GBrIcWp3-VjL9-2" value="users&lt;div&gt;-----------&lt;/div&gt;&lt;div&gt;id (&lt;b style=&quot;background-color: transparent; color: light-dark(rgb(0, 0, 0), rgb(255, 255, 255));&quot;&gt;&lt;font style=&quot;color: rgb(255, 128, 0);&quot;&gt;PK&lt;/font&gt;&lt;/b&gt;&lt;span style=&quot;background-color: transparent; color: light-dark(rgb(0, 0, 0), rgb(255, 255, 255));&quot;&gt;)&lt;/span&gt;&lt;/div&gt;&lt;div&gt;username&lt;/div&gt;&lt;div&gt;email (&lt;b&gt;&lt;font style=&quot;color: rgb(0, 0, 255);&quot;&gt;UNIQUE&lt;/font&gt;&lt;/b&gt;)&lt;/div&gt;&lt;div&gt;password&lt;/div&gt;&lt;div&gt;created_at&lt;/div&gt;" style="whiteSpace=wrap;html=1;align=left;spacingLeft=9;verticalAlign=top;" vertex="1" parent="1">
          <mxGeometry x="76" y="200" width="110" height="120" as="geometry" />
        </mxCell>
        <mxCell id="25C5jH4GBrIcWp3-VjL9-3" value="chat_rooms&lt;div&gt;----------------&lt;/div&gt;&lt;div&gt;id (&lt;b style=&quot;color: light-dark(rgb(0, 0, 0), rgb(255, 255, 255)); background-color: transparent;&quot;&gt;&lt;font style=&quot;color: rgb(255, 128, 0);&quot;&gt;PK&lt;/font&gt;&lt;/b&gt;&lt;span style=&quot;color: light-dark(rgb(0, 0, 0), rgb(255, 255, 255)); background-color: transparent;&quot;&gt;)&lt;/span&gt;&lt;/div&gt;&lt;div&gt;name&lt;/div&gt;&lt;div&gt;created_by(users.id) (&lt;b style=&quot;background-color: transparent; color: light-dark(rgb(0, 0, 0), rgb(255, 255, 255));&quot;&gt;&lt;font style=&quot;color: rgb(0, 102, 0);&quot;&gt;FK&lt;/font&gt;&lt;/b&gt;&lt;span style=&quot;background-color: transparent; color: light-dark(rgb(0, 0, 0), rgb(255, 255, 255));&quot;&gt;)&lt;/span&gt;&lt;/div&gt;&lt;div&gt;created_at&lt;/div&gt;" style="whiteSpace=wrap;html=1;align=left;spacingLeft=9;verticalAlign=top;" vertex="1" parent="1">
          <mxGeometry x="316" y="200" width="170" height="140" as="geometry" />
        </mxCell>
        <mxCell id="25C5jH4GBrIcWp3-VjL9-5" value="" style="endArrow=classic;html=1;rounded=0;" edge="1" parent="1">
          <mxGeometry width="50" height="50" relative="1" as="geometry">
            <mxPoint x="372" y="242" as="sourcePoint" />
            <mxPoint x="603" y="256" as="targetPoint" />
          </mxGeometry>
        </mxCell>
        <mxCell id="25C5jH4GBrIcWp3-VjL9-11" value="1----*" style="edgeLabel;html=1;align=center;verticalAlign=middle;resizable=0;points=[];fontSize=17;" vertex="1" connectable="0" parent="25C5jH4GBrIcWp3-VjL9-5">
          <mxGeometry x="0.1326" y="-2" relative="1" as="geometry">
            <mxPoint x="23" as="offset" />
          </mxGeometry>
        </mxCell>
        <mxCell id="25C5jH4GBrIcWp3-VjL9-7" value="" style="endArrow=classic;html=1;rounded=0;" edge="1" parent="1">
          <mxGeometry width="50" height="50" relative="1" as="geometry">
            <mxPoint x="135" y="243" as="sourcePoint" />
            <mxPoint x="319" y="271" as="targetPoint" />
          </mxGeometry>
        </mxCell>
        <mxCell id="25C5jH4GBrIcWp3-VjL9-10" value="1----*" style="edgeLabel;html=1;align=center;verticalAlign=middle;resizable=0;points=[];fontSize=17;" vertex="1" connectable="0" parent="25C5jH4GBrIcWp3-VjL9-7">
          <mxGeometry x="0.1839" y="1" relative="1" as="geometry">
            <mxPoint x="2" as="offset" />
          </mxGeometry>
        </mxCell>
        <mxCell id="25C5jH4GBrIcWp3-VjL9-8" value="" style="curved=1;endArrow=classic;html=1;rounded=0;" edge="1" parent="1">
          <mxGeometry width="50" height="50" relative="1" as="geometry">
            <mxPoint x="139" y="242" as="sourcePoint" />
            <mxPoint x="603" y="270" as="targetPoint" />
            <Array as="points">
              <mxPoint x="236" y="180" />
              <mxPoint x="486" y="160" />
              <mxPoint x="566" y="200" />
            </Array>
          </mxGeometry>
        </mxCell>
        <mxCell id="25C5jH4GBrIcWp3-VjL9-9" value="1----*" style="edgeLabel;html=1;align=center;verticalAlign=middle;resizable=0;points=[];fontSize=17;" vertex="1" connectable="0" parent="25C5jH4GBrIcWp3-VjL9-8">
          <mxGeometry x="-0.044" y="1" relative="1" as="geometry">
            <mxPoint x="2" y="-1" as="offset" />
          </mxGeometry>
        </mxCell>
        <mxCell id="25C5jH4GBrIcWp3-VjL9-14" value="" style="shape=image;verticalLabelPosition=bottom;labelBackgroundColor=default;verticalAlign=top;aspect=fixed;imageAspect=0;image=data:image/png,iVBORw0KGgoAAAANSUhEUgAAAj8AAAPuCAYAAADnuXwJAAAAAXNSR0IArs4c6QAAAARnQU1BAACxjwv8YQUAAAAJcEhZcwAADsMAAA7DAcdvqGQAAP+lSURBVHhe7N17XFR1/j/w1zAMd+QOqYwCmqiIQxktlKUS2pd1pAulltKE9VPsJltjO+lGK6XROqtobVKbEmHlJdYNp9iSzK66kcp4yWuiDoZcRWBGZBzm98dyTjNnLszAcJ338/GYR3k+n7lw5nJe53M7vNGjR+tBCCGEEKcVFRXF3TSk8Sj8EEIIIUPHtGnT8NBDDyEsLAwAcOnSJXz00UcoLy/nVnVaAyb8/N///R/EYjFUKhXkcjl0Oh23CiGEICEhAZmZmfD19YVOp8O+ffvw9ttvc6sR4pSSkpKwaNEinD59Glu2bAEAZGZmYuTIkXjrrbdw8OBB7l36zdixY+Ht7Q0AUKvVOHv2LLdKr3HhbugL48aNQ05ODt5++21ER0cDAHg8HoKCghAXF4dZs2Zx7zKoPPLII9i2bRvef/99PPfcc9xiQgY8kUiEoqIiFBcXQy6Xc4v7jZ+fHx544AH4+vpCr9fj0KFDeOedd7jVCHFa99xzD5qampCfn4+qqipUVVWhqKgIN27cwMyZM7nV+9WoUaPw/PPPIzs7G6+++irmzJnDrdJr+qXlJzQ0FC+//DJGjBiB8vJyrF27FgCwcuVKiEQiXLx4EX/9619x9epV7l0HPD6fj1dffRXR0dHQ6/XYs2cP/TgPYUKhECtXrkRISAi3yEhJSQkKCwvZf4vFYixcuBACgcConjnl5eXIzc3lbjZiz+NVVlZCKpVyNxsRiUSQSqXw8vKyqX5fWbp0Ke655x7weDycPXsWa9as6bPfiZCQECQkJOC2225DREQEvv32W2zevJlbjXSD4ee3rq4Oq1evhkql4lYjNmBOVrjfWUvbe4NcLkdkZCS0Wi22bt0KhULBrcKaM2cOHn30Ubi5uaG5ubnPWqf6peWntrYWX3zxBbRaLUQiEWbNmgWdTofS0lK0trZi5MiRmD17Nvdug8If/vAHjBo1CgDQ1taGo0ePcqsQQrohPj4eCQkJ4PF4aGxsxJYtW3ol+Hh6emLSpEmYO3cunn/+eWzcuBEfffQR8vPz8fjjj2PSpEnw8fFBcnJyn56pEmKLlpYWeHh4IDQ0lN0WFRWFYcOGob6+3qguw7ClNz8/H0KhkFul1+zevRtlZWXQ6XQYNmwYHnjgAfD5fG41h7Pa8mPrWW13lJeXY9iwYYiOjsaFCxfwyiuvoKWlBS+++CIiIiLw/fff46OPPuLebcB7/vnnceeddwIATp06hZdffnlQjV9KTU2FWCzG8ePHsWHDBm7xgGRPq4c9dDoddu7ciZ07d3KLeszwNXNbhcBpebGl5cfRBlrLD5/PZ1uGdTod/v3vf9v1++Dp6YkxY8awP6qjRo1CWFgYPD09MWLECHh4eCAwMBDu7u5WP0d6vR4ajQYqlQrHjh1DWVkZ6urquNWInfqq5UcmkyE+Pp67udddvHgR69atg0ql6pPXoNfrceTIEWzZsgWurq5YsmQJbrrpJrzzzjs4cOAAt7rR990R+9+elh90dmevWLECY8eOxY0bN7Bjxw4UFxdzqzlUv7T8ML7++ms0NDTg7NmzcHH530v529/+hqeeesquH7aBIj4+HiKRiP13dHQ0+yZ259bbYy2mTZuGt956C7m5ufDz82O3Dxs2DLfffjuSk5ON6jubGzduoKGhgbuZ9IPExER2fOClS5fw2WefcauYmDx5MgoLC1FcXIytW7di1apVyM7ORnZ2Nh5//HGkpKRg+vTpGDduHEaNGgUfHx82+Oj1ely7dg21tbU4fvw4FAoF3njjDTzxxBN47LHHsHLlSnz88ccUfIhN9Ho9mpqauJt7jV6vR2RkJNavX4+//e1v8PDwwNtvv202+AwEV69exe7du9HW1gZXV1dMnz7dqOWqN1ht+SG2MzwzdZSzZ8/iz3/+M3ezwyQkJGDp0qXw9PTE559/jvfff9/o7zh79ixee+01tLS0cO86ZC1btgx33303ABi1SDoac6bL5/Pxr3/9Cx9//LFRObX8GHv55ZcRFxeHGzdu4OOPP8a///1vbhUTISEhyM7OxogRI9DR0YH29nZ0dHQAALRaLerr66HX63H9+nVcunQJ7u7uSExMhJubm0POfont+qrlpy8xn9mOjg58+umn2Lp1K7eKQxn21Nja4sLo75YfBtMq1p3WXXv1a8vPUDJr1ixMmDABANDa2orc3FykpaXZffv222/Zx7xy5YrBM9hGJBJh/fr12LFjB3bu3InNmzdj7ty5ZvtQDxw4gMOHD8PFxQV33nknoqOjodPpUFZWhmvXriEiImLQz7yzR2hoKG6++Wag88zp1KlTVoOPWCzGtm3bTFrsLN0kEgl739DQUAgEAmi1WtTU1Bg9bldkMhk++ugjZGVlAQAkEonJc3V16+1WRUeaOHEiuwBbXV0dfvzxR24Vs+rq6vDss88iLS0NDz/8MBYsWID09HSkp6dj0aJFePHFF/HnP/8Z2dnZeOedd/DNN9/gxo0b3IdxuMWLF6OwsBBbt26FWCzmFpMhYOrUqRg/fjzQ+Ttu62e2J9zd3dnfea1W26Pw0l++/fZbXLt2DXw+H7fddht8fX25VRyGwo8DhIaG4o9//CPc3Nyg1+tx4MCBbi8m5e/vz/6/vc2kU6ZMQVZWFkaNGgU+nw8XFxf4+/vj4YcfhkwmM+raYpSWluLKlSsICAhASkoKAODHH3/EyZMnUVdXx54pO4Pk5GS2qbWxsRF79uzhVnEYZkChWq3GxYsXucVWubi4wN3dHR4eHtyiIUkkEsHHxwcAcObMGdTW1nKrDCrXrl2Dt7c3PD09ER4ezi3uF35+fpBIJHj33XdpeY4e8vX1hVgshoeHB/R6PQ4ePIhz585xqzmct7c3+5vQ1tYGtVrNrTLg/fe//2V/D2+66aZeHRtF4ccBHn/8cQwfPhwAUF1djeJuDtTy9fVFQEAA0DnY1p7xBH5+fpg7dy6GDRsGvV6P8vJyvPzyy1CpVHBxccEtt9yC5557ziQAnTp1CuXl5WhsbER9fT175vDaa6/hmWeewa5du4zqD1V+fn6Ij48Hn8+HXq/HL7/80uUPlkKhwPz5801a7yzdmEHNkydPRkREBNA589Hehb0CAwON/l1YWGjyXF3d+rsbyx7jxo2Di4sLrl+/PiRmT547dw7Xr18HAERGRnKL+4W7uztuu+02BAUFYcqUKTYddIRCIfLz8/HRRx9h48aN7Gd6KJHJZGZbbq2ZO3cu21JZX1+Pzz//nFulVwiFQnbMmlqttrtFeSDQ6XQ4ePAgdDod3N3dERsby63iMBR+emjOnDm45ZZbwOPx0NbWhu3bt3f7zFQoFLLhpL29HefPn+dWsWjevHnsF+7XX3/Fpk2b8Msvv2DNmjU4e/YseDweRCIRO8bH0LvvvovFixdj69atg2pmmiPNnj0bI0eOBDqbqUtLS7lVHObOO++Er68vtFot9u/fzy02cdNNN7EtUhMnTjQJsN1lrbssOzsbXl5eQOcBmlvO3IqKihw6zo1r+PDhuOmmm4DOKby//vort8qgU1VVhdbWVqAzyI4dO5ZbxUhISAhEIhHmzp2LzMxMrF69Ghs3bkRRURG2b9+O9evXY9y4cdy7GQkNDcWSJUuwefNmLFu2jFuM2tpa7N+/HzqdDj4+PkhJSTHbVW4oICAAnp6ecHd3B4/Hc1hLg4uLC9vSN9gkJCTg7rvvBp/Px40bN7Bnz54+634KCgpiw8+VK1esdtkPZCdOnGA/S5GRkb3W9UXhpwcSEhKQlpYGNzc36HQ67N27F99//z23ms2ioqLYYHLlyhWbu0NSUlIwY8YMuLi4oLm5GTt27GDXP6mtrTUKQLfddhuWLVtmEoCcWVRUFKZNm8a2+hw6dAinTp3iVjOLOfvlhgLD27Zt29ixHQkJCexaNWfPnrUYslpaWnDt2jWg8zk2bdqE4uJivPrqqwgMDIRerzcaE2bP+COZTGbwTANbSEgIG8Kamppw4cIFbpVB58KFC+x6K97e3pgwYQKmTJmCRx99FM8++yxef/11bNq0CR9++CF27tyJ/Px8ZGdnY968eZg5cybGjx+PkSNHwsvLC66urggPD8ftt9/OfRoj7u7uuOWWW+Dv749bb73VbMtOWVkZ21oQHR2NxMREbhUjwcHB7MFWo9HY1VJtTVBQEFatWoU333wTjz76qMPCfm+LioqCRCKBj48P9Ho9Dh8+bNPAfEcxbHnrq8DVG06dOoXGxkags0W+t9YcovDTTcwH3XCZ/ffff59bzS6TJk1if0wuXbpk049JVFQUUlNT4ebmBq1Wi127dpmsjnn16lUKQFY89NBDCAoKAnrYbdmV0aNHsz+OtbW12LJli8WWtnPnzuHDDz9EbW2tUR2dTofW1lZ8++23+OCDD4zuYy9r3WU5OTnQaDRA54rQ3HLmlp6eDqVSyX1ohxkxYgTc3d2Bbk4AGAiEQqFJuGFaGd3d3fH4449jxYoVSEtLY6feh4aGwsPDAzqdDi0tLaisrER5eTlKSkqwdu1arF+/Hs3NzYCNA2pVKhW+//57dHR0WGzZMWz98fDwwIwZM4zKuQICAuDq6goA+O2337jF3dbR0QEej4cRI0YgLS0N//znP7F27VokJSWZvOaBws/PD0uWLGFbaJnWd0vfb0cLCQlBcHAw0DnY2ZHvR1/T6XS4fPky0Lk+F7NosKNZnOrOTFXra46YZtfboqKi8Pzzz7PjfJhl9oVCIZ599llcuXIFX375Jb755hubP/yhoaHIzs7G8OHDbZ4eaDgtXa/X4+eff8batWstPqfhQlK21HcGhkurt7e344MPPrDYGuMIKSkpmD17NrZu3Tpg19zAAJrqnpaWhnnz5oHP55tdDNKRHD3dF50XbH788cetLpyo0+nQ1NSEhoYG/Pbbb6ipqcEvv/yCX3/9lW3948rKysLUqVMBAF999RU2bdrErWLC8Demra0NmzZtMmmpNqzT3NyM9evX48iRI0Z1GMyyEDqdDtu3b+/RSQN3qvu6detw22234Y477kBYWBi7Dlxrayt+/PFHbNu2rVdW9+YyXJDQ0ufPz88PUqkUEyZMAI/HQ21tLdauXdvlmEFHuvPOO/HUU0/Bw8MDjY2NeOONN+waS+joz353p7ozJBIJUlNT0dHRYXYpEEeglh87jRs3Di+88IJR8Pn73/+O1tZWzJ8/H8HBwbj55pvx9NNPY8uWLXj66adtmtFxxx13sCtp19fX46effuJWMcEstY/Os7YPP/zQapC5evUq/v73vxu1AC1fvnzAnk31tqioKKNZeocPH+7V4IPO2XXPPPPMgA4+A4mPj49dn097uv+4N8NxTiEhIcjLyzOpY+1mbvzT2bNn0dzcjLa2Nly6dAnHjx9HaWkpioqK2DEZNTU1WLlyJV566SW8+eab2LFjB44dO2Yx+EydOhXx8fHg8Xior6+3+cBSW1uLAwcOoKOjw2LLTm1tLY4ePQq9Xg9fX1+LXV98Pt/oMj6VlZXcKj1y7do1fPTRR3jmmWfwl7/8BYcOHYJWq4WPjw9mzZqF/Px8yGSyPhtkrdVqzS54yg0+9fX1yM/P79PgAwCxsbHsTK+qqiq7gs9A1NDQAK1WCxcXF7i5uXGLHcJi+JFKpSZN3LbcsrKy2O4arVaLgoICkzrWbpmZmT1KnL0pISEBy5cvZwdgMsGH6Zr49NNP8csvv0Cr1QKdP9xJSUlYt24dXn31VZMfRgafz8ftt98OV1dX6PV6HD16tMtB0wkJCbjrrrvA5/PR1taGjz76yKb9VltbizfffBPnz58Hj8fDlClT8MILL9h1gBkKuM3UKpVqUF+A1p6D/mAa8zPYnT17FosXL8aCBQvw3HPPITs7G++99x6++uordimLYcOGsSdTXQkNDcW8efPg4eHRrQG1P/74I9t9GBUVhcmTJ3OrYP/+/WhpaQGPx0NsbKzZlXZjYmLYWYeNjY04c+YMt4rDnDp1CqtXr8aSJUvw5ZdfQqPRwM3NDfHx8fjb3/6GnJycXgtBzOxbc8LDw5GdnY2JEyeyweftt9/u1W5gc0JDQ9mT4Bs3bvT58/c2w+VfHMlit1d39WSVSUuYJrC+oNFoIJfLjT5AfD4f8+bNw+zZs9m1G5RKJTZu3Gi26dXPzw/3338/7r77bqM3rqOjA+fPn8euXbuM+uiTk5ORkZEBDw8PXL16FevWrcOxY8fYcq7Q0FC8/PLLGDFiBHQ6Hb744gu7ry5t2HWn0+lw4MABbNiwwWrLkaG+uD4NwxHNsIb4fD6WL1+O2267DTweDy0tLcjPz+9Wa4wt178z/B709LNs6Ttlz/XNbFkxeqB0exnuL0vdDo7i6Kb/rqxYsQJTpkyx+J5ycT+3SqUSq1evtvk7y2CuP6jX67Fnzx6zoX/16tUYP368xRW1Fy5ciPvuuw8uLi749ttve3wdQG63l7V97+npifnz5+Puu+/GsGHDgM6uw0OHDmHr1q2oqqri3qVbfH198eqrr0IoFJocF2bNmoVHHnmEfX6VSoWNGzf2eYsPOruG586dC1dXVzQ0NCA3N9fu1+HIz77hyuq2fra5DD8PtvxedYfFlh9H6OjoYAdNDmaTJ0/GzJkz2QGIX3/9NdasWWM2+KCze6mwsBCLFy/GO++8g5qaGuj1eri4uCAqKgp/+tOfsGHDBkyfPh2+vr7sY+s7L0ZnLfjw+XwsWrSIPVM8d+4cduzYwa3WpXPnzmHdunWora0Fn89HQkICnnjiCadoAXr88cdx6623gsfj4caNG9i9e3e3gk9/sPSdsmfNod74Iektra2tdh/cBwtmUKdAIDDbusJl+Lmtra3t9tIUBw4cwLVr16y27CiVSly9ehUHDx7EiRMnjMr4fD4mTpzYb2svXbt2DQUFBXjqqaegUCjQ2toKPp+P+Ph4rF27FpmZmQ6ZzBEWFgZvb2+As2jg8OHDkZqaimHDhqGjowOHDh3CK6+8YnfgcAQ/Pz9MnTqV7TXoqwUVrfHz82O74G7cuIHq6mpuFbvYu9ivrRze8jN69GisWLECwcHBJml5MJszZw5mzZqFTz75BN988w23uEtJSUl46KGHEBoaCh6PB3ReQqGlpQXe3t7g8/mor6/HG2+8YfXDazhAt7GxEXK53OZp2eZERUVh+fLlCA0N7XYr0mCyaNEi/N///Z9RyLt69Sq2bNliMvizNzEtZ2q1Gnl5eTh06BC3CsvwTKo7gxm7Y6C0/PTFGSAjKSkJTz75JNzd3VFbW4ucnJwe/3BbYzgY+siRI1i1ahW3Csvwe9+Tlkp0hpfc3FxERUVZbNmxZurUqVi6dCk8PDwcdv07e1p+uJiuwDvuuIMdH9LY2IiPP/4Ye/fu5Va3meHnQaVS4eWXX2b/zoSEBCxcuBDffvstiouLuxVCHWHx4sWYOXMmXFxcenQ8cGTLj+F+q6+vx5o1a+xeosLw89BbLb4Ob/kJDg42m5YHu927d+PZZ5/tVvABgL179+LZZ5/Fu+++y65hwOPxMGzYMPA7F8T68ssvrQafKVOm4MEHH2RnJpWUlHTrg27o3LlzeO+999DY2Ag+n497770XixYt4lYbEtLT0zFr1izw+XzoOqeMo/NMZenSpZg7dy73Lr3m4MGDaG9vh5eXV5fdh+PGjWPHV9R2Y0XowUylUrFj6KyNv3AELy8vdlaRWq3u1eCDzunhzErPwcHBFrtODYNPW1sbPvnkk24HH3R2ER07dgzNzc04fPiwXYOV+Xw+kpKS4OHhwbZ69DT49BQzjvGll17CqVOn0NHRgcDAQDz22GNISEjgVrfZuHHj2GUWLl++bPR3HjhwAM888wx27NjRb8EnISEBd955J1xcXNgeiZ4eDxzBcL/V19fbHXxgsGCj4e+0ozk8/ERERLDpe7Ausd1bdDodvvzySzz33HPYu3cv+6WxZUEs7uUrDh8+jN27d3OrdcvBgwexefNmtLS0gM/nY+bMmXjkkUe41QYtPp+PJ598EnPmzGG/UP/5z3/w3HPPoaKiAnq9Hh4eHnjooYfw9NNP90nX34EDB1BdXc3OuouOjuZWYd11113sAFdL14wzXIa/q9tguqhpbW0t++Pn7++P0aNHc6s4THh4ODtmijlB6U3V1dXsWj2WBj2PGzcO999/Pxt8Pv74Y7vHT5hTWFiIjIwM5Obm2tUyP2PGDPazWlNTgy+//JJbpd+cP38eL7/8Mnbu3Inq6mp88MEH3Q6Jvr6+7KrZN27cwMmTJ7lV+tW4cePYNcMA4NixY9i+fTu3ms2USiXS09N7POlIKBQiLi4O6Nxvln6vusJ8F27cuNFr63s5PPxMnDiRPXhUVlb2+1nBQOTr68tefBQ2TFPn8/lYunQpxowZA/TSzKQDBw4gPz8fLS0tcHNzQ2pqKubMmcOtNuh4enriT3/6E9vio9VqsXv3bmzZsoVd/PHHH3+ETqcDn8/HjBkzsGLFCptXlbVllpXhCs+MlpYW7N27F1qtFgEBAXjggQfMhq6pU6ey17epra3tcjG7oaa6upodG+Pr68t+BxzN8GDX0dFhV2tId9XV1bErPbu7u5tdzO306dMoKCjApUuXsHnzZocEn+7y8/NjJ33odDr8+OOPXc5K7Ws6nQ47duzAM88806Mur4SEBPYAXFdXN6C+dyKRCC+88ILRTNXujv9yNLFYzC622N395uvry86o7s6Fn23l0PATHx/PXqemvb0dv/zyC7eK0wsPD8ef//xndj/V1tZCLpdbTdo+Pj5sV2JLSwu2b99ucbB1Txw4cADbt29np5LOnz/f5KA9mISGhmLFihVISEgAn8+HRqPB1q1bUVRUxNbR6XRYt24ddu/eDa1WCx6Ph7i4OGRnZ9u0PlNPlJaWoqKiAjweD7feeisef/xxo/KoqCgsWLAAHh4e0Gq12LNnT5cHG41Gg5ycHJNBzoZLUAw2p0+fRkdHB9zd3bu8hlV3TZs2DSNGjAA6B1kfP36cW6VXMN97a4Oev//+e7a1uL8wJ2DMpQZOnz7do5aGgYzP52PatGns+l+2LD3SVx5++GFIpVI2YFRXV/fbLDOuOXPm4O677waPx+tROI6MjGRPPpuamnrtRMRh4YfP5yMlJYVthquuru52k+NQJRKJsHLlSnZNClsXxLp69SrkcjkOHjyIr7/+ulf3a2lpKXbs2IH29nZ4eHjg4YcfRlJSErfagCcSibBq1Sp2DY7Gxkb84x//sHjmXFRUhG3btqGtrQ3o7L59+eWXLa7NxGUudBQUFLDjVcxhzlKZGXfJycl44IEHAM46RHq9HhUVFfjss8+4D+EUlEol2/U1adIkiyGhu6KiojB79mwIBAJ2GQtLqxo7Wm1tLfsZ6a1rGDkCd6aZtUuzDHb3338/br75ZqCPr8puTUREBNasWYO5c+fCy8sLer0e586d69a09t4wdepUpHVe51Lfebmn7objyZMns9dHO3v2bK99zhwSfvh8Pp544gl2oaW2tjZ8/vnn1OXVic/n49FHH8WLL75o1FT5xhtv2NzffvXqVbz++uu9Muqda/fu3SgpKUF7ezt8fHx6PHCwL3H3NfMjsWrVqi5D47///W9s3ryZPdAGBwdj2bJl7GUEeoPhgHM3NzfMmzcPS5YsQXZ2Nts62NfXCRpofvnlF/YHPiQkBHfccQe3SrdxF7usq6tDSUkJt1qvuXjxok2DnvsLM17u3nvvBZ/PR0tLCwoLCwfEAbc3JCQkYM6cOXB1dUV7ezs+++wzq63yvc3Pzw+ZmZl4/fXXER0dzQ5u3r9/P7Kzsx22plF3Mb+3S5cuZa++3pPfK77BMgptbW29uoxCj8MPM6YiOTkZ/M5ZNHv37kVZWRm3qlOKj4/HunXr8OCDD7J95eXl5f22LoStPv74Y5SVlUGn08HX1xeLFy8e8AEoNDQUr7zyCh544AF2X9v7I7F3715s3LjR6KrCS5YsQUpKCreqwxw8eBBvvfUW6uvrIRAIMGvWLERERECv1+PMmTNW15RyFvv370dbWxtcXV1x9913sz+0PREaGgqpVMqOI+qPA3tdXR27bpOPj8+ACj8RERF47bXX2KUhrl692qMp9gPd1KlTsXjxYvZi1Uqlst9afcLDw/Hss8/iH//4B2bOnGk0hT8/Px9///vfLV7+pC/wO2f95eXlscc2ZvZfT36vEhMT2UkNFy9exH//+19uFYfpUfhhlhdPTExkg88333zT46ubDwXR0dFYvXo1li9fjvDwcLbrJT8/H7m5ud3+cPSl999/nw1APj4+NncB9TU+n4+5c+di7dq1iImJgYuLC5qbm/Hee+9160fi4MGDWLt2LTvQ1svLC4899livzoALCAhAe3s79Prfl91qa2vDkSNHem2q52Dy9ddfs33/I0eOxKxZs7hV7BIfH2/ULeqIKeTdUV1dzQbt3ryCtT0MWxuYMVYXL15Ebm5un++fvsDn87F48WI8/fTT8PPzg76fLvocEhKChQsXYv369Vi3bh2mT5/OLtbY3NwMhULR72O/Jk+ejGXLlmHz5s146qmnMGLECPB4PLS2tmLnzp09OrYxgYqZ2frTTz/16v7n+/v7/5W7sSvx8fF45plnMGfOHHZgUltbG3bt2oX333/f6AfcmTCzIZ5++mmkpqYiJCQELi4uuHbtGvbt24fc3NxevQaOozFjTSIiInDp0iX84x//GHDvbXx8PJYvX47ExES4u7tDp9Ox4aUn4zYaGhpw8uRJTJgwAX5+fuDz+YiOjoafnx+USiW7H8aNG4fJkyejo6MDP/74o9HSDkwZABw5cgSnT59my9D5eZk/fz6eeeYZTJs2jV0q/8qVK+Dz+fDw8MDEiRMxc+ZMBAQE4Pz582wXCdfUqVMxcuRIaLVak9eBzue6++674e3tjaampi6nKN9000244447IBAIbKrf2/R6PTQaDUQiETw8PDB8+HD88ssvdk+DjY6OxrJly3DfffexrUfNzc14//338cUXX3Cr94lx48ZhzJgx4PP5uHz5Mg4fPsyt0ifi4+MhkUjwxBNPYNy4ceDz+Whvb8fXX3+NdevWmXymHIn5rvA7JyZ899137DIAvYXfuazHiy++iEmTJsHV1RU6nQ779u3Dxo0be/XAGxISggkTJiA5ORkPP/ww0tPT8eCDD2LixInw8/ODi4sLOjo6cPnyZXz66afYsGEDysvLcePGDe5D9YqQkBDcfPPNmDZtGu6991488sgjkEgkSEpKwujRo+Hu7s6Gnn379mHt2rU4dOhQj44P99xzD5KTk+Hq6opz586hsLAQ7e3t3GoOY/MKz5MnT8a0adMQFxcHPz8/dpXijo4OnDlzBu+++y7Onz/PvduQxufzMXnyZCQkJCA6OhojRowA32C6cmtrK3766Sfs3LmzW6PeiWXx8fFIS0vDmDFj4OLiAr1ej8bGRmzbts2hZ0bh4eH405/+xA5SZ1o38/PzodPpbLqmFnN9m++++w6TJ0/GrbfeivHjxyMoKIj9vDCv/5NPPsFXX30FoVCI//f//h9uvvlmto5Wq8XZs2exd+9e7N+/36hFy55rrdmyYvNAWeGZa+nSpbjnnnvAs+PaVhMmTMCdd96J22+/HQEBAexChrrO60Ft2bKlX7+faWlpmDdvHvh8Pg4ePIg1a9Zwqzicp6cnxo0bh7i4OMTGxuKmm24yuiSEVqvF0aNH8eGHH/bJ73pPVni2V1RUFFJSUnD77bezE3TgoFWhbXHrrbciKyuLncFrSKfToaGhAUeOHMEXX3zRp12wjEceeQQPPvgg+z3ham9vx4ULF/Dll1/im2++6fL7Zws/Pz/89a9/xahRo9DW1oaCgoJeHzpjU/iJioqCTCZDUFAQu02r1eLMmTP45JNPbB60O9TMnDkTixYtYvtj0fnhvXDhAkpLSx32wSDGDC8Ei87pkKWlpdi1a1ev7O/Q0FC88MILGDt2LDuAWi6Xo7a21q7wM27cONx5550mZWfOnEFJSYnZBcGio6Px0EMPITY21ug5Ghoa8Le//Y1d7dlZwo+fnx9WrFiBsWPHQqfToaysDJs3b7b4vk+aNAnPP/8820KNzn1+6tQpfPTRRwNiRdwpU6bgT3/6Ezw9PU0uo9BbmIubGuro6EBTUxMOHTqE3bt32zxOzhH6Kvzw+XysXLnSqAu/ubkZe/bswa5du+zuIu8OfuflRUaOHIm2tjZcvnwZFy5cwLFjx3Do0KE+eQ3WTJw4EcuXL4enpye0Wi2uXLmC+vp6nDx5EocOHXL4CvN8gwv2AuizLkebwg86vyxxcXFQqVT473//iz179vT7m9TffH198de//hUBAQG4cOECvvvuO5MzcuJ4fD6fHahaWlqK//znP72+z0NDQ7Fs2TJcvnwZ7733Hvt8zI+2Vqvt8jp2M2fOhEQigUajwblz5/DTTz/Z/Hnx9PTEzJkzcccdd+Cmm25CcXGx0QrfTPhx1PX0Bmr4QeeMnMzMTPj6+kJnw/XosrKyEB8fD5VKhQMHDuDrr7/u9riE3iAUCiGTyeDj44Nff/0VW7Zs6fXgceedd2LJkiW4ceMGLl26hF9++QVlZWX9thZUX4UfdJ48PfbYY6ivr8e+ffvw2Wef9fqBllj2xBNPsLMJa2trsXbt2j5p8bI5/BBCCCGEOMojjzyC1NRUh1yw114UfgghhBDiVMyPaCKEEEIIGaIo/BBCCCHEqVD4IYQQQohTofBDCCGEEKdC4YcQQgghToXCDyGEEEKcCoUfQgghhDgVCj+EEEIIcSoUfgghhBDiVCj8EEIIIcSpUPghhBBCiFOh8EMIIYQQp0LhhxBCCCFOhcIPIYQQQpwKhR9CCCGEOBUKP4QQQghxKhR+CCGEEOJUKPwQQgghxKlQ+CGEEEKIU6HwQwghhBCnQuGHEEIIIU6Fwg8hhBBCnAqFH0IIIYQ4FQo/hBBCCHEqFH4IIYQQ4lQo/BBCCCHEqVD4IYQQQohTofBDCCGEEKdC4YcQQgghToXCDyGEEEKcCoUfQgghhDgVCj+EEEIIcSoUfgghhBDiVCj8EEIIIcSpUPghhBBCiFOh8EMIIYQQp0LhhxBCCCFOhcIPIYQQQpwKhR9CCCGEOBUKP4QQQghxKhR+CCGEEOJUeKNHj9ZzNxYXF3M3EUIIIYQMCdTyQwghhBCnYrblhxBCCCFkqKKWH0IIIYQ4FQo/hBBCCHEqFH4IIYQQ4lQo/BBCCCHEqVD4IYQQQohTofBDCCGEEKdC4YcQQgghToXCDyGEEEKcCoUfQgghhDgVCj+EEEIIcSoUfgghhBDiVCj8EEIIIcSpUPghhBBCiFOh8EMIIYQQp0LhhxBCCCFOhcIPIYQQQpwKhR9CCCGEOBUKP4QQQghxKhR+CCGEEOJUKPwQQgghxKlQ+CGEEEKIU6HwQwghhBCnQuGHEEIIIU6Fwg8hhBBCnAqFH0IIIYQ4FQo/hBBCCHEqFH4IIYQQ4lR4o0eP1nM3AoCbmxv8/Pzg7u4OHo/HLXZaer0e169fx9WrV9He3s4tJoQQQsgAZ7blx83NDaGhofDw8KDgw8Hj8eDh4YHQ0FC4ublxi4kV06ZNw5tvvomZM2fC09MTL730EtatW4fQ0FBuVUIIIaTXmA0/fn5+FHq6wOPx4Ofnx91MrBAKhbjpppuQkJCAa9euoaamBuHh4RCLxdyqhBAL/Pz8MHnyZIhEIoSEhHCLCSE2MBt+3N3duZuIGbSf7HPgwAE0NTUhKioKEydOxJ49e9DY2IiEhARERUVxqw8KTzzxBHbs2IHCwkIkJSVxi4kZGRkZePvttzFp0iRuUZ8QiUQoKipCfn4+hEIht9iIUChEfn4+ioqKIBKJuMVdsue57PHwww/j5ZdfRk5OzqD97hDSn8yO+XHkl3SoU6lU3E3EipdffhmTJ0/Gp59+iq1bt2Lx4sW47bbb8OGHH+Kbb77hVh/Qpk6diqVLl8LFxQUfffQRdu/eza1COqWnp2PatGl4//334eHhgYyMDBw9ehS5ubncqr1OJBJBKpVCrVZj9erVUKlUEIvFWLhwIQQCAbd6lyorKyGVSrmbAQvPZUgulyMyMtJoG5dGo4FcLodSqWS3+fn54S9/+QsiIyPx888/Y+3atdDpdEb3I4RYRuGnh7g/ZsS6+++/H4888gjOnj2LlStXcovtIpFIkJqaavXg01v8/Pzw17/+FUKhEN9//z3y8vK4VYYkJiRotVqTA7I5zMH9woULCAsLQ2VlJVavXo2XX34ZI0eOxFtvvYXy8nLu3XqVYSD5/vvvkZSUhM2bN+OHH37gVoVQKMTKlSvh7e1t09/L1O+qO4r5zMrlcoSHh2Pr1q1QKBRGdbp67oSEBCxduhSurq4oKChAWVmZUTkhxDIKPz1kS/jpyVmlOXV1dWbPInubTCZDfHw8d3O3lJSUoLCwkLvZBHPwLC8vN2kl6M/w8+ijj+L+++9HY2Njv7wX/aW74ae8vBzDhg3D6NGjUVBQAB8fH8yZMwe7du0yOej3NsPws2vXLjz22GPYs2cP3n//fW7VLgNIV2xp+elu+AGApUuX4p577sGvv/6K1157DS0tLdwqhBAzKPz0EPfHjFhmeFY8mMOPr68vVq1aBaFQyHbfWcIc/Ly8vLhFNjlw4ADWrl3L3dxvehJ+Dh48iIcffhhffPEFiouLuVX7jGEg2bRpEzIzM9HY2IjTp08jNTWVW92qrk5Eejv8REdHQyqVwsfHB1u2bMGePXu4VQghZpgd8ExIb/D19YW7uzu0Wi0aGhq4xYNGQkIChg8fjitXruDHH3/kFhtRKpVIT09HWlqazbesrCzU1dUBAGpra7kPOWjt2bMHixcv7pfgwwxcfuONN4y2NzY24tKlS+DxeCgpKbH4Xmg0GuTk5JiUZ2ZmmgQaR/Hz8+uytfjUqVM4ceIE3NzckJCQwC0mhFhA4Yf0mYCAALi5uaGjowMajYZbPGhMmTIFbm5uOHnyJM6dO8ct7rGAgAB4enoO+pA4kDDBm8/nc4vw2muvYcWKFbhy5Qq3yG4ymQzFxcXsLTs7G15eXggJCUFeXh673dLssVtvvRUffPABiouLsWrVKnh7e+PQoUM4duwYtyqroqIC169fx8iRI6nVnhAbUbdXD/XWWd9QlJaWhnnz5kGtVmPt2rX45ZdfuFVMDLRuL19fX7z66qu46aabzHZVOMKdd96Jp556Cnq9HuvXr8fBgwe5VfpET7vsumJr16cjMH/LiRMn8Nlnn5l0RfVkPJtWqzX6LEyePBkvvPACamtrIZPJ2FlYEydOxPLly3H9+nX2ea11e9mK6R4bNmwY3nvvPezdu5dbhRDCQS0/pM+Eh4eDz+fj6tWrgzY0CoVC+Pn54fr167h48SK32CECAgLA5/Nx7do1XL16lVvcZ8x12RUUFECr1VrsBuLeKisrAQDl5eUmZX0VfABg+PDhEAgE0Gq13CIAQG5ursnrs/U2f/58o+BSXV2N5uZm+Pv7G01jj4qKgqenJ6qrqx36+VepVGhoaICbmxtGjhzJLSaEmGFT+JkwYQLkcjnkcjkmTJjALcYDDzyAt956Czk5ORg+fDi3GCNHjsRzzz0HuVyON998E2+99RY2btwIuVyOJUuWcKuzRo4cicWLF0Mul7P3ef311zFv3jyzCwwyr5N5HbGxsVi+fDk2bNiAN998E7m5ubj//vvh4mL+z05MTER2djbWr1+Pt956C2+99RY2bNiA3Nxc3HPPPdzqxA58Ph/h4eEAgMuXLw/aWSk33XQT3N3dce3aNYd0k5gTFBQEgUCAtra2fg0/Q0lAQABcXFxw+fJlbpHD1dXVobq6Gt7e3hg1ahS7nQn/p0+fNqrvCE1NTeDxeLjpppu4RYQQM8ynAAeKi4vDs88+i3HjxsHNzQ3Xr19HW1sbbty4AQ8PDwQEBHDvAnTe75lnnsHkyZOh0+lw8eJF1NXVwdvbG3fddReee+45+Pr6cu8GAPDy8kJiYiIyMjIwatQo3LhxAzdu3ICPjw+SkpIwe/Zs7l3w8MMP45FHHmGvM9XW1oa2tjYAgI+PD4YNG8a5h23kcrnRGABH3iQSCffpBqyYmBgEBwdDp9PhzJkz3OIuXbt2jbupX3h5ecHFxQVqtRq//fYbt9ghmBMIjUbDDnwmPRMaGoqOjg6r+1MsFmPbtm0m3zNrN7lczn0YoLM1RiAQGIUfoVCI9vZ2kxZDgUCAjIwMk8c2vHW1QjQzMN7cmCZCiCmbxvxMmDABTzzxBABg8+bNOHHihFH5Aw88gHvuuQeNjY3YtGkTqqurAQAuLi7IyspCVFQULl68iM2bNxsN4HR3d0dQUJDJQWT48OFYsmQJgoODceHCBeTn57MtBbfddhseeugheHt74+DBg0ZrczCv093dHXq9Hu3t7fjss8/w9ddfw9fXF5mZmRg9ejQuX76M9evXQ61WA53TRRctWgRPT0/88MMP2LlzJzo6OtjHDQwMBDpnhnA5svmaGXfQnTEsjl5LyNyqsj2xZMkSzJw5E42NjcjNzbVpoDAzvkYoFJodH9IfY36Y/VxVVdVrz7l69WqMHz/e7Dgnrr5+37s71f3bb7/Fhg0buMUsw2UQHMXwM7Nq1SqMGDEC69evh0AgMBnzAzvf264+e8y4rdOnT2PVqlUYPXo0VqxYgfb2duTk5LAhzHDMz4wZM+Dj44M1a9bgwoULRo/T2NhodD8u5vXY8pkhhPRyy09wcDB78c+6ujqTmSvXr183CT4AEB8fj6CgIKjVapSUlBh1kfz88884fPgw0NmHbq6bjcfjoa2tDZ988gm+/vprAEBLSwuUSiV0Oh2GDRvGdsGg86zQzc0NOp0OKpXKKPigM/SYCz7ENqGhoYiNjQWPx7NrhlRgYCA8PT2h1+tN3hN7TJkyBevWrXPotbd4PF6vnGX7+vrC29sb6Bw7MpgNHz6c/Vuampq4xX3qlVdewf/7f//PpkH2PcG09D7//PPw8PDA5MmTUVxcjHXr1iE4OBgjRoxAfn4+tm3bZnJB37q6Ovj4+Bj9Nt10000QCARobm62GHwIIfbr1ZYfAHj66acxYcIE6HQ6nDp1CqWlpewgSEuef/55REVF4dy5c1i3bh23GHfddRcefPBB6HQ6fPTRRzh06BBg8DoFAgG++OILfP7550b3mzFjBu677z7cuHHD6O8QCoVYsmQJ/P39oVar8dNPP+HLL7+0aVyKI1t+mDP+gwcPYs2aNdziQWvx4sWYOXMmWlpasG7dOqvTdg0xZ718Ph/vv/8+/vOf/xiVd3X2jc5ugFWrVmHChAk4ceIEXnnllR5dAykpKQlPPvkkmpubzS5a11NMC4Gfn1+PZgD1Fntafm699VZkZWXB1dV1QM1CsrTwYHda0ax99mDluRiGLT/u7u6YO3cu9u7di3feeQfobA2+7bbbsGfPHnabOUyrcVctbISQ/+nVlh8A+OSTT6BSqeDi4oKJEyfi+eefx9q1a5GZmWl28DQAuLm5AZ0tR8uXLze5TZ06FTweD66urmzLkiG9Xm92jMjXX3+NrKwsdsorQ6VSQaFQQK1Ww9vbGzNmzMDq1avx6quv4uGHH0ZQUJDR4/SGkJAQdlzRUGplSkhIwB133AG9Xo8ffvjB5uADADfffDPc3d3R0tKCs2fPcott8vjjj2PcuHFoa2vDf/7znx4FHwCor6+HVquFp6enxfFqPeHv7w8vLy/odLpeG1DdEwqFAvPnz0d6errV4IPOFlwvLy80Njba9b73t8rKSpMZXdxbSUkJ9249dvjwYVy9ehXjx4+Hn58fQkNDER4ejra2Nhw9epRb3UhAQAD0ev2Q+u0gpDf1evipqanBG2+8gcLCQpw+fRrXr1+Hp6cnJk2ahKVLl2Lp0qUWBy4z1wLi3kaOHAlXV1du9R45cOAAsrOz8Z///Ae//fYb9Ho9AgICMG3aNKxcuRJ//OMfuXdxqJtvvhkBAQFob2/Hr7/+yi0elMaNGweJRAJfX19UVlbik08+4VaxyNfXF5MnTwaPx8PFixe7FX7mzJmD5ORkAMDevXvx/fffc6vYjZnG7O7ubjSY1VGEQiEEAgHa29sHZPixVVRUFG699Vbo9XocOnRoSK1U3VvOnTuHgwcPYvjw4UhOTkZycjJCQ0Nx8eJF/Pe//+VWZzHLL7S3t+PSpUvcYkKIGXaHH0vTxLvy888/Y+PGjZBKpXj33Xdx/vx5oHPhr2nTphnVZcZ3HD9+HM8884zFW1ZWFjumxxGuX78OhUKBNWvW4MUXX0RJSQmuXr0KNzc33H333Rg7diz3Lg5z9913w9PTE/X19V2eUQ8GCQkJWL58OUJDQ3H27FmsWbPGrmnbs2bNwsiRI9HW1ob9+/dzi7skFosxf/58CAQCHD161K7gZU1dXR0uXboEgUCAcePGcYt7zNfXF3w+H21tbYM2/Pj5+bETFs6dO4fifricRX/hzu60tMKzpVlin3/+ORobGzF79mzMmDEDWq0We/futdpiybQUNTc3d2smJSHOyK4k4+rqyk4FZ8TFxeH222832taVI0eOYNOmTaitrQWPx8OIESOMyquqqoDOAZPmBjT3hevXr+PLL79EcXEx2tra4OHhYTIWylHmzJkDkUiE9vZ2fPnll4P6LNnT0xOZmZlYtmwZ/P39cejQIbuDT1RUFGbNmgVXV1ccPXrUroDL5/OxZMkSLFy4EO7u7jhx4gQ2btxo1/N35eDBg2hvb8e4ceMc/pnw8/Njp9IPxgHPoaGhkEqlGDNmDKqrq/HOO+84dN/3hcjISJOp5tybpQugSqVSo+6xnJwcdsmCrKwsdrulcUIqlQqff/45vLy8EBAQYNPnn7ncyunTp03GFBFCzLMp/DQ1NUGj0cDV1RW33XYb200VFxeHhx9+2GK3VVBQEO688052qrihCRMmYNiwYdDr9aivrzcqUyqVUKvVCAgIgEQiMVolFZ2zgJgfEUcYP348pkyZYrJwoouLC8aNG8dejNPRoYTP5+PRRx/F/PnzwefzsWfPHuzevZtbbVDg8/mYNWsWNm7ciJkzZ6K9vR07d+5Ebm6uXQe/0NBQttWgtrYWO3bssHrWayg+Ph7r1q3DzJkz4eLiggMHDtgdvGyhVCpRX1+PoKAgk1bLnmK+K9zvxEDHtPb8/e9/R3R0NH7++Wfk5OTYPLNvIOmvMT/o/B5NmjTJ5m79yZMnIzo6Gm1tbThy5Ai3mBBigU2zvQDg0UcfRWJiIng8HrRaLXQ6Hdzc3KDX66FSqRAeHo7m5maj2V7M7CsPDw/odDp2aXkXFxd2UPNvv/2GgoICk7NcsViMe+65h5150d7ejo6ODvB4PLi5uYHH46GiogLvvfceex/m+VxdXfHpp592ecbEYGarweB50Ln4GJ/PR0dHBw4dOmS0phCju2daIpEIjzzyCMaMGQONRgOFQoGdO3dyqw14fn5+uP/++zF16lQEBARAq9WivLwcW7dutTssjhs3Dk899RSEQiFaWlqQn5+PAwcOcKuxmNleDQ0NaG5uxqhRo8Dn89Ha2trr+/PRRx/F/fffj5qaGrz66qtGf2t3Zg3Zo66uzuzMob4SEhKCESNGIDo6GlFRURg9ejSCgoKg0+lw+vRpfPTRRzh16hT3bgOGpRlYjlznh2HpuRiGs71KS0vxxBNPIDk5GceOHcPVq1dx55134tChQ9iwYYPZSRxZWVmYOnUqTp482eOZjIQ4E5vDj7u7Ox544AHcdttt8PDwQEdHBxoaGvDll1/Cw8MD9913n0n4GTVqFB5++GH2kgDMeCGdToerV6/i8OHD+Pzzz3H9+nXOs/3PhAkTcO+99yI8PBzu7u5s8Kqrq8PPP/+Mb775xui+3Q0/d999N+655x74+PiwwQqdQaimpgb79u2zOOCQ+2NmjVAoxLRp05CQkICwsDBcv34dhw4d6lZQ6C9CoRDjx49HbGwsbr75ZgQFBYHH46Gurg7//e9/8e9//7tbLS0ikQjPPvssAgIC0NjYiPz8/C4v6MkcgBjM6tH//Oc/2TFlvcXPzw9//etfIRQK8dVXX2HTpk3cKkNOVFQUZDIZAgMD2VXaa2trceHCBRw8eBDl5eWD4uBrKZDYGn74fD6eeuopTJ8+HSdPnsTKlSu5VViWnothGH5Gjx6NadOmQalU4q233kJraysyMjIwc+ZMqFQqvPXWW0af66lTp2Lp0qUAgE2bNjlkQD8hzsLm8EPM4/6YWcLn87F8+XJMmjQJVVVV+PHHH7Fnzx6zZ3MD1dSpU7FkyRK4uLigubkZFy5cwLFjx/Ddd991K/Bwvfjii/Dz88OmTZvYcV/W3H///Zg/fz4A4MyZM/jkk0/6dLA4c/BxcXHBRx99NGi7LJ2NpUDSVfhh1p3y8PAAADQ0NOCdd96xGtItPReDCT/fffcdRCIR9u3bh+3btxuFSLFYjNTUVOzfvx8FBQVAZxBdvnw5QkJC8P333yMvL8/gUQkhXaHw00PcHzPSt0aPHo3a2tp+C5FPPPEE7r33Xmg0Grz33nt09k16XWhoKF544QWMHTu2WzMpCSEUfnqMwg8hhBAyuJid7aXXm+QhYgbtJ0IIIWTwMRt+LA1AJsZoPxFCCCGDj9nwc/XqVWrV6IJer6d+dkIIIWQQMht+2tvbUVtbi7a2NgpBHHq9Hm1tbaitrUV7ezu3mBBCCCEDnNkBz4QQQgghQ5XZlh9CCCGEkKGKwg8hhBBCnAqFH0IIIYQ4FQo/hBBCCHEqFH4IIYQQ4lQo/BBCCCHEqVD4IYQQQohTofBDCCGEEKdC4YcQQgghToXCDyGEEEKcCoUfQgghhDgVCj+EEEIIcSoUfgghhBDiVCj8EEIIIcSpUPghhBBCiFOh8EMIIYQQp0LhhxBCCCFOhcIPIYQQQpwKhR9CCCGEOBUKP4QQQghxKhR+CCGEEOJUKPwQQgghxKlQ+CGEEEKIU6HwQwghhBCnQuGHEEIIIU6Fwg8hhBBCnAqFH0IIIYQ4FQo/hBBCCHEqvNGjR+u5G4uLi7mbCCGEDHJpaWncTYQ4JYvhh74k/YveA+to/xBiH/rOEPI76vYihBBCiFOh8EMIIYQQp0LhhxBCCCFOhcIPIYQQQpwKhR9CCCGEOBUKP4QQQghxKhR+CCGEEOJUKPx0YdGiRSgqKsKaNWswceJEbvGgJRaLsW3bNmzbtg1isZhbTAghhAxZvbLIoVgsxsKFCyEQCFBSUoLCwkJulT4xduxYvPjii3B3d8exY8fw9ttvQ61Wc6tZNGXKFDzzzDMYNmwY6urqsHr1aqhUKm61XmHveyCRSJCamsrdzNJoNDh48CDuuusuVFZWYt++fVi4cCEAYOvWrVAoFNy7DGj27B+hUIiVK1ciJCTEaHtJSQnUajX++Mc/oqmpCa+88gpaWlpw55134sknn8S1a9fw73//G19++SVEIhGkUim8vLyMHkOr1eJf//oXkpKSTB6fUV5ejtzcXO5mQvqUPd8ZQoa6AdPyIxKJUFRUhOLiYptvcrmc+zBGxo8fj2HDhsHHxwd8Pt+u4OPn54e5c+di2LBhAICQkBDk5eUZPf8///lPTJkyhXvXflFYWIicnBxoNBqg88BeUFAArVYLjUYDuVyOK1eucO/mFFQqFTIzM5GWlmZ0KywsRFtbG7y8vBAWFobJkycDAGJjYzFs2DB4enri8uXL3IcjhBAyyA2Y8NMbxowZA4FAAJ1OhzNnznCLLeLz+Vi6dCnGjBnDLTIiEAggEAi4m8kAI5PJTIJzcXExZDIZTp48iZaWFri7u2PSpEnw9fXF+PHjAQDnzp3DkSNHjB5Lq9WioKCADZZc5eXlSEtLQ1ZWFurq6rjFhBBCBgCHhB+5XG50UMnIyGBDQWpqqslBp7i42GSsiVKpRHp6usnZubWbVCo1eBXGfH19ERkZCQBQq9U4ceIEt4pZfD4fTzzxBG699Vbo9XqUl5dj4cKF7HN+/vnn0Ol0aG9vR3FxMQ4cOMB9CDLA5Obmmnx20tLSUFpaildeeQWBgYHg8XiYNWsW3n//fQiFQgBAXFwcZDIZ9+EIIYQMcg4JPwPR5MmT2TEYv/32G3755RduFRN8Ph+ZmZlITk4Gn89HU1MTvvjiC1y7dg0AkJCQgLvvvhsAUFZWht27d3MeoX8IhULk5+cjOzubHZOSmprKhlAvLy9IpVIEBARw70o6x0Pl5OQYBaPKykpuNZvEx8ejuLgYeXl5FscAEUII6V8OCT9SqdTowFFeXg50dhH885//NCorKSnh3h2w0jVh7cZtPTI0adIkuLu7o6Ojw6ZWn9DQUPz1r3/FjBkzoNVqcf36dQQGBuLZZ5/F1KlTMW7cOEgkEri5uWHXrl3YvHkz9yH6DTOmhemKuX79Ov7xj3/QmJ9OTDjkfnbi4uK4VbskEAiQkZFh1LpJCCFkcHFI+DHE5/MRFBQEALh27RouXrzIreIwHR0d7ABfQ76+voiOjgaPx0NrayuOHDkCPp+Phx56CO+++y6eeOIJ7l3whz/8ASNHjsTPP/+MP/3pTygqKoJGo4Gfnx+WLl2KlStXws3NDfn5+fj444+5dx8QwsPDIRAI0NzcbHaMU2FhIdK66C4ciswNeJ4/fz4qKiq4VbtEY34IIWTwc3j4iY6ORnBwMADg6tWrJlPDPT09jf7NsDQug3ubO3cuzp07BwC4fv262dk4sbGxCA0NBQBUV1fj+PHjGDt2LO69914EBQUhKSkJU6dONbrP7t27sWjRIuTm5qK2thalpaUoKChAa2srPDw84OPjA39/fzz33HMmLVD5+fnsOJH+IhQKERcXB71ej5MnT5rsd4ZEIkGxwbgsSwFyKOmq5cfLywvZ2dlG5cx4MUIIIUOPw8PPrbfeCh8fHwBgZ9IY8vf3BwDodLpudcPExMSw4aq+vh6nTp3iVkFsbCw8PDzQ0dGBX375BTqdDqdOncLXX38NnU4HDw8PPProo1YDS2hoKG6//XaLYW0g4fP5WLBgAYKDg1FXV2exaxEAGhoa2BYLnU6Hn3/+Gd988w232pBiqeWnsLAQ6enpbDdtZWUlu+8qKyuRlpZm0/o8bm5ucHd3B2jMDyGEDAoODT9RUVG466674OLigtbWVhw8eJBbhT1IdHR0oLW1lVvcpT/+8Y8YNmwY9Ho9zp49C51OZ1Ru2OXV1NRkNBtr9+7dbKtRaGgoHnnkEYN7/g+fz8fcuXOxdu1axMfHo7GxEVlZWSYtUGkGY5sGgpaWFlRXVyM/P5/9GxUKBUpLS9kBzyKRCAqFAvPnz2db0datW2eyD4caS2tISSQSwOAzyQ3qtvLz82MfgxBCyMDnsPDDhIagoCDo9XocPnzYJBz4+vqyM47UajUaGxuNyrvyyCOPQCQSAZ2tPp9//jm3CiZPnoywsDAAwMWLF3H27Fm2rKWlBTt37kRzczN4PB5EIhGSk5PZ8unTpyMvLw9z585lW68GA51Oh++//x7+/v4m3TfMqs/munaY7h9Lg8aHmrq6OmRlZRnN5DL8TNbU1BjU/t9K5UVFRcjKymK3mRvwPHLkSLi7u6OtrQ3r1q1DGo35IYSQAc0h4YfP5+OFF17AlClTwOPxUFtbi+LiYm41REZGws/PD+jsfrE0LoUrPDwcMpkMDzzwANzc3NDe3o7PPvvM7P3/8Ic/wMPDA+3t7WbX4Dl48CB++ukn6PV6eHh4YPbs2fDz88Odd96Jxx57DAEBAbhw4QJ+++037l3JEHTzzTcjMDAQ169fx+nTp7nFEAgE8PDw4G5m8fl8jB07FugMT9xFEQkhhAw8PQ4/zBTx22+/HS4uLqivr8c777xjEkw8PT3xxz/+Eb6+vl1OPx87diymTZuGp59+Gnl5eVi3bh3i4+PB5/PR2tqKDz74wOwaO1FRUezqvPX19XB1dcWTTz6JzMxMrF69GuvXr0dhYSFmzJgBHo8HdJ61z549Gz/88AMWLVqEhQsX4oUXXsClS5cAC5e1YG7x8fFGz9+fLC0SyYxhMbeWDTP2ZbBd18uR/vCHP8DLywsqlcqopZLH42HYsGHg8/lG9ZnZXoZdny4uLuz4KabrzMXFhf2MEUIIGVh6fGHTF154AYmJieDxeFCpVHj77bfZM2iZTGY2INTU1OD11183CUghISHIzs7GiBEjjLajs2vn5MmT2LJlC86fP29UNnr0aKxYsYIdCG0vcxcttfTazTF3/56y5z2wdOFOW/XG6+9t9uwfSxcl3b9/PyZNmgSBQIBNmzbh+++/N3uB2AMHDmDt2rVG28C5gO+ZM2ewevVqREVFmTyXpfsT0pfs+c4QMtT1uOVnx44d+O233/Djjz/ipZdeMuo64K4orNPpcPbsWbMtQ+g8CNfX10Ov1+PatWtoaGjA8ePH8cknn+Dpp59Gdna2SfABgAsXLqCpqYm9n0ajgUajwaVLl3D27FmcPHkSe/bsQWlpKfLz87Fq1SosW7YMZ86cQU1NDfbv34/m5mbuwwIG40S4LSbMWT8ZPLjv5a+//or29nZ8/PHH+P777wEA3333Haqrq6HX/++coKGhAXv37uU80v+UlpZi7969OHv2LN566y20tLSgsbGRvYCuXq9HfX29xfsTQgjpHz1u+SG9g94D62j/EGIf+s4Q8rset/wQQgghhAwmFH4IIYQQ4lQo/BBCCCHEqVD4IYQQQohTofBDCCGEEKdC4YcQQgghToXCDyGEEEKcCoUfQgghhDgVCj+EEEIIcSoUfgghhBDiVCxe3oIQQsjQQpe3IOR/LIYf+pL0L3oPrKP9Q4h96DtDyO+o24sQQgghToXCDyGEEEKcCoUfQgghhDgVCj+EEEIIcSoUfgghhBDiVCj8EEIIIcSpUPghhBBCiFOh8EPIACeTySCTybibCSGEdBOFH0IGKCb0HDt2DOPGjYNIJOJWGRSEQiHy8/Oxbds2iMVibrERmUyGoqKibv2tIpEIRUVFJs8jl8uthkeJRIL8/HwIhUJuEYt57OLiYhQXF0MikXCrWCUWi7Ft2zYUFxebPJdMJuvWYxJCuo/CDyF9jAkDlg7IzIHW3d0d48aNg0qlQmNjI+Li4rhVB4UFCxbA29sbr7/+OhQKBbeYJRQKERERgePHj0OpVHKLTcjlcjaMFBcXIzs7GzU1NVi+fDlUKhW3uk0MQwr3scvKypCWloa0tDScP3+evQ8TXqzdMjIyUFpairS0NGzatMnoOXNzc1FSUoLk5ORuhT5CiP3o8hYDFL0H1nVn/8jlckRGRnI3m6irq8Pq1au7fQDtilAoxMqVK3H+/Hnk5uZyiyESiSCVSlFWVobY2FgcPXoUhYWF3GrdJpPJEBMTA7lcDqVSyT6fl5cXtyrKy8vNvkZbGf4thn8Dsw9CQkKM6ltTWVkJqVTK3Qx0vrcAzJbL5XLU19db/DskEgkSExPNvucSiQTJycnsvkLn4/n4+BjVN/d3cl+TuToMZn+0traa/RscoTvfGUKGKoe0/MjlcpOmXC7mbJf5QSCkr0mlUvbM3dwtKysLdXV1aG1tNTkI9hepVGpyoOwt5eXlRvsjJycHMTEx3e6GAoCUlBSo1Wrs3buXWwSYeU5Lt/LycqP7cVtoIiMjERkZyf6b2/VlDtNik5qaipCQEOTl5UEul7M3AKioqAAAttVNJBIhLCwM+/fvN/qMKJVKHD9+HImJiRZ/B9PT01FTU2P2/VSpVNi/fz/CwsK6va8JIbZzSPgh/Y87JoG5ccOmpTEVTBcCjTsA6uvruZt6zPBgnZeXh5CQEMTHx5u8X8WdXSxeXl5ITU21+D72BaVSiRUrVkCtVmPp0qUWD+qWMN1Y58+fd3iYVCgUmD9/PhuOKisrUVlZyf57/vz5CAoKQnFnMDLc18y+zM3NRVpaGkpKSlBXV4esrCxIpVIcPXqUDSFKpRI1NTWIjY0FOGGOOaFjHjc+Pp4NUczzGgYy7r+57+nevXuhVqsHbfcmIYOJQ8KPVCpFZmamw3/giP0Mz6RzcnIQFhZm8iPLJZPJEB4ejoKCArNnpc4iMDAQ3t7e3M0OYXiwZlqYLLV65OTkQKPRoKSkhN3WW10hXVGpVFAoFPD29jYJzF0JDAyEm5sbjh07xi1yCCawmwsW+fn52Lt3LxuMmH1dWVnJfRgT3BAilUohlUohEokQExPDtvqoVCpkZmaafe+YMMbcmHBlWJf7nqpUKrS2trJBixDSexwSfsjApFQqUVZWhvDwcItdABKJBPHx8SgtLbU6GNUZCIVCCAQCVFdXc4ucGnNSM2nSJG6RVcz+tMZS6xf3Fh8fz70rALABsby8nG35KSkpYcuFQiF8fHyM7mPJ8uXLIZfL2VBTWFgIsViMoqIiiMViKJVKpKenWzxBkMlk7MBow2AjlUpx/vx55OXlddmyWl9fDx8fH7tb2Qgh9nFI+DHsI2dw++QXLVpkVE76RkNDA7RaLXcz0PkepaSkoKSkxOIPujMJCgoCOveZOYYtDbbebBl7Yg/u98rWG/f7aY/Gxkao1WruZptotVqrLcKWWr+4N+6YHwbTNRgfH8+2/KSmpnKrWQy0EomEHfPT3t5u0hpjC4lEguLiYgQHByMtLY39LjEtRujsYsvKykJiYiKKqXuZkH7nkPDDJZFIjKZ2pqWlwdfX166ZHcQxmAM69wAUFxeHhQsXoqKigoKPAWsH664GTJu7zZ8/3+4WNWstJtyxLrbeunNQdwSBQNCrrRhdtfwwXW/mAq1cLkdycjK+++471NXVYcOGDSYBNyMjA15eXsjIyDDaXlRUhAcffBBFRUVITEyERqMx6nYzd2PGemk0GiQmJjo8GBNCbOfw8CMUCpGYmIjy8nKjg2pRURE0Go1RXdK7mJYd7ropzGDaiooKi9N/ndHw4cOhVqvR2NjILepTXbVA9TVmLJSl1hNLVCqVxVZHRk+7vbpq+YmLi4NAIDAKtMyAdqlUivT0dFy5coUtMwy4zNgsdC5/YDhmJz09Hf/617+Qnp7OrttjOEYrzcwgbMNgtmnTJrPBODg4eEDNNiRkqHJ4+BGJRPD39zf5oexJ0zmxneHBhGl94wYcjUaDuro6xMTE2D2IdSgLDg7mbuoVzJgS7vsCg5OHpqYmmxb66wvMwF9m2retGhsb0d7ebnWsUE+6vQyDCjdoMBMwYmNjUVNTY/e+5K5DFBISgpUrV1ptxTKcnVdsZhA2N5hxMdPojx49yi0ihDiYw8MPOrsOBspZq7PhHkwsdWl9/PHH3Z7CPBQxA2P7+6x7wYIF8Pf3h0Kh6NfXwRCJREhOTjZpPbSFSqXC+fPnERER4fDPGHfsEzdoFBUVYfbs2UZhwtbBz2KxGGvXrkVraysKCgqg0Wiwfft2AMDatWstdlXZ0/JjTndDJiHEfr0SfsjA19TUhE2bNsHb27vLM1pn0htr/NhKJpMNqJl3EomEvWSEuVYqW5SWlsLb2xtJSUncoh7hjn3iBo309HTExsaaXWCR2yptSC6XIyMjAxUVFUbjpDQaDTIzM1FVVYWMjIweDSA3h2nx604rFSHEfg4PP5amxfbmGiqke5RKJbZv3w5/f38sW7aMWzwkCDkL0Vm6WVt40NI1uBzB8PXFxMQgJyfHYmtdb+P+7cnJycjJyenRYGlm5WNL163iPqelm6UxP4YMW342btyImJgYoxY0kUgEb29vi63Sf/zjHxEWFoacnByLYU8qlaKgoADh4eEmM7Z60u3FXP+sqKiIW0QI6QUOubYXcxbE/EjKZDLExcVh69atUCgURv3nlVauz0N+Z+97wFw36Pjx4xZ/uGHmuk4wmO7b0+s49SV7989AwuxvxlD/TjDff39/f5PfBEvXN+OSyWQIDg5m9xN3H8LgOmTMY+/fvx+FhYVsixo4+9rSdkNisRjz5s3D9u3bLbbGWbtmF5e5a4Uxr6O3l5wYzN8ZQhytV8IPOD8sAPDll1/illtu6dUL9w0l9r4HPQk/zPb4+HiLB4GBxt79Q4izo+8MIb9zSPghjkfvgXW0fwixD31nCPmdw8f8EEIIIYQMZBR+CCGEEOJUKPwQQgghxKlQ+CGEEEKIU6HwQwghhBCnQuGHEEIIIU6Fwg8hhBBCnAqFH0IIIYQ4FQo/hBBCCHEqFld4JoQQMrTQCs+E/I/F8ENfkv5F74F1tH8IsQ99Zwj5HXV7EUIIIcSpUPghhBBCiFOh8EMIIYQQp0LhhxBCCCFOhcIPIYQQQpwKhR9CCCGEOBUKP4T0I6FQiPz8fMjlcm4RIYSQXkLhh3RJJBKhqKgIEomEWzToyWQy5OfnQygUcov6xIIFC+Dt7Y2ioiJu0YAhFAqxceNGiMVibhEhhAxKtMjhAOWo90AoFGLlypU4f/48cnNzucU2EYlEkEqlKCsrQ2FhIbeYxdTz8vLiFgEANBoN5HI5lEolu00sFmPevHnYvn07FAqFUX1r7Nk/zD4ICQnhFnWpvLyc3W9d/X3mVFZWQiqVcjcDnX/7woULIRAIuEWAhf1lSCKRIDExEatXr4ZKpeIW95jh4yclJSE2Ntbi30IGPnu+M4QMdRR+BihHvQf2hB+5XI7IyEjuZpuUlJQYBSOZTIbg4GCTgyXzevbv34/CwsI+CT/WyGQyRERE9FqAsMRaoGTKampqTPafIWuv3VqZOebeB8P3qqKiAsuWLcO//vUvu94nMnA46jtDyFBA3V7ESHl5OdLS0my+5eTkQKPRGD2GUChEREQE6uvrjbaT/2HCzfHjx02CDwCkp6cDgE1dYa2trWbDzYcffggAWLt2bbe7q1QqFfbv34/Y2FgolUosWrSIgg8hZEiglp8Byp73oCfdOjDompHL5aivr++yhciQuRYMS91DlZWV2LBhQ7+0/EgkEqSmpnI3W2Wty6q7DPeNYZcag3md3JY0hkwmQ3x8PHczi3s/uVyO8PBwbN261er+7e77QAYPe78zhAxlFH4GqO6+BzKZDDExMV2OFUlOTrZYx9agYGlMCncsimHX24cfftgv4ccSe7uHesIwKDY0NGDhwoWoqqpiAxYzBqiiosIkFHHZ250ZFhZm9r1iWHofmLBlLqiRwcVR3xlChgLq9hpiSktLAQBxcXHcIqDzoJmYmIiamhqLB8LCwkKT7i3DW3l5OQCgrKzM5DGYxz9//jwbJgIDA+Ht7Y3q6mqjuoOJRCJBcXFxt275+fm47bbbsHTpUraFTKFQYOvWrQgPD4dcLodIJMK8efNQVVVlU8gIDAyEm5sbjh07xi0COLPYNmzYALVajZSUFG41FvNejRw5Evn5+exrj4iIQFZWFvbv38+9CyGEDFrU8jNA9eQ9sNaaIZFIkJKS0mU3iDlMy4RWq7XYisDUaWpqYp/fsFVBqVT2ecuPrS1Z5lhq3TLU3b8BnG4we7rZumq9s/YZMMdwsDu364wMDfZ8ZwgZ6nrc8sMs0iaTyYy2i8ViFBUVGQ22lMlkRmfE3IXduGfXhuvKMI8nkUhQVFTEljP/nj17Nrvd3GOLxWJs27aNLd+2bZvRa7P0OBKJhF3nhtnG/VuZ+1t67X2NGey6YMECo+1Mq0xFRYVdB2nmPc7IyEBFRQXS09PNHnCFQiHEYjFOnDgBAMjLy4NMJsOkSZOgVqvN3qcvmGvJysrKQl1dHTQaDerq6lBZWWlSJy0tzeLf6ihxcXHs+B9bgw8AxMbGWm29sxXznQTA/s0UfAghQ12Pw4+tJBIJYmJikJOTg7TOWULNzc1suUwmQ0pKCgoKCpCWloaCggKkpKSYhIhp06Zh+/btRj/SXl5emD9/PuRyOdLS0lBSUoLIyEij+95xxx3YunUr+wNfUVGBefPmQSQSsXW4j1NZWYmUlBQsW7aMfc6SkhLExcWZhDpbXntfUalUUCgUiImJMXqdzIJ6TNeYvSorK612yYhEIrS3t2PLli3IzMxEQUEB4uLiEB8fb9QN1t9EIhHWrFkDAFixYgUUCgXCwsKM9pVYLMaWLVuMPh+OJpPJ2Bap+Ph4o/BseOMuwigSiRAWFoajR48aPJr95HI5+520J3gRQshg12fhh3umqlQqkZOTA3T+mMfExBi1SCgUClRUVCAxMZH94RcIBDh9+rTZVgvD8Sd79+5FXV0dYmNj2XLmIMewNDbG8HH27dsHAEbPuXfvXjQ1NWHSpEmAHa+9rykUCpSVlWHhwoUQi8WQyWSIi4tju564uK1bhre8vDyEhIQgMjLSpIy5yWQyKBQKPPfcc2zIYfaDRqPpduByNJlMhuzsbNTU1CAzM5MNijU1NZg+fTrQGdQzMjJw4cIF7t0Bg31lrgUQnaGC2/JoiGlJYwYSc1ubDG/M+CpDzGe2oqKCW2QzsViMsLAwi58HQggZyvos/Bw9ehSRkZFmDxhxcXEQCAQmgzerq6vh7e2NwMBAo21cGo3G6ECgUqnQ2toKHx8fo/Bh2PWVnZ1tMhXb3ONotVqzz8mw57X3tcLCQpSWliIjIwNxcXFWx/kolUqkp6ebHHzTDLqILHUNpaWlmW0REovFiIuLMzswuq8x731ERAQuXbpksgZRUVERwsLCUFxczLbirVq1yuzrTk9Ph1qtZrsXufbt24fw8HCzn3WZTIa1a9eyAd1eTNfl8ePH2ddmLrhamw4PoN+7IgkhpD/1WfgpLCxESUkJ27zPPTMWCATIyMgw+gHnDlLVarVoaGgw2mYL5kx74cKFbNeXucX5usuW194fxGIxO8NHIBCwLRt9wXD2kuEYEpVKhczMzD4bV8K892KxGMuXL0dmZiba29u51aBUKrF9+3ZotVqUlpZaDInMtPFNmzZZ7MZTKBQoLS1FfHw82/XJvI6IiAgsX76827OnkpKSjLoumQHTx48fN2kxCgkJQV5entnu14EQzgkhpL/0WfiBwcDTgoIChIeHG41l0Gg07Hggw5sjBpwyB4zXX3/d4kGtJ3rztXcH0xLADFBmXg86Z3yYOxg6EnNAVqvV2LBhA7e4TzFhi+niskbROf08JSXFpNWGCS9drZfDYMJ+amoqZDKZXa/DEqbVx7AlLS4uzmIrVF1dHTZu3MjOCjO0d+9eqNVqSKXSXh3XRAghA1GPww/TxRQcHGy0PSgoyOIFG5kzY+bMk+lq4o6/6U3MLJue6o/Xbgkz44wZ08LtjpJKpcjKykJiYiI7TsfRJBIJsrOzoVarbZ5m3V+43UVyuRwKhQKvv/46YmJiUFRUxAaDZcuWobW11WygtfRZLywsREFBgcnA8+4y12rW0NAAf39/JCUlsduEnZcXaW1txTfffMNeLsPw/WYeq6ysDNnZ2UatlpZuvR2aCSGkr/Q4/KBzPE94eDj7Ay8SiZCcnGxUJzs72+gMMzY2Fmq1Go2NjVAqlTh+/DhSUlJMpp874gDd0NAAgUDABhRzr6+7evu124JplTCccWZp9g5z0DNsCeK2CjDkcjmKDQY8dzW7iGmZKC8v77KFQ9Y5xTojI6NPxp4YBp3IyEjEx8ezl/RgWsaYfcaMf2KCgUQigVQqNdqnzD4v7uzirKqqMtuqqFAokJ6ebrYMXczyKrZh7A4T1pKTk9n75OXlobW11ej1SqVSs+OyzC0DYOnWV12VhBDS2xy2yKHhImkajQZlZWVITk5mF34zLEdnkzy3ZUDGuW6R4QJzYgsLyUksLPYml8vh4+PDPofhYzPjOpKTk9kVd809DtN9Y3jdKqGFywpYe+3d0Z33wJkM9v1j6XPEJbNzsUJCLBns3xlCHMlh4Yc4Fr0H1tH+IcQ+9J0h5HcO6fYihBBCCBksKPwQQgghxKlQ+CGEEEKIU6HwQwghhBCnQuGHEEIIIU6Fwg8hhBBCnAqFH0IIIYQ4FQo/hBBCCHEqFH4IIYQQ4lQsrvBMCCFkaKEVngn5H4vhh74k/YveA+to/xBiH/rOEPI76vYihBBCiFOh8EMIIYQQp0LhhxBCCCFOhcIPIYQQQpwKhR9CCCGEOBUKP4QQQghxKhR+CCGEEOJUKPyQLolEIhQVFUEikXCLCCGEkEGHws8QJxQKkZ+fD5lMxi1yOCYkFRcXm70VFRVBJBIZ3UcsFqOoqAhisdhoO+kbzHtm6fMhEomQn59v8r4RQshgRis8D1COeg+EQiFWrlyJ8+fPIzc3l1tsRC6XIzIykrvZJiUlJSgsLGT/LZPJEBwcDKlUalSPeT379+9HYWEhxGIx5s2bh+3bt0OhUBjVtcZR+4eLeX2tra0mr7032fq8EokEqamp3M02qaurw+rVq6FSqdhtIpEIUqkUx48fN/p8GL5/TDDifn4kEglSUlKwdetWu947BvPcXl5e3CITWq22289D/qe3vjOEDEbU8kOMlJeXIy0tzeZbTk4ONBqN0WMIhUJERESgvr7eaPtgEBgYCG9vbxw9epRb5DBMa5xcLucWdamwsNDkPejqlpWVhbq6Opw/f94o+Fjz4Ycfws3NDWKxGKWlpYiIiHB4649SqUR6errJ6zX32puamqBUKrkPQQgh3TLoww/3QNKX3TwDBfM3c7uZiouLkZeXh5CQEMTHx5uUMbfuHIStYQIE9zkd/Ty9IS4uDgBQUVHBLRq0kpKS4O3tjdLSUm6RRSqVCr/99humT58OpVKJzMzMfgkfIpEI/v7+2L9/v83BjRBCujLoww/534EqMzMTaWlpKC8vh0ajQU5OjslZNHMrKSkxqsN0s0ilUuTm5kIikZgEJHO3oqIiAEB6erpRl1dcXBzUajWysrKMzt4HQkuQTCazGMKEQiESExNRU1PTLwf6npBIJNi2bZvJ2CmRSITk5GQcP37c7r8pNzfXahdcX5g+fTqampqwd+9ebhEhhHTboA8/zIG/v3+kBwrm7J5pweCy5QDfVddKeXk5AKCsrMzkMZjHN+xiYVqCqqurjer2NaFQiCtXriAsLAzFxcUms9dEIhG8vb2xb98+o+2DWXp6OtRqNT788ENukRGmlc5SMOwPYrEY4eHh1OpDCHG4QR9+iDGlUonjx48jMTERQqGQW4ykpCT4+/t36wAvFouxbds2xMTEICcnx6i1h8F0U0RERLDPz/y3oaGBU7tvqVQqvPPOO0hPT0dJSQlSU1ONZqBNnz4dNTU1g3ZQrVarNQoJcrkcYWFh2LRpU5fhgRnrVV9fj+LiYuTn55v9/PSEWCzGxo0bbXpcoVAIsViMqqoqs58zQgjpCYeFH+bAyHSJGI65MRyHI5PJ2DrMD6zhNnPToeVyuVF3i+HZqTOO8ekKc5a/YMECo+1Mq0xFRYVdB3hmH2dkZKCiogLp6ekmLT5MPbFYjBMnTgAA8vLyIJPJMGnSJKjVarP36S+FhYXIysqCWq1GdnY2tmzZgvDwcKuhkPs5tOVmriuqLzDBRy6X27Xfc3NzkZaWhv379yMvL89hIUgsFmPhwoVwc3PjFpm1bNkyeHt7s12rhBDiSA4JPxKJBBkZGSgtLUVa5wygmJgYk0ASHx8PAEhLS0NBQQH8/f2xatUqBAcHs2ND1Go10tPT2fuIxWK0t7ezXS45OTkICwszeWzyO5VKBYVCgZiYGKMD74IFC+we+GqosrLSZLqzIZFIhPb2dmzZsgWZmZkoKChAXFwc4uPj7Zpp1FeYLtOSkhL4+fmZtJxwSaVSky7Arm7z5883CZpMN6CtY6CEQiE2btxoNUQNHz4carUajY2NkMlk8PHxwYoVK+wKPoaYrk8mBPWkO4z5fWhqajKZam+OTCbr9pILhBBiix6HH6Y1obKykm2eViqVKCsrQ0xMjFErTl1dHdsqoVAoUFVVBYFAwJ7dqVQq7N+/H2FhYez9FAoFVqxYwT4G061j2K1CTCkUCpSVlWHhwoUQi8WQyWSIi4vD9u3bzR4QmcXuuC0XxQYzxiIjI03KmJtMJoNCocBzzz3HHtwUCgUqKiqg0Wi6Hbh6GzMguK6uDgDw0ksvWQ0ZjiAUCiEQCGweA7VgwQKMHDkSQUFB3CKg8/EiIiLQ2toKlUqF3NxcZGZmdhkybMG0kPn4+HQrAMnlcqSmpqKystKm12T4OVWr1X3yfhBCnE+Pww8zxoO7LgozvsMwoHDP/uvr69mz1a4YdjkwLUjEusLCQpSWliIjIwNxcXFWF4mztuYKM1ursrLSpIy5mWsREovFiIuLMzsweiAQCoVYunQp1Go1Vq9ejRUrVqCpqQkZGRm92rI4adIkwMYxUMw+LC8vtzj2xdJ30FGYFjJ7JhUw3eDh4eEoKCiw6b5M8Nm6dSt27NiBzMxMVFVVISMjw2RwOiGE9ESPww8jNTXVqCUgIyMDAoGAW81uzLRrdHaXpRnMNiLWicVipKSkAAAEAgGmT5/OrdJrRCIR5s2bZzJglTmQWjqQ9xWRSIQ1a9YAANsVw7y2yspKxMfHd6uloysikQgxMTGoqqqyGEQZzDiZqqoqs+ESA3BgMBN6MjIyUFVVZbbbj4sZUxYTE4PXX3/dqL5UKkVlZSVSU1MpABFCHMYh4Uer1aKgoMCkNcCWHz5rmC618vJym84cyf8wXVjMAGXm/UDnEve9fRARdV62QK1WY8OGDdzifieRSJCdnY3jx4+b7YqRSqUoLy+Hm5ubyeD7nmBamgB0OZCXGSdTVVVl8bMv7LwkRn8PDPby8mIX2WTG9mRlZVl83YbEYjHWrl0LABbHKBkGoN5skSOEOI8ehx+lUgm1Ws025fc2ZnwDMcW0kmVnZ6OmpsakO0oqlSIrKwuJiYnsOB1HY4IF05XEDRb9iWmVSE5ORk5OjsXWFHTOenruuefMHoy7gwkq/v7+FsddAWDHVaWmpqKkpMRigJDJZMjLywOshIa+IBAIMG/ePISEhKCkpARpaWlmA6U5crmcnSjR1X2YQBofH98rn1tCiHPpcfhhBinHx8cbtSiIxWK2W6G7VCoVWltbjQY3L1iwACEhIdyqTo3pNkhJSWFb4CwdNJmuHcOWIEvdO8w4K2bAc1djSgxb6ro6mDHLG2RkZPT6NHimJUwsFmP58uUWp+r3JuYSE9xuHXOYsVXmurEMu4hycnK63M+9ibsYprnXaw7zftTX19t1v9zcXFRWVtJkB0JIjznsqu7cq00bXoWZOevlXllcJpMhIiLCqIVAIpEgOTmZXZ+E6UJhrvxcWVmJ+vp69n4AjB7b0nMNNt15D5wJ7R9C7EPfGUJ+57DwQxyL3gPraP8QYh/6zhDyux53exFCCCGEDCYUfgghhBDiVCj8EEIIIcSpUPghhBBCiFOh8EMIIYQQp0LhhxBCCCFOhcIPIYQQQpwKhR9CCCGEOBUKP4QQQghxKhZXeCaEEDK00ArPhPyPxfBDX5L+Re+BdbR/CLEPfWcI+R11exFCCCHEqVD4IYQQQohTofBDCCGEEKdC4YcQQgghToXCDyGEEEKcCoUfQgghhDgVCj+EEEIIcSoUfkiXRCIRioqKIJFIuEWEEELIoEPhZ4gTCoXIz8+HTCbjFjkcE5KKi4vN3oqKiiASiYzuIxaLUVRUBLFYbLSd9A3D/d9bIZf5DBYXF0Mul3OLhxRmH1r6volEIuTn55t8DwghfYtWeB6gHPUeCIVCrFy5EufPn0dubi632IhcLkdkZCR3s01KSkpQWFjI/lsmkyE4OBhSqdSoHvN69u/fj8LCQojFYsybNw/bt2+HQqEwqmtNT/aPpee0Z1/1hEQiQWpqKjQaDeRyOZRKJbdKn5HL5fDx8cHq1asRGBgIqVSKsrIyo/eyK5b2p0QiQXJyMg4ePIgrV66gsLAQWVlZOHv2LBQKBUQiEaRSKby8vIwezxytVoutW7eafEa685ntzf3O/E3Hjx83+gwZfh+YYNSbnzFzevKdIWSooZYfYqS8vBxpaWk233JycqDRaIweQygUIiIiAvX19UbbB4qgoCAIBALu5j5TWFiItLQ0yOVySKVSFBcXIz8/H0KhkFu1V4lEIoSFhWH//v1QqVTcYpt1d38qlUqkp6ebfKYMb1lZWairq0NTU5PFsFJXV4esrCyT+5q7lZeXc+/eJz788EO4ublBLBajtLQUERER1PpDSD+i8ONAEokE27Zt6/MuHMNuBe4tLy8PISEhiI+PNyljbo7uiggMDIS3t7fJczr6eXpCq9WaHPBVKhVaW1sRHBxstL23GB78FQoF1q5da7G7pDekpKRArVZj79693CITcrnc6msztz8Zhw8fRmJiIoqLixEeHm7SemONSCSCv79/jwNaf1OpVPjtt98wffp0KJVKZGZmWgxzhJDeR+FnCFCpVMjMzGTPbDUaDXJyckzOeplbSUmJUR2ma0oqlSI3NxcSicQkIJm7FRUVAQDS09ONukni4uKgVqvZs3Hm7H2gtAQNHz6cu6lbrI2nkkgkdrXmKBQKzJ8/v8+6QsRiMeLi4roMFcxnISwsDOfOneMWA1b2Z0NDAwDA19eX/Xxyu0G7Mn36dDQ1NdkU0Aa63Nxcu/9+QkjvoPAzxJSWlgKdAcQcoVCIxMRE1NTUWDzzZLplLN2YroOysjKTx2Ae//z58+xBlWkJqq6uNqrbX4KDg6FWq9HY2MgtQn19PXx8fMyGFu5gVpVKhf379yMmJsakC8NcIGDu74jWQZlMZhJGDW/WnkMoFEIsFkMgEJh9negMR9u2bUNKSgoKCgqQnp6OHTt2cKsBVvYn8/4HBQUZbbeVWCxGeHh4lwFtIGJaPQdSaych5HcUfoYYpVKJ48ePIzEx0ewBPCkpCf7+/ti3bx+3qEvMATEmJgY5OTlmB8Uy3RQRERHs8zP/ZVoC+pNQKISPjw9aW1vNHlCrq6vh7e2NwMBAbhGUSiXKysqMws7evXuhVquRkpJiVDc4ONgoADJWrFiB0tJSZGRksK1n3ODEJZfLTQ6iubm5JqGUuRUUFECj0Zg8N4P5DHDHajFSU1OxcOFCbN26FfPnz7faTWVtfzY2NkKtVlsMWNYwAa2qqsrs56y7LAU1R2PGztXX16O4n8Z0EUIsc0j4YX6cmYMjc/bJ7Q7glps7O+We0Rr+6JsrY7oeuAcHuVxu8oMjk8mMtnX1egy7NeRyucnrYbYxB7GAgAC2rD99+OGHAIAFCxYYbWdaZSoqKqwe0LiY/ZCRkYGKigqkp6ebtPgw9cRiMU6cOAEAyMvLg0wmw6RJk6BWq83ep68xrVBHjx7lFgEAKioqACstZ0w5E3ZUKhXOnz9vFPaYgcTcli6lUgmVSmXUsrZ9+3a89NJLJp9fhkQiQWRkJNrb220+eAYFBaG9vd3sAV4sFiMlJQVff/011Go1txjonLnXVehhWNufPRlDtWzZMnh7e7Ndq5ZIpVJkZmaaBC9zzAU17m+ArTdL7xcXE1L379+PvLw8k98kQkj/cEj4AYCwsDDMmjULy5cvZ88+4+LijALQHXfcga1bt7I//BUVFZg3bx575iuRSNhWhbTOmUTNzc1Wy5iDj2FXBXPw8ff3Zx9b2DkDiTkbl8lk7Nmt4etZuHChSSAbN24c6uvrkdY5ZoEJAz4+Puy4lu3btyMhIcHofv1FpVJBoVAgJibG6G9ZsGABvL292a4xe1VWVlodkyISidDe3o4tW7YgMzOT/QzEx8ebbQXpD0yoYUIMV1etFUzLmmHYKS0thbe3N5KSkgAbnsMQM9bH3FgQkUiE5ORkVFZWYsWKFTbvv+HDh5ttiUHnGJqKigp8/vnn3KJu6epvPXr0KMLCwrps3TIkk8nsnr5uCyaoGY49Y/a/YcuZLTdz75c1TOBlQpCt4YkQ0jscFn4AYPPmzewPrkKhQEVFhVEXwYoVK4zOJrnjU2JjY43GoiiVSuTk5HRZVl1dbRJ01Go1NBoNJk2aBHT+8Lm5ueHYsWMQiUSIiYkxaQHJzc1FVVUVpk+fzm4DgPb2drY1BZ3dBt7e3ti0aZPJ3ztQKBQKlJWVsWFOJpMhLi4O27dvN9sCw4xH4Z7hFhvMGIuMjDQpY24ymQwKhQLPPfecyT7RaDTdDlyOxLR8WRvvZK4lh+vYsWPw9vZmP2/KzllbhYWF7HMcP37c4nPYQtS5XoxarcaGDRu4xVZZa2lhBrU7gi37s6uWNC7Dz6larcZLL71kcjLSXSkpKRAIBDh27Bi3qM8wax35+PhQACKkHzks/JjrR2d+ZAwPIobNzNnZ2UYLnB09ehSRkZEm3WVdlVVUVECr1bIDKydNmoTW1lacPn2aPRDExcVBIBBApVKx/2/uR7C+vt7kTJV7Fh0bG2v27+V2c/S3wsJCdnxJXFyc2UXiGMwBnHuGm2YwW6uystKkjLmZO6CKO2cUmRsY3R9sHe907Ngx+Pv7sy05XAqFAunp6Wb3ZU9b19C531566SWo1WqsXr3abAuOJUzXjqNn1olEImzZssUoiNiyP5VKJWpqaiyOQTPEBJ+tW7dix44dyMzMRFVVFTIyMnq86jTzWeSe8PQHVefsTHtbjwghjuOw8MMNCFxMV5FhVxN3gbzCwkKUlJSYnSlhrYz5gY2NjWW7t44ePYpjx44hMDAQIpEIw4cPNzpDtbQuibkAY+5A0tXfOxAw4zsAQCAQmLRo9SaRSIR58+aZDFhlfvgdOYjVFkwrRVVVVZcHP4VCgaqqKpsO2IYkEgni4+N7FPbkcjkyMjJQVVVl81gWQ301s86e/blv3z6rYZL5bYiJicHrr79u9HhSqRSVlZVITU3tdgBiPotNTU1GLbiEEOflsPBjDtMSo1Kp2K4i7o8bF9M3XlBQgPDwcKMBgtbKjh49Ch8fHyQmJsLNzQ0VFRXsgSM6OpoNRAyBQGD2wGZprMdgwnRhMQOUmdYZdC5x392DiK160mXTW5gWma4G0DKYAzZ30LglcrmcnRbenWDHDJ4PDw9HQUFBt1sFmM+0o2fWCYVCo1Wc7dmf1sKkWCzG2rVrgc5ucXOh0TAAmWv5tUYikSA7O7tbrWiEkKHLYeGH21UEK91DjLi4OIvX9VEoFOxAUu60Y3NlDQ0N8Pb2xoQJE9DY2AilUgmlUonGxkbExcXBzc2NPSBwu8kMBQcHWx3DAAtdYxgAwYlZkC47Oxs1NTUm3VFSqRRZWVnsarv2HkhsMRAPNhKJxOp4J3OY8UpxcXEWx5wYjpPy8fHB8uXLrQZ7LsPZgkzo6WqWVVcLUGZkZMDLy4udSl9sZhZjV8x9jidNmsSGn+7sz6KiInh7e2PZsmXsNqaVq7S0tMtWLqlUivLycsTHx3f5uTXsWmcCaVePTwhxLg4LP15eXkhPT2f/zUzRZRYoa2hogEAgYAc+ijpnshjKzs42ChSG4claGTq7vtRqNSZPnmzUwlNfX4/o6Gi0t7ezP9TKzhk7KSkpRgcFmUyGsLCwLs9mmfEc3L83Pj7eoFbfYboNmB/6NCuzUZhuJ8OWIEsDL5mDMzPg2dx0ZkNMV0h5eXmXBxtZ57IFGRkZvToNnvmclZaWWg0V5nz44YdoampiB80zmNCTnZ2N48ePIy0trcu/l2F4YA4LC2NnL3YVehhM66c9N1sfm/lecC9LUlxcjPj4eLY1tTv7U9m5RlJYWBgefPBBFBUVsTMobW0py83NRWVlpdnB6Ib7lQlU9vzthBDn4pCrujMHz/r6ejYAmLsKs0wmMyovLS1FcnIyexVpOecKzXV1dWzrgbUyhuGASeZ5xWIxFi5ciIqKCpNBuZLOq2szuI8ptHKVb6Zrh2m5qqurw+HDhzFjxgyTv7s77H0PnA3tH0LsQ98ZQn7n0PBjqbWB2M/e98DZ0P4hxD70nSHkdw7r9iKEEEIIGQwo/BBCCCHEqVD4IYQQQohTcUj4kUqlNN6HEEIIIYOCQ8IPIYQQQshgQeGHEEIIIU6Fwg8hhBBCnAqFH0IIIYQ4FQo/hBBCCHEqFld4JoQQMrTQCs+E/I/F8ENfkv5F74F1tH8IsQ99Zwj5HXV7EUIIIcSpUPghhBBCiFOh8EMIIYQQp0LhhxBCCCFOhcIPIYQQQpwKhR9CCCGEOBUKP4QQQghxKhR+iF3EYjGKioogFou5RU5BJBKhqKgIRUVFEIlE3GJCCCGDAC1yOEB15z0Qi8VYuHAhBAIBt8gsjUYDuVwOpVIJAJDJZIiPj7dYjs7nmDdvHrZv3w6FQsFu72v27h+5XI7IyEjuZlZJSQkKCwuBzrr19fXIzc3lVoNcLmf/n6nD3W+GKisrIZVK2X/39D0ipLvs/c4QMpRR+BmguvMe2BNMJBIJkpOTTcJPREQEVq9ejaSkJCQnJ+O9997DI488gpCQEO5DsPrjAN2d/cMll8vh4+ODvXv3Ys6cOdi+fTumT5+OsLAws3+P4T4TCoVd7msmKHHDT1f3Y5h7jwjpLkd8ZwgZKqjbi1jV1NSEzMxMpKWlIS0tDQUFBdBoNCgoKGC3paenD+iDs1AoRH5+PiQSCbtNJpMhLCwMmzZtwo4dO1BWVoaMjAwAYP8esViMjRs3QigUQiwWIyUlBWVlZVAqlVAoFDh+/DimT58OiUSC4uJik5u1liZCCCH9h8IPh0QiwbZt25x2TMtQpFKpoFAokJKSAplMBplMhpiYGKMWlcLCQpSUlCA8PBxisRgSiQQZGRk4d+4cwsLCIBaLceLECaSkpLDhJiYmBkVFRSgsLGSDoOGtsrKS+1IIIYQMAIM+/Az0AbgSiWRQD46dN2+eUWtGRkYGvLy8kJGRYbTdcCzMQKRQKPD6668jJiYGERERWLFihUlrVWFhIbZu3YqFCxciOTkZOTk5yMvLw88//4zMzEysWrUKy5cvR11dHUpKSgZ8ixchhBDzBn34Ib1r+/btJi0aaWlpyMrKQl1dHcrLy5GWlmY0rmUgkslkyM7ORllZGVavXo2VK1eadFMVFxdj+vTpWL58OdRqNV566aUuQ7VYLMa2bdtMHqe4s9srMjKSWhIJIWSAofAzxAgEApNWGXO31NRU7l0BACEhIcjLy7NYPtgw430AIC0tDYWFhVCpVEbjmAxvUqmULWdagWQyGfdhWQqFAvPnz2fvb25M1Pz5840GN/f0PSKEENIzDpvtJRKJIJVK4eXlBQDQarXYunUrlEolVq5cifPnzyM4OBiRkZFG038NpyCbmzXEnaJs6b4M7pRla49trs7BgweRkJCArVu3djkbB2ZeA/P6hEIhVq5caTRLitkntjxud96Dns4kMjfby9w+Q2eoYN5Xc1PCe1t39o9EIrE5UNTV1WH16tVQqVSAlfuWl5cb/f3c90AkEmHp0qXYtGkTO4i6J+8RId3Vne8MIUOVQ1p+xGIxXnrpJRw/fpw92/3Xv/5lVGfcuHGor69nz66ZM3IfHx9kZWUhLS0Nx48fh1QqZcfHiMVitLe3s4+Zk5ODsLAw9kxcKpWanGkXFhba9Njm6mzfvh0JCQlGr9saa6+PaT0oKSmBRqNBTk6OSQvAYBAXF2e2WycvLw8hISGIj48fVN06dXV17Ptt6VZeXs69GzuomenuKykpQVpaGnJzcyGXy1FcXMx+LgUCASZNmsSeEFRXV3MfjhBCSD/qcfhhpgFXVVUZnQHv2LHD6EDf3t6ODz/8kP13UlIS/P39oVAo2LPrDz/8EGq1GikpKUBnl8KKFSvY+yiVShw/fhwREREQCoXsdi5bHjspKQne3t7YtGkTW0ehUKCiosLosazp7usbTCoqKoy6dZib4ZifwRjq7CXunPYeGBjIbpNIJJDL5ZBKpWwQYsTHx7NjjFatWkUtN4QQMoD0OPwEBgbC29sbR48e5RYZaW1tZUMGAMTGxqKpqcnooKBSqdDa2org4GB2Gzq7lpgWB0sr6Rqy5bFjY2OhVqvR2NhocE906yzd3tc32MhkMuTn5w+JQMeMaeK2ZBnezL2HKpUKbm5u8Pf3Z7cNHz4c9fX17L/XrFmDsWPHQqvV4siRI9BoNHaFaUIIIX2jx+GHOSA2NDRwi4wYHiQY5g5EhuNnmMXj0DlY1VKXhDldPTbMBDJ79eT1DSalpaXw9vbGypUrB3UAYrquysvLUVlZadKaZdiFmpmZafLZcHNzQ1hYGPvvYcOG4dixY+zn4KabbsK1a9cAAAcPHkRNTQ2WLl06qPcZIYQMRT0OPz1h7gCUZjAmKDExEeXl5d2aRm3tsR2hp69voDI320upVEIul8Pb2xtJSUlG9QejY8eOITAw0GTtpenTp6OmpsZsF15jYyPa29sREBDAbluxYgVUKhWmTZuGgoICLFq0CJcuXWLLN2zYAACDPjQSQshQ0+Pwo1QqoVarMWnSJG6RVUePHkVYWJjJAcgaoVCIiIgI7mYTtjx2fX292TrDhw83+rc9bH19vamn06gNBwQbLuKnVCqRnp7OzqQbzJRKJdrb2xEXF8duE4lECAsLs9h9ywxg//zzzwEAqampKC4uRkpKChYtWmQ2MKlUKqxevRoAsGDBAnZ7T98jQgghPdPj8KNSqbB//37Ex8cbXTtp7ty5VmcA7d27F2q12qRbYM2aNRCLxewYHcPBwwsWLDC5wCbTNREUFMRu6+qx0dmVg87rODEkEonZ8R7m2Pr6mO7Avjrz12q1RmvMWLqVlJRw74rc3Fyz3T2GmEX98vLy4O/vj2PHjnGrDDjca28xM9WYAFNcXIzs7Gx4eXkZbSsuLmbHOjHjuvLy8uDt7Y2cnBykGQxyZp4jIyMDarWaDY1MaDIcDN2T94gQQkjPOWydH7FYjIULF0IgEAAG6+o0NjZaXA9GaGYtHMN1fLhrB1VWVqK+vp5di4Y5SMtkMja0MOv8dPXYMPP4dXV1OHz4MGbMmGHTejzc+1t6fcxaQL29zo8zof1DiH3oO0PI7xwWfohj0XtgHe0fQuxD3xlCftfjbq+hzHAKO/dm2MVHCCGEkMGDWn4GKHoPrKP9Q4h96DtDyO+o5YcQQgghToXCDyGEEEKcCoUfQgghhDgVCj+EEEIIcSoUfgghhBDiVCj8EEIIIcSpUPghhBBCiFOxuM4PIYSQoYXW+SHkf8yGH0IIIYSQoYq6vQghhBDiVCj8EEIIIcSpUPghhBBCiFOh8EMIIYQQp0LhhxBCCCFOhcIPIYQQQpwKhR9CCCGEOBUKP4QQQghxKhR+CCGEEOJUKPwQQgghxKmYvbwFXduLEEIIIUMVtfwQQgghxKmYbfkhhBBCCBmqqOWHEEIIIU6Fwg8hhBBCnAqFH0IIIYQ4FQo/hBBCCHEqFH4IIYQQ4lQo/BBCCCHEqVD4IYQQQohTofBDCCGEEKdC4YcQQgghToXCDyGEEEKcCoUfQgghhDgVCj+EEEIIcSoUfgghhBDiVCj8EEIIIcSpUPghhBBCiFOh8EMIIYQQp0LhhxBCCCFOhcIPIYQQQpwKhR9CCCGEOBUKP4QQQghxKhR+CCGEEOJUKPwQQgghxKlQ+CGEEEKIU6HwQwghhBCnQuGHEEIIIU6Fwg8hhBBCnAqFH0IIIYQ4Fd7o0aP13I0A4ObmBj8/P7i7u4PH43GLCTGi1+tx/fp1XL16Fe3t7dxiQgghZMAw2/Lj5uaG0NBQeHh4UPAhNuHxePDw8EBoaCjc3Ny4xcSC8PBwrF69GllZWQCAtLQ0vPvuu0hOTuZWJYQQ4iBmw4+fnx+FHtItPB4Pfn5+3M3EgsDAQIwYMQITJ05EVFQULl68CHd3d8ycORO+vr7c6oSQfsLn8zFhwgSIRCKMHTuWW0wGGb6/v/9fuRsDAwMp/JBu4/P5aG5u5m4mZtTU1CAuLg6jR49GS0sLvvjiC4wfPx4TJkyAWq3GyZMnuXcZ8BISEvDaa6/h0UcfRWhoKA4dOgS93mzvOiGDhl6vR0pKChYtWoQZM2agvb0dp0+f5lYjg4TZ8ENn7qQneDwehR87BAQEYNKkSRAIBNi3bx90Oh0mTpyI5uZmHDx4kFt9QPPz88MzzzyDkJAQHDx4EBs3boROp+NWs5ufnx9uv/12zJkzBwsWLEB6ejqGDx/ulMFKJBJBLpdj3rx5aGtrowNwHzpy5AgCAwNx8803Y+TIkThx4gSuXLnCrUYGAbMDnoVCIXcTIXZRqVTcTcSCqKgoyGQyCAQCrF27Fr/88gu3is3EYjEWLlyIpqYmrF69us/fh6VLl+Kee+5BdXU1Xn31VdTW1nKrGPH09MSYMWPA5/Ph6emJ6OhoeHh4YOTIkfDy8kJwcDA8PDwgEAig0+mg0WhQU1ODX375BT/99BNOnDjBfcghTyQSQSqVQiAQYOvWrVAoFNwqvUIoFGLlypXw9/fv0+d1FKFQCJlMBh8fH5SVlaGoqIhbxSZ+fn74y1/+gsjISHz//ffIy8vjViGDAIUf0iu6OugyP+BeXl7com7RaDSQy+VQKpXcol7FhA2BQMAtsltlZSWkUil3swmZTIb4+Hiz9fsz/EyaNAnPP/88vLy8rB4cb731VmRlZcHb2xs6nQ7t7e1s6821a9dw5coV+Pr6IiwsDA0NDfjggw9w6tQp1NXVcR/KKfVm+GE+P1qt1uT7NNjDz8yZM7Fo0SLweLwev/6pU6di6dKluHHjBt566y2Ul5dzq5ABrlfDz4wZM3DfffehubkZmzZtQnV1NbcKGaL68qA72FkLM+ZYq9+f4WfJkiWYOXMmTp8+jZdffrlH3V0SiQSpqamoq6vr879joKPw0z3Lli3D3XffjerqauTk5HTZKmkNn8/HypUrIRKJ8MMPP2DdunXcKmSAMzvba7C79dZbsWLFCvzlL3/B8OHDucWEDCjMrK7GxkZu0aARGhqK2NhY6HQ6/PTTTz0KPo42btw4/OMf/8DmzZsxceJEbjFxAqGhobj55psBAOfOnetR8AEAnU6H/fv3o729HePHj0dUVBS3ChnghmT4GT16NEaMGEHrzZABz9fXF97e3gAAtVrNLR40br/9dgQHB6Ourg4//vgjt7hfVVdXQ6vVwtvbG6NGjeIWO1xoaCheeeUVrF+/HqGhodxih/Lw8OBuImaIRCIEBQXh+vXrqKio4BZ3S0VFBerr6zFs2DAK1YPQkAw/hAwWYWFh8Pb2RkdHR4/PRvtTeHg4BAIBfvvttwH3d7S0tODKlStwdXVFSEgIt7hLltZbCgoKgkwmw9tvv43o6Gh2e0NDA9zd3REeHo5Zs2YZ3ceQRCLBjh078Oqrr3KLbOLq6oq5c+fi/fffx9NPP43w8HBuFdJpypQpcHNzw+XLlx02Pqeurg6XLl2CQCDAmDFjuMVkgKPwQ0g/GjVqFLy9vdHe3o6LFy9yiwcNoVAIvV4/YMfmqFQq8Hg8k/GMY8eOxZQpU/Doo4/i2Wefxeuvv46NGzeiqKgI27Ztw86dO3HfffcZ3YfR1NTEroaflJTEbtfpdPjxxx+h0+mQkJBgsfUnNDQUfD6/2y1+N27cwAcffIAPPvgAkZGRkMvlkMvlSEpKAp/P51Z3WlFRUYiKioJer8epU6fQ0tLCrdJtFy5cQEdHB0aMGMEtIgOc3QOeR44cidmzZ+Pmm29mL39x/fp1XLhwAcXFxbh06RJb13DA8z//+U/ccccduOWWW+Dt7Q29Xo/Lly9j9+7dOHr0qNFzoPOMeNq0aZgwYQL8/f0hEAig1+vR1taGM2fO4NNPP0VNTQ1bXyaT2Xzm89VXX2HXrl3czXZj/r7Lly8jNzcXiYmJmDVrFoKCggAAzc3N2LNnD7755hvuXeHu7o7U1FTExcXB19cXLi4u0Ol0aGhowJ49e7B//37uXYDO/X///fcjMjKSbfK2tP8nTJiAJ554Ar/++iuOHz+O2bNnw8vLC9XV1SgqKsKUKVNw1113QSAQ4OzZsygoKDD5YRg5ciTS0tIwatQo9jpvHR0daG9vx5kzZ/DOO+8Y1WcM1IPgQPP4449DLBajvr7e5oG9A23Ac0hICLKzsxESEmJ1ICwziLk3lJeXIzc312ibUChEaGgooqOjMWrUKNx6661A5/dFIBBAIBCwn2WtVov6+npoNBpcunQJ7e3tSExMBADk5ubi3LlzRo/NSE5ORkZGBtRqtVE9X19frFq1CiNHjsTHH3+Mf//739y7YvXq1YiOjsann35q17RrSwOew8PDMX/+fEyZMgUtLS1QKBT47LPP7Bp/NRQHPKelpWHevHlQq9VYv349jhw5wq3Sbf/3f/+Hxx9/HFeuXEFOTg5N6hlE7Ao/M2bMwJw5c+Dm5ga9Xs9OURUIBODz+Thy5Ajeffddo/r33XcfWltboVarMWLECHR0dECr1cLNzQ0uLi5oaWlBQUGByUJdixcvxuTJkwEA7e3t6OjogIuLCzuOp6GhAe+99x77456VlcWGH6Ye88PGtW/fPod8cQ3D3enTpxEfHw8ej4f29nZ2n7S3t+OTTz4xGgchFArx2GOPYfjw4Ub7kdknHR0dOHz4MAoLC9HR0cHe7+6770Zqaio8PDzYv43H48HNzQ08Hg9tbW0oKSnBt99+CxiEn5aWFri5ucHLywsuLi5wcXGBUqnExIkTwePxwOfz0dHRAYVCgbKyMvb54uLiMH/+fPj4+BjtS2b/VlVVmRxwGNYOuszBuzeYOwgOVHw+H6+++iqio6Nx5MgRrFq1ilvFLGb/nTx5EitXrjQq64/wwxwUfXx8sH79eocszNjT2V6PPPII7r//fmi1Wmg0GjQ1NWHkyJHg8XjYsWMHzp49i19//RXXrl3j3hUA8Oijj+L+++/Hjz/+aHUdF+Y9HDduHBQKBd5//322bOHChbjvvvtw5swZk9lvzD4bNmwY3nvvPezdu5ct64ql8MMIDQ3FvHnzcMcdd6C1tRW7d++2OQQxn59r166ZrDk1GMOP4XesoqLCpIsxNDQUCxcuhFAoxJtvvmkx5FrCvBdqtbpbn1PSf2wOP4YHwoaGBnzyySdsi427uzumTZsGLy8vozMcJhy4urpCr9fj119/RVFRERoaGhAXF4dHH30UXl5e+PHHH/HRRx8ZPNv/0joAfP311+wsGBcXF8yZMwczZswAn8/H999/j+3btxvdDwAeeOAB3HPPPWhsbOzVKfbM3+fi4sKuarxz505UVFRAKBTiySefRFBQEE6dOoU333wT6Pwbli1bhjFjxkCj0WD37t347rvvgM4xBPPnz8f48eOh0+nw6aef4uuvvwY6Z6xkZGTA19cXly5dwgcffMC28sTGxuLhhx9GYGCg0d/MhB8PDw+0trZi27ZtGDt2LKZPnw6tVovm5ma89957uP/++xEdHY3y8nIUFhayrzMrK4u93tTmzZvR0NDA/u3u7u4ICgrCb7/9xm4z5KgfgZ4cBJkf6+6M87CkpKSE3Uc9dccdd+Cpp56CQCCw2DpgziuvvILJkyebDXr9GX68vb1NWgu6qyfvuyWrV6/GzTffjO3bt6O4uJhbzIqOjmZb1ORyOU6dOsWtYuT+++/HI488gkuXLuGVV15hW0/Hjh2LP//5z/D09MTbb79tdAKUlJSEJ598Es3NzXb/fV2FH0ZoaCgWLVqEW265BZcvX8bWrVu7HO/CtJI0NjaavK6ehB9HrocFO9b16uo75ufnhxUrVmDs2LE4e/Ys1qxZg6tXrxrVsYbCz+Bl85ifO++8Ez4+PmhsbMR7771n1FV1/fp1fPnllyYfLIZer8exY8ewadMm9gBaUVHBflBuuukmzj2A4uJiFBcXG03/7ejowO7du1FTUzOgLqDp4uKCK1euoKioiJ1JoFKp2B/N4OBgtt//9ttvh1AoxI0bN/DVV1+xwQedrVkffPABqqur4erqiltuuYUtS0xMhK+vL65evYpt27YZdW8dPXoUJSUlaGtrQ0BAAKZMmcKWoXP/HzlyBBUVFezZH4/Hw3fffQeVSoXr168DnYGGERwczO7furo6o+CDzvfcUvAhtklISICnp6ddM6T4fD6GDRsGdI4t6S6hUIi//e1vmDt3rsPGh/B4PLi6unI390hbWxuampq4m7ultrYWfD7fave4n58fFi1aBD8/P3z99dddBh90XvLg6tWrGD58OBISEtjtZ8+excWLF+Hh4YHY2Fij+8TFxcHd3R2nT5/utQNmbW0tcnNzIZfLAQBSqRQymcziGCR0/v18Ph96vR43btzgFtvs+eef7/K5+kJ8fLzV79jVq1exY8cONDc3Y8yYMVi6dKnDvg9kYLMp/DBTxwHg5MmTdn9Zr1y5gt27d7MHWQbzb3umpHd0dJgciPvb9evXUVJSYnIRSqZJnelaQufgOzc3NzQ3N5vte25pacH58+cBAP7+/hg+fDi8vb3Z1rgLFy6gsrKScy/gxIkTaGpqAo/HMxl819zcjB9++MFoW319vcVxRej84WRm7cTFxeGpp55CZGQkt1qv8/f3BzqngdsbtlQqFTIzM5GWluawm6NafRISEiASidjBsbbOkIqMjMSwYcPYMXPdlZaWhqioKNx1113sGLXuamtrg1arhaurq8PW1WIeR61Wm4xD666qqirodDqT7weDz+fjiSeewJgxY3D69GmzrcrmnDt3DufOnYObm5tJyDl27BgaGxvR1tbGbouKisL48eNx7do1HDp0yKh+bygvL8fzzz+PTz/9FNHR0Zg9eza3Cov5nWlubu52i3lycjKmTJmC2NhYduiCQqHA/PnzTb5P3b2lp6d32erDrO2j1+tx9OhRi9+xgwcPYteuXbhx4wbi4uKs7h8uoVAIgUAArVZr9B6Tgc+m8OPl5QV3d3fcuHGj21+I7lx8MDAwECkpKXj66aexfPly9hYREcGt2q/0er3ZGRu7du3CM888g+zsbHa/+fj4AJ3Ntpb2ZXV1NW7cuAEvLy/4+/tj2LBhbEC0tMS/Wq1mQ2FgYKBRGXMJAUM3btww+5oNffLJJ1CpVHBxccHEiRPx/PPPY+3atcjMzMSECRO41XsFc+bY3Nzco5aOgcTPzw8PPPAAfHx8UFlZic8++4xbxaLx48fD19cX169ft3t8AmPOnDn4wx/+AJ1Oh3379lk8KNiqrq4OGo0Grq6uCAgI4BbbzdfXl20NtvdEy5rLly9Dq9Vi2LBhZkPa448/joSEBNTV1WHLli12fd6YkNPa2gpPT092+65du7B48WKj0HzvvfciMDAQ58+fN2r57U06nQ4fffQRMjIyUFBQwC0GOg/kzH4xd4Jli6ioKKSlpcHDwwOnTp1iu+37wx133IGQkBC0tLRYPdEDgM8++wwVFRVwdXXFnDlzjJYusCYgIACurq7QaDQWf5vJwGRT+OlrLi4uWLBgAV555RXMnj0bEyZMwOjRo9kb0+w/VAkEAnZWleGA564wXQ723MeampoavPHGGygsLMTp06dx/fp1eHp6YtKkSVi6dCmWLl1qcQ0UR4iKikJISAg6Ojrw66+/cosHJU9PTyxduhRjxoxBS0sLdu3aZdcYg1tuuQUCgQA1NTVmWw67kpCQgLS0NAgEAhw+fNhiV7W9fvvtN7NTybsjISEBYWFhuHbtWrf+RkuqqqrQ2toKX19fk9afRYsW4d5774VGo0FhYaHdwVKhUOD//b//h3fffdfiIGp0/m1/+MMfoFaroVAo7ApYvW3KlCkICAjo9n738/PDkiVLEBoaitraWmzdurXf/j5fX18kJibC1dUV586d6/Lv0el02LFjBxoaGhAYGIgHHnjApu4vZhC9va3SpP/ZFH6YgzCfz3fImV1XkpKS2JlThw8fxhtvvIFnnnmGvXX1QR7IDMfXcFtoGMHBweDz+exFHq9fv87+iFgKft7e3uwYHUdfJuHnn3/Gxo0bIZVK8e6777LdchMnTsS0adO41R1m+vTpCAgIQEtLi8NWZe1PoaGhWLFiBW677Ta0trYiPz8fBw4c4FazaOrUqexg+J9//tnu7qCEhAQsXrwYvr6+uHDhgkMPTr/++iu0Wi1GjBjRo3Eefn5+mDVrFtzc3HDs2DH897//5VbptgsXLqClpcVs99wvv/yCmpoavPfee3a9J/ZgWvy8vLzw7bff9trzdIefnx+mTZsGV1dXnD9/3u797ufnh5deegljxoxBa2srdu7caXeAdKSEhASMGjUK165dw1dffcUtNuvcuXP47LPPoNVqIRKJrC5Qic7vc3h4OLRa7ZA5OXMmNoWfqqoqNDc3g8fjsc3uvSkqKgqurq6ora3Ftm3bjJq+XVxcukzker0eer0efD7frvFEfeHSpUu4ceMGAgICIBKJuMUICgpiVwu9dOkSamtr0djYiPr6egDAmDFjTH640TnrIDAwEDdu3OjVL+KRI0ewadMm1NbWmh1f5CgJCQm4++67odfr8cMPP+DYsWPcKoNKUlISVq9ejYkTJ6Kurg7r16+36+Dn5+eH++67Dx4eHrhw4YJdXWUA8PDDD+Ppp5+Gn58fVCoV/vGPf6Cqqopbrdt++ukn1NfXIzg4GLfffju32CZ8Ph9Lly5FZGQkamtrsWPHDoeFM0ZNTQ0EAoHJoOcDBw7g2Wefxffff2+03VGY4BsZGYkDBw4YTYkfCObNm4fw8HC0trba3SIlEonw2muv4eabb8a1a9ewbds2u6bu94aEhAT8f/buPq6t+tAf+AfSUCC0UB6tJRbaaqtAw1rjWnWudsyNmjFdXItaFqm7SrdpmeKWtj+Zstuae811dLt3xW2KGe1s3eJ2aZStdrW6Kc7oStpita2ChhYpD1JKaEuk/P4Y59yckwQCBArk8369zkt7vucckpyTcz7n+3ASERGBTz75ZFhB7qWXXsKJEycQERGBVatWDRrkhZ90aWtrw9tvvy0vpgkuoPDjcrngcDhw8eJFzJ49G/fddx/mzJkjlk+fPh233HILbrvtNsl6IyU020RHR0v693zhC1/A5s2bh/wdFc+2/a9//euSUUyX2sGDB9He3o5p06YhJycH1157rViWkJCAgoICJCcnw+VySTopHzx4EL29vZg1axby8/ORkpIilgmd9IRn7wTji5iQkIAbbrjBZ+3U1VdfLXa6FUJZMN1yyy24//77oVKp8M4770y4C8VwLFy4EFu3bsX69esRGxsLu92On/zkJ0N21vQkNJWlp6fj7NmzsFqtATeVpaWlYevWrVi9ejWioqLw3nvvYevWrUG/Kz99+jROnDiBadOm4frrrx/yBkVOoVCgqKgIS5YsQXd394iangLR1NSEixcvBqV5LlBC8J07dy5efvllbNu2bVjhYqzdfvvtuPnmm9Hf3z+sGqmoqCgUFRXBaDTi8ssvR0dHB/7nf/4HNTU18kXH1fXXX4+FCxeit7cXr7766pCfdVJSEjQaDVavXo0NGzZg5syZuHjxIi677DLodDr54sDA8Xr99ddj2rRpOHHixKj7zdH4C/g5P+Hh4bj33nuRlZWF8PBwycP5hnrIYVdXl8/n7QgPMpQ/LO/666/HHXfcIXlQoeeDC8+dOweVSuX19wSez9LBQHuu2+0Wy4P9kMPPP/8czzzzDI4ePSpfxCfPZyZ5fo7CQw57e3uxZ88er86C3/72t/GlL30J4QMPQpQ/5FDoqCnUlAnP+enp6RE/f+EZSJ6fubAfPD9Pz2cEeX5+wn7AQD+PyspKr/2KEXZUTUtLw9q1a7F48WL09fXh1VdfxTPPPDPkyWuiUSgU+PKXv4xVq1bhiiuuQFhYGBobG/HCCy8M+ZwVueTkZDzwwAO4+uqr4Xa78bvf/Q579uyRLyYSnqdy/vx5tLS0YO7cuVAqleKFYCw/z8zMTDz00EOYPn06KisrJQ/MHIxGo4HBYMAVV1yBjo4OPP3000F5UKIvwvN1zpw5M6ZP5BWOgVtvvRVXXHEFTp06FdBzdgIR6HN+hqJQKFBQUICvf/3rmDZtGt555x08+eSTfo8P4Tk/8fHxOH78OFJTU8UHoB47dgzbt28Pam3iSD366KPIzs5GY2Mj9uzZg/T0dCgUClx++eVQqVSIiorCrFmzEBYWhsjISPEcLAwaOXXqFKZNm4Zly5ahq6vL57OehCd7X7hwAU899dSkr5kORYq4uLjH5DN9PT+nv78f//znP9HZ2YnExERERUUhIiICCoUCFy5cwNGjR/HSSy9J+iGkp6dj0aJFuHDhAt555x10d3dLtrl06VKkpKSgq6tLUt3sdDrR1dWF2bNnIzo6WnwwVltbG1566SV89tlnSE9PR0tLi8+TZH9/P+rr68XRUhEREVAqlZg2bRqmTZuGjz/+2GtY+kgI7+/iwBOZA60F+fTTT3H06FHExsYiNjYW06dPFy9QH330EaqqqnDw4EH5anjvvffQ0dGB+Ph4qFQqTJ8+HeHh4XC5XHj77bfx29/+VjLiICkpCUuWLIHb7RY//6uvvhrz5s2TfObCfvD8PKOjo3HFFVcgMjIS06ZNEz8/DPym0Ztvvonf/va3fp/B0tXVJZ/lU1JSEr72ta/hu9/9Lu644w4kJSXh/fffh9lsxl//+tcRjRIcb7GxsdBoNMjNzcVdd92Fe+65B8uXL4dSqYTD4cD27dvx/PPPD7tT5OzZs7F582bMnz8f586dw44dO4Zs7rrqqquwePFiREVFIT4+HmFhYXA6nfjVr36FPXv2jOnnefr0aVx++eW48sorkZKSgrfeesvr8RaC2NhYrFixAuvXr8c3vvENREZG4sCBAzCZTGP6G2cKhQLXXXcdIiMj4XA4JD+RM1oLFizA1772Ndx5552455578MUvfhHnz5/H888/j4qKiqAFg8suu0ysXTt06JDX0/EDtWHDBnzlK19BWFgYamtr8dRTT/kNPhjYZzfddBNiYmKQmJgoPrLjf//3f/HLX/4y4NrIsXDnnXfiJz/5CVavXo1Zs2aht7cXKpUKV111FWbMmIGEhAR89tlnaG5uRlNTE2pqanDgwAH89re/RVVVFV588UXs2bMHf/3rX/H222/j5MmT0Gq1SEhIwPTp0yW1YbGxsbjvvvsQHx+Pv//973j55Zclr4Umh4BrfoiGI9Can/vuuw8rVqzAp59+infeeQcvvfTSJT2JDldsbCwee+wxpKSk4Pz58zh58iSOHTuGN954IyjNNoWFhVi8eDGee+65gJrKbrjhBtx3332IiorCJ598ApvNhgMHDsgXGzPC56FWqwetSfjGN76BNWvWiEF6vPa7QqHAf/7nf2LOnDmjqjWRu/HGG3Hfffehv78fTU1NOHLkCPbt2zcmw5+DVfOj1Wrxne98B6+//jp+//vfy4u9JCUl4Uc/+hHS09Px2Wef4fXXX8cf/vCHQUe3TWbFxcXIyMiA3W7H888/j7Nnz0KhUOCRRx7Btddei+bmZvz0pz9lk9ckxfBDYyLQ8EPBN3v2bPT09IxLmPBl2bJlKCoqQnR0NPbt2zemTW0jYTQakZmZiZdeegnPP/+8vJgGERsbK/44cqhRDDwEMycnBz09PcMerUkTC8MPjQmGHyIimqh8hp/U1FSEhYXJZ08599xzDzIzM+WzhxSsDtNTlVD1T0RENBH5HOrur5PiVBMREYHIyMhhT8H6ZeKpKlSOHyIimpx81vxEREQgOTk5JGp/KLj6+/tx+vRpr98SIyIimih81vz09vbi9OnTOH/+/JgOjaWpo7+/H+fPn2fwISKiCc9nzQ8RERHRVOWz5oeIiIhoqmL4ISIiopDC8ENEREQhheGHiIiIQgrDDxEREYUUhh8iIiIKKQw/REREFFIYfoiIiCikMPwQERFRSGH4ISIiopDC8ENEREQhheGHiIiIQgrDDxEREYUUhh8iIiIKKQw/REREFFIYfoiIiCikMPwQERFRSGH4ISIiopDC8ENEREQhheGHiIiIQgrDDxEREYUUhh8iIiIKKQw/REREFFIYfoiIiCikMPwQERFRSGH4ISIiopDC8ENEREQhheGHiIiIQkrY3Llz++UzrVarfBYR0SWn1+vls4iIhs1v+OFJZmLhPpn4uI/GFj9fIgoWNnsRERFRSGH4ISIiopDC8ENEREQhheGHiIiIQgrDDxEREYUUhh8iIiIKKQw/REREFFIYfoawbt06VFVVYevWrbjmmmvkxVOGwWCA1WpFVVUVNBqNvJiIiGjKGJOHHOp0OqxduxZKpRLV1dWwWCzyRcbFggUL8KMf/QjTp0/HkSNH8Mtf/hIul0u+mF9Lly7FD37wA8ycOROtra3YsmULnE6nfLFxMdx9YjQaodVq5bNFra2taG5uxuLFi2G329Hc3Iy8vDz09PTAbDbD4XDIV6EhDHcfGQwG5OXlSea1trZi+/btWL16Na644gr86U9/Ep+4Xlpaivnz5+Po0aN4+umnERMTg82bNyMpKUmyDQCorq5GVlYW0tPT5UUAgIaGBpSUlMhnT2jD/XyJiPyZMDU/Go0GVVVVsFqtAU9ms1m+GYlFixZh5syZiImJgUKhGFbwiY2NxerVqzFz5kwAQFJSEsrLyyV//9e//jWWLl0qX3VCMJlMqKyshNvthtvtRmVlJaqrq4GBC+yWLVtw4cIF+Wo0jiwWC/R6vWQqKirCkSNHEBERgejoaGRmZgIDQV6tViMmJga9vb347LPP5JsjIqIATZjwMxbmz58PpVKJvr4+HD9+XF7sl0KhwPr16zF//nx5kYRSqYRSqZTPJhqSv7BfVVWFzMxMfPjhhwCAOXPmYN68edBoNIiNjcW5c+fw1ltvyTeH6upqlJWVoaenR16EhoYGMVw1NDTIi4mIQk5Qwo/ZbJacwAsLC8VQkJeX53WCt1qt2LVrF3Q6nbgNh8OBgoICrzvhwabBqu1nzJghVvm7XC4cPXpUvohPCoUC9957L5YsWYL+/n7Y7XasXbtW/Jsvv/wy+vr60NvbC6vV6vNCRDQUf8d7QUEBcnNz8dWvfhUAkJCQgCeffBJ33XUXFAoFoqKisH79evbLIiIahaCEn4lo8eLFYl+IU6dO4b333pMv4kWhUKCoqAg5OTlQKBTo7OzEX/7yF5w7dw4AsGzZMtx0000AgH379mHPnj2yLUwMQq2CEEKVSiUKCwvF/iVJSUnYvHkzpk+fLl+VJhC73S4JRkIz5nClp6eLNx3++gAREYWSoISfkpISyUnabrcDANxuN379619LyoR+J3JGo9GrdmioSV575CkzMxPTp0/HxYsXA6r1SU5OxmOPPYabb74ZbrcbFy5cQHx8PB544AHceOONuOqqq2AwGBAREYE//vGPeOaZZ+SbmDCEWgXhs+7q6sKjjz7KPj8TjDDCznMaqh+bP3l5eSgtLUV0dLS8iIiIZIISfjwpFAokJCQAAM6dO4dPPvlEvkjQXLx40WcfhxkzZmDhwoUICwtDd3c3Dh06BIVCgTvuuAO/+tWvcO+998pXwRe/+EXMmTMH77zzDn74wx+iqqoKPT09iI2Nxfr167F582ZERESgoqICzz//vHz1CSktLQ0A0NbWhg8++EBeDJPJBL1eD5PJBIVCIS+mMearw/NgTbmDYZ8fIqLABT38LFy4EImJiQCAM2fOeA0Nj4qKkvxbIFyIh5pWr16Njz76CABw4cIFfPrpp/JNISsrC8nJyQCA5uZm1NfXY8GCBfja176GhIQErFy5EjfeeKNknT179mDdunUwmUw4ffo0ampqUFlZie7ubkRGRiImJgZxcXF48MEHve7WKyoqoFarJdu71LRaLebNm4e+vj4cPHgQfX198kUAjxq3W2+9FQDw+eefj6hphYZvqJofrVYrKfPsS0dERCMX9PCzZMkSxMTEAADef/99nD17VlIeFxcHAOjr6xvRcN2MjAwxXPmr0cjKykJkZCQuXryI9957D319ffjggw/w6quvoq+vD5GRkbjrrrsGDSzJycm47rrr/Ia1iSw2NhZ33HEHYmJi0NDQgJdeekm+iKi5uVn8/97eXuzfvz+g/lE0ev5qfkwmk1iL43a7sXv3brS2toqPLCgoKBjyOUwRERFiny72+SEikgpq+Jk3bx6+9KUvITw8HN3d3Xj33Xfli4gn5IsXL6K7u1tePKRVq1Zh5syZ6O/vx4kTJ7xqNDybvDo7OyWjsfbs2SPWGiUnJ+POO+/0WPNfFAoFVq9ejSeffBJarRYdHR0oLi72ukjpPfo2TURdXV04ceIEfvGLX+DMmTPAwMXWbreLHZ7VarXkAnznnXeiqqpKvikaI776uQm1iDExMQgPD0dfX5+4/4ZDqK0kIiJvQQs/QmhISEhAf38/Dh486BUOZsyYgVmzZgEDw887Ojok5UO58847xSG+bW1tePnll+WLYPHixUhJSQEAfPLJJzhx4oRYdvbsWfz+979HV1cXwsLCoNFokJOTI5avWLEC5eXlWL169aS+cJw5cwYOhwNz587Ftm3bJBdX4anPvh7aaOXPW1wS1dXVXiO5LrvsMiiVSvT09Hh9T/7zP/8Tv/rVr7BgwQJxnrzDc3JyMlQqFfr6+vC73/1ODLjs80NEFKTwo1Ao8PDDD2Pp0qUICwvD6dOnYR14JL+n9PR0xMbGAgDa29u9+gP5k5qaCqPRiNtvvx0RERHo7e3FSy+95HP9L37xi4iMjERvb6/PZ/C8++67ePvtt9Hf34/IyEjceuutiI2NxQ033IDvfOc7mDVrFj7++GOcOnVKvirRuLnyyiuhUChw+vRpr35t4eHhiIqKwrRp0yTzPQnrd3Z24uDBg/JiIqKQNurwIwwRv+666xAeHo62tjY8/fTTXsEkKioKq1atwowZM4Ycfr5gwQJ8+ctfxve//32Ul5fjqaeeglarhUKhQHd3N37729/6fMbOvHnzsGjRImCgZmjatGn47ne/i6KiImzZsgU/+9nPYLFYcPPNNyMsLAwYeILurbfeijfeeAPr1q3D2rVr8fDDD+PkyZPAIDUknrUoE5HNZkN+fr7fprrW1lafzXmB9CehsTVnzhzMnz8fbrcbtbW1krLp06f7fD5TdXW1uA/37NmD8PBw9Pf347333hObehUKhXjcExGFslH/sOnDDz+M5cuXIywsDE6nE7/85S9x7NgxYJAf12xpacETTzzhFZCSkpJQWlqKyy+/XDIfAx2k33//fTz77LNobGyUlM2dOxebNm0SO0IPl68fLfX32n3xtX6wDWefaDQalJSUjPiZL5PxRy8nguHsI/g5xtra2nDq1ClkZWXh0KFD2LJlCy6//HKvHzDt7u7Gf/3Xf+HQoUOS9bVaLR544AGoVCrxewbAa/0TJ07gxz/+sceaE99wP18iIn9GXfPzwgsv4NSpU3jzzTexceNGMfgAEPv3CPr6+nDixAmfNUMYCBFtbW3o7+/HuXPn0N7ejvr6evzhD3/A97//fZSWlnoFHwD4+OOP0dnZKa7X09ODnp4enDx5EidOnMD777+PV155BTU1NaioqMDjjz+ODRs24Pjx42hpaUFtbS26urrkmwUGqSHxrEUhGg3PWptHH30UEREROHbsGLZt24a+vj44nU784x//EPsE9fX1weFwoL6+Xr4p2O12/PGPf8TJkyfF75nT6ZQMLujq6sKBAwck6xERhZJR1/zQ+OA+mfi4j8YWP18iCpZR1/wQERERTSYMP0RERBRSGH6IiIgopDD8EBERUUhh+CEiIqKQwvBDREREIYXhh4iIiEIKww8RERGFFIYfIiIiCikMP0RERBRS/P68BRHRRMOftyCiYPAbfniSmVi4TyY+7qOxxc+XiIKFzV5EREQUUhh+iIiIKKQw/BAREVFIYfghIiKikMLwQ0RERCGF4YeIiIhCCsMPERERhRSGHyIiIgopDD9EREQUUhh+iCYgjUaDqqoqGI1GedG4uNR/n4hoLDH8EF1iEzFoZGdnQ6lU4siRI/Iin8xmMyoqKqBWqwEAOp0Ou3btgtVq9ZoMBoN8dSKicRWU8CM/8fmiVqtRUVEBs9ksLyKiCSYrKwudnZ1wOBzyomGprq6GXq8Xp8rKSuTm5g55viAiGktBCT808fi785bXLvgKrkJQ3bVrF3Q6nWR5mvo0Gg1SUlLQ2NgIp9MpLx4Vm82GJ554AiqVChs2bJAXExGNi6CEn5KSEhQVFQX9REmj53nnXVlZiezsbK8AJLdhwwaoVCo88cQTsNls8mKa4nJzcwEANTU18qKgcDgc2LdvH1JSUqDRaOTFRERjLijhhyYHm82Guro6ZGRk+L3oGI1GpKamYvfu3aNu8qDJR61WIy0tDS0tLZL976uGcDTa29uhVCqRnZ0tLyIiGnNBCT9ms9mrL4+82WXdunWScro0mpub5bNEBoMB2dnZ2LFjB2t8Jgmj0ejVtBnI5K/TsUajQVxcHA4fPiyZf+DAAcTFxeHuu++WzB8pp9MJt9stn01ENC6CEn7kDAYDCgsLUVNTIza5zJgxA0lJSfJFaZzNnj0bLpcLHR0dkvmrVq1CXl4eampqGHzGmVqthlKpHDSYetJoNKioqIBGo4HJZJJ0KA50slgs8s0CAFasWIHOzk7s379fMl+oNdRqtX6DExHRZBH08KNWq7F8+XLY7XbJCbaqqgo9PT2SZWl8GQwGaLVa1NbWSvpnJSUl4ZZbbkF1dbXfiyKNnYSEBGCgKSgQBQUFiIuLC1oTlEDo6Cw/PgQ7d+5Ea2srcnJy/DabBkp47YG+ZyKiYAp6+BGqzeV3sR0dHXC5XJJ5NPby8vLEpo7c3FxUVlZ6BZwzZ87gzJkzWL58edAvqDS0rKwsuN1un4FDzmAwID09fUxq6ISOznV1dfIiYKCpymazQalUoqCgQF48LJmZmXC5XOxXRkSXRNDDDwC43W7e0U0QnqO98vPzfV4we3t7YbFYOPz4EtDpdEhNTUV9ff2QQcBgMCAvL8+rVjUYNBoNMjIyhnwdQvNXamrqiB+DoNPpkJ2d7beGiYhorI1J+KHJ56OPPsLu3buRmprq1XmdxoZGo8GaNWvQ2dmJnTt3yosljEajGHxMJpO8eNT8DW83m81enaW1Wi2USiV0Ot2wawqNRiMKCwtRV1cX9ABHRBSooIcf4U4uMzNTMj8+Ph4qlUoyjyYWm82GmpoapKenD/ksIBodjUaDkpISAMD27dv91oBotVpYrVZkZ2ejsrIy6MHHYDCIgSY6OhqlpaWSoNPW1ubVWVqv16O6uhpJSUlYuXKlfJMSns2uVqsVaWlpKC4uDvr7ICIajqCHH4fDgfr6emRnZ4vV4mq1GuvXr0d0dLR8cZpgLBYL7HY7R/WMsdzcXLhcLmzatGnQZiYAsNvtfpssR8tisXgFG8/JX0gR1hNqb+QPOrXZbMjPz/faHh+GSkQTQdDDDwCYTCbU1dWhsLAQVqsV5eXlOHjwIFpbW+WL0gRkMpnQ0NCAvLw81gCNEZPJNGgQcDgcKCgoGDSAEBHRyITNnTu3Xz7TarVCr9fLZ9MlxH0y8XEfjS1+vkQULGNS80NEREQ0UTH8EBERUUhh+CEiIqKQwvBDREREIYXhh4iIiEIKww8RERGFFIYfIiIiCikMP0RERBRSGH6IiIgopPh9wjMR0UTDJzwTUTD4DT88yUws3CcTH/fR2OLnS0TBwmYvIiIiCikMP0RERBRSGH6IiIgopDD8EBERUUhh+CEiIqKQwvBDREREIYXhh4jGhNFoRFVVFTQajbyIiOiSYvihYTMYDLyo0aB0Oh2ys7Oxb98+OBwOeTER0SXF8BNiNBoNqqqqYDAY5EVBp9PpsGvXLlitVp9TRUUF1Gq1ZB0Gq8lPrVZDp9NBqVQiLy/Pa79brdZxOf6IiPxh+CGfhJAkv2hZrVbk5eUhOjoapaWlXmVWq1UMLzabDfn5+dDr9WhoaIDdboderxenoqIixMfH49lnn4VOp5O/hJAmfP5Go1FeNC5G8/c3bNiA7u5uyb4WpoaGBvT09KCurk6+GhHRuGH4Ib/cbjcqKyu9LmCDTdXV1fLNQKPRICUlBc3NzfIiGmXQGCvZ2dlQKpU4cuSIvGhQZrMZMTEx2LZtm7wIBoMB6enpbAojokuO4WcKGqzWprS0FNHR0X6bI6xWa9Avwmq12mcTSLD/DgVPVlYWOjs7hxVSzGYz0tPT5bOBgWMyJycHDQ0NsFgs8mIionHF8DMFORwOFBQUiM0Mra2tKC4u9qqlESa73S5ZxmQyweFwYN26dbDZbDCbzV4ByddkNpthsVhQUFAguWhmZmaiqalJ/HtlZWXo6elhTdAEJdTUNTY2wul0yot9MpvNAIDi4mIAwNatW8V+W2q1GuvXr4fL5fJZI0RENN4Yfqa4AwcOQKVS+e1ArNFokJGRMeiFrqSkxCswCVNxcTFaW1vR09ODqqoq+ari9g8fPizOEzo5t7e3eyxJE0Vubi4AoKamRl7kk1CDV1JSAqfTiS1btsDlcqGkpAQajQYbNmyASqXC9u3b/R5jRETjieFnirPZbGhpacGKFSvkRcAILnSejEYjysvL0d3d7VXbI8jOzkZ0dDSysrLEeQkJCQDAC+EEpFarkZaWhpaWFsn+NJvNPkfnAYDJZEJJSYn4b6fTiaKiIrS0tKC0tBQpKSkwm80+jw8iokshKOHHbDbDbDbDYDBImkHkw1mNRqOkXH4y9bUdYeSQ57xdu3b5HB3k2TzD4dL/p6qqCikpKV77Q6iVGW4HVGEIe3Z2NiorKyUXPk9CP4+//e1vSElJEY+JrKwsr4srjYz8OxXoJD8WBBqNBnFxcZKaOgzUIMbFxeHuu++WzPdHaDprbW3Fpk2buK+JaEIJSvgBgPT0dGRlZYnNIQ0NDcjJyREDiEajQWJiotivROgbsGHDBr/bKSsrAwaq05cuXSqu29TUBJ1OJwYntVqNiooKxMTEiMvU19eL1e6hzuFwYN++fZL9AQAFBQVwuVzYv3+/ZPlA1dTUwGazyWeLsrOz0dLSgvLychQUFKC6uhp5eXlIT0/3uriGMqFDeKB9oDQaDSoqKqDRaGAymbyaIgOZ/HU6XrFiBTo7O72OCZvNhrq6Omi1Wr/BSaDT6bBx40ZER0cjKSkJ5eXlXuHLOshNDBHRWAta+JH3+Thw4ACUSiWys7OBgQuw0CcAA1XjtbW1SElJkVyQPbfjcDhQX18PpVKJvXv3iuvK+7GsXLkScXFxsNls4jI7d+6Ey+USm3VCncVikQRCs9mMlJQUv/0w5LV4nlNhYaHP0Vvyi5rFYpHUClksFrEDtvziGsqEZsBA+0AVFBQgLi7OZxPUaAi1NbW1tT6PiZ07d6K1tdUrRHsyGo0oLCxEZ2fnoJ3sKysr4Xa75asTEY2LoIUfeTOG0+mE2+3G7NmzJct5VtPn5eVJyuBjO83NzXC73T5PxgJfw3KdTie6u7uRmJgoWTaUmUwm1NfXB9QPw2KxeF2w5Beu6upqrzK9Xo/8/HyfNUIGgwGpqamSkEr/On6HOsYFwrNyhqp1GwnhRsHfAwidTidsNhuUSiUKCgokZUJTKADY7XZJGRHRRBO08DMU4eSYlpYm3hH6eiDeSPmqXvf3zJFQZTAYoNVqAQDR0dHjWium0+mQm5uLuro6yUXbc0h9KNLpdEhNTUV9fb3fICowGAzIy8uD3W7322w1UkL/r6Feh9D8lZqaKjZZGY1GrF27Fjt27IDJZJKvQkQ04Yxb+FmxYgWamppQVFQU0B3ucDU0NHjVQOj1er+dcUOJEDzz8vLE2pri4mKkpaWNS78LnU6HtWvXoqmpiRdHDxqNBmvWrEFnZyd27twpL5YwGo1i8BmLz9DfqD9fz3jSarVQKpVivzuTyeS3to+IaCIat/Dji+fw59E4fPiwV98h+r8mxsLCQtTV1UHv0dFVGI78xBNPYM2aNbAOMgJoNIQ+IE1NTQyiHjQajfh5+Ot3BQBarRZWq1UcWRfs4CP07dJqtT5/r62trc3rhkKotU1KSsLKlSvlmyQimvDGLfy0tbVJAorQdyEY9u/fD5fLhfXr10s6gW7dunXMazUmIs3Az1tkZGSgrKwM+oGnNvvi8HgadFZWFqx+fnZC2KYQptxut9++IQKhKaW6unrI4CPUMOTl5Xn1+5qKcnNz4XK5AhoGbrfbx6xmZbC+XYMdN8J6/prffDVDe05Cp3kiokshbO7cuf3ymVarFXq9Xj7bL+HR9p4XOOHOtr6+HiaTCWq1Gps3b0ZSUhIAoLW1FQcPHsSNN94odrz1tR2DwYCcnBxJ51ydToc1a9Zg9+7d4gVBvn0MNIUNddGdLIa7T2j8cR/9i9FoRFpaGrZs2eK3RsvXd3go/HyJKFiCEn5o7HGfTHzcR2OLny8RBcu4NXsRERERTQQMP0RERBRSGH6IiIgopDD8EBERUUhh+CEiIqKQwvBDREREIYXhh4iIiEIKww8RERGFFIYfIiIiCil+n/BMRDTR8AnPRBQMfsMPTzITC/fJxMd9NLb4+RJRsLDZi4iIiEIKww8RERGFFIYfIiIiCikMP0RERBRSGH6IiIgopDD8EBERUUhh+CEiIqKQwvBDREREIYXhh2gCMBgMqKqqgkajAQAYjUbJv0dCo9GgqqoKBoMBGo0GFRUVAW/PaDSioqICarVaXkRENOkx/BBNAFlZWWhpaYHD4QAAJCYmSv4dDL29vSgpKfEKQEJIslqt4qTVapGUlITy8nJxnhCGdDoddu3aBYPBINkOEdFkwfBDdInpdDqkpqbi8OHDPv8dDA6HAw8++CBaWlqQnZ3tVVZQUAC9Xi9Odrsdra2tKC4uFucVFRVhw4YNKCwsRE1NDSwWi2Q7RESTBcOPjMFgwK5du6DT6eRFXuRNFTSxBLovg9HENBqZmZno7OzE/v37xX8rlUrk5eVJamM8J6EWxletjTCVlpYiOjpasp309HTk5eUNu0nLYDDAOvCDx3q9nsGHiCa1SR9+dDodqqqqhrzAhRqhaUJ+QRQu8sJF02g0+lxPfnE0Go0BBYnJTrjIj1eTjkajQUZGBmpra+F0OsV/2+12lJWVoaenB9XV1ZJaGaEWxul0itvxtUxxcTFaW1t9lgnr+wtP8mavvLw8AEB6erpkufH6nIiIgmnShx8anPzCV1BQ4LcfiUajwZo1a9DU1CS5uAoX5JqaGthsNvlqE5bFYkF+fv6wXrPFYoHdbsfy5cuHVTMyUgUFBYiOjhb/nZubCwCoqanxWGp0Zs+eLZ8l8tXkJUwNDQ2Aj2PIc2INEBFNRgw/BABQq9VYv349XC4Xtm3bJinLzc2Fy+USm2WmupqaGqhUKqxcuVJeFFRC3x7Pf2dnZ2Pfvn1+A+pwOJ1OdHd3IzExUZwXSE0pm7iIaKoLWviRV58LTSRqtRoVFRUwGo0wm82wWq0wm83iesI8zyYZT57lvtYtLCxEdHQ0CgsLvarhh9q2r2VmzZolX2RIcXFxqKioELfj2WRkNpu9mpAwAfsLbdiwAQCwZcsWSXOKWq1GWlqa2CwDP8OgPfezQN70Jn+/8nLPdQc7boxGo99jwpOvz1jYrue+mj59umQ9h8OB+vp6ZGVlSeYHkzBq6ujRo2htbQUArFixAnV1dV5hw1ffH3lzk3wZ4X23tbUhJiZG3FcrVqxAS0uLz9owYX/4a+LynOTNpUREk0lQwo9Op8PGjRtRX18vVoe/+OKLkmWuuuoqtLW1Qa/Xo6SkRLwIxcTEiCNK6uvrJUNxdTodent7xW2WlZUhJSVFPPGWlJSgsrISPT09qKysFO9SA9m2r2V2796NZcuWSV73UJRKJQwGA2w2G/QD/SwAYPPmzVCr1Th8+DDi4uK8Qo58aPOlZDabkZKSgu3bt0uCDwZCbUREBOrq6iTzhyI0odXU1Ij77/jx42K5wWAQRw0J+zYjI8Proio/bgwGAzIyMlBWViau19XVJVnHH41Gg61bt6K7u1t8TbW1tVi8eLF8URw5cgTx8fFe+y1YhFqlP/3pT+K8kpISmEwmj6X+xVezk2dAcrvd4vGv1+tRXV0tlh05cgQqlQoajQY6nQ4pKSk4cOCAWA6Pmp7CwkIAkGxLPgn9iIiIJrNRhx/hDrapqUly4n7hhRckd5e9vb3YuXOn+O+VK1ciLi4ONptNvODu3LkTLpdL7Pdgs9mwadMmcR3hjjwtLc2rJsVTINteuXIlVCqV5IJvs9mGfZFXKpV47bXXxPfqdDphs9kQFxeHlStXoq6uDm63G5mZmeI6/i5CY0FeIyCvJdFqtUhJSYHZbPYZxBISEtDb24uOjg550aCE4dSen2dZWRkcDgfUajWWL1+OhoYG8SLucDiwb98+ZGRkSAKH/LiRh0aHw4GysjKxfDBC851ns57FYhH7tngSjonBjrPRsFgsKCoqGvbnKqdWq6FUKuWzRcL7mDNnDnQ6nVetj8FgQE5ODsrKylBZWQm32+2xNhHR1DTq8BMfHw+VSjXkM0m6u7sltQpZWVno7OyUXHB99VGArGlKq9VKynwJZNtZWVlwuVxeF5/m5mbJv4fidrvR3t4umedwONDZ2YnZs2f7DGyZmZlwuVw+w0awyWsNSkpKJOUnT56EUqkUQ6HcYJ1lByOEnvXr13sFCI1Gg7i4OK9jRvgcPZeXHzeHDx9Genq6Vw3RUNQDzXfy7QFAW1ub5N8A0NHRgd7eXiQkJMiLxp08wFo9mr2E1yd/TwLh+LvlllsAwKs/l8VikXSCVyqVYhOyr6m8vBxJSUmSbRARTTajDj/ChUoeAOR8XWDkT5C1DjyHRCDveKkfePhaIIbaNnxcWEfC7XYPuQ3PpgfhItzY2DjkeuPh1KlTqKmpgVar9epHIhjJ5+RwOGA2m6FSqVBeXu7V9wY+LuqFhYVetRjy48ZisaC6uhparRZWHzVZQ5FvbzKQB1i9R7PX7NmzvUK8fJ4Q6D2H0z/77LM+Oz3Lm9DkE5u9iGgqGHX4GY2Ghgavk6veo0/Q8uXLYbfbvWorAjHYtseaUBsmXHQcDgdcLhcyMzOh0WigUqlw5MgR+WqXjGVgeHdeXp7PAOTZYXY4HAPDqIuLi+FyubBx40bxguvvIhvI0HSLxQK9Xo/KykqkpqZ6db4OFb6CtLyGy2AwIDc3F4cOHUJOTo5XACUiCkWjDj+eF/bhOHz4MFJSUoZ1MhZO7EMJZNttbW0+lxluM090dLTXzwVkZ2dDqVSKtWFOpxONjY1IS0vD0qVLvfpdTAQmkwkNDQ3Izc2V1Aj4agZsbm6GSqVCfHy8OE8IfL44nU5s374dbrcbCQkJIz5m5Gw2mzgs3fO1+CI0e/rqLyZvZsXA+4mIiBiyRvNSEvqt1dTUiCO1ysvLoVKpxAdY5ubmYseOHXj88cfR0tKCgoIC8f37qs1jsxcRhYJRhx+n04na2lqvZpPVq1f7rFYX7N+/Hy6Xy6tPyNatW6HT6XxerO6++26vE69wAvfsmzHUtuHxELmCggKx3GAwBNSnSM7zjlqj0SAnJwdNTU2SgCM0fS1YsMCrr8tEsW3bNnR2dmLNmjXi+2lvb0dERIQkXAj9eTz7Cckf1mcwGCTHg2cg9HfM6HQ6bN26Vfy3L6WlpZLA6tl3a6inUB84cABxcXG4++67xXlGo9GrORQezbm+AsJEkZWVJT4TyGazIT8/H/qBB1lmZ2cjLS0NjzzyiHgcCrWehYWF6Ojo8NnnzF+NnDCx2YuIpoJRhx8MNENUVlYiNzdXvEP8xje+MeiFw+l0YsuWLQAg6ZsTEREhnqyrqqrEPiNWqxWJiYlefX6EDp1C/xGDwRDQtoU+KSkpKWL58uXLsXfvXsn2h9LT04N9+/Zh48aNsA78npIwrN6TzWZDS0sLIBsBNZEINTQAxCYqp9MJpVIpqd1yDIzMEvrdWK1WHD9+3Oui6NmnR6iBED5/oe+O5zJr167Fm2++KdmG3MyZM1FaWiquExMT4/VsIn9sNht27NiB7OxscX1fxxQGOqX7CwjB5HQ6UVRU5PVsH3g0G/oqw0CY8VcmjCaTfy4lJSV+m39tNhsKCgoGrZUUXq+vIflERJNF2Ny5c/vlM61WK/R6vXw2jZLQOdfXhWcol3KfGI1GJCYmjuh1T0ZqtRqbN29GbW2t33Dhy6XcR6GAny8RBUtQan6mKs8h9vLJV8fgwYzns32CraamBvHx8X6bk6YaoVksVH7Og4go1DD8DEJoIvA1DadGAEP8rMBE53A4cOzYMaxdu3bKByCDwYDs7GzYPB6QSUREUwvDzxgTfocqJibG6wFzk4nJZApoGPpkZxnBL8ETEdHkwvAzxkwmE/R6vc/Op0RERDT+GH6IiIgopDD8EBERUUhh+CEiIqKQwvBDREREIYXhh4iIiEKK3yc8ExFNNHzCMxEFg9/ww5PMxMJ9MvFxH40tfr5EFCxs9iIiIqKQwvBDREREIYXhh4iIiEIKww8RERGFFIYfIiIiCikMP0RERBRSGH6IiIgopDD80KgYjUZUVFRArVbLi4gkzGYzzGazfDYR0bjjQw4niZHsE4PBgLy8PPlsv1pbW7FlyxY4nU6o1Wps3rwZSUlJYnlDQwNKSkok6xiNRqSlpYnrhbKR7COBwWBATk4OzGYzHA4HjEYjMjIyxH+PhEajQUlJCfbt24e6ujqsX78e27dv97k9s9mM9PR0+Wy/7HY7TCYT4PF3oqOjfZYLhOAjP4YCNZrPl4jIE2t+prienh6UlZVBr9cPOtntdvmqwMBFTK/Xo6GhAQCg0+mwa9cuWK1WWK1WaLVaJCUloby8XJzHu/vhy8rKQktLixhMEhMTJf8Oht7eXpSUlECj0ciLgIFwKz8u5FNxcTFaW1vlqwIAqqurJeUGg0E8JqxWK9LT05Geni6ZZzQa5ZshIhpzDD80LDabDfn5+ZLQ1NraiuLiYnHeSO/sQ5VOp0NqaioOHz7s89/B4HA48OCDD6KlpQXZ2dny4jFhsVgkwamhocErYMlrh4iIxgPDj4zBYMCuXbug0+nkRURjIjMzE52dndi/f7/4b6VSiby8PEktieck9LPSaDSoqqryKrdarSgtLUV0dLRkO+np6cjLy2M/LSIKaZM+/Oh0OlRVVU3YsGIwGFBVVeW3qWEyiYiIQEVFheQC66vZy2q1wmAwyFcnHzQaDTIyMlBbWwun0yn+2263o6ysDD09PaiurvZqfioqKpL0sfK1jNAE5atMvn6wzZw50yuU+Wr24o0GEV0Kkz780Pjp7e1FUVGR14VUr9ejsrISPT09qKyshF6vh8Vika9OPhQUFEg6Cufm5gIAampqPJYandmzZ8tnjbmuri4UFBR4HSd6vR7V1dViX7T8/HzYbDb56kREY4rhZ4qLjo5GaWmp5G7b16TVauWrAgC0Wq14107BJfTt8fx3dnY29u3bF5SOzk6nE93d3UhMTBTnDVZTKq+V8TWVl5dLRgB6ysvLG7SciGiiCFr4kfc9EKqz1Wo1KioqYDQaYTabYZWNBhLmWa1Wn81DnuW+1i0sLER0dDQKCwthlTW3DLVtX8vMmjVLvsig/L0+4X3n5eWJAeRSVPEHe7QXBYdarYZOp8PRo0fF0VErVqxAXV2dV62Zr74/8mZF+TLC8d7W1oaYmBixf8+KFSvQ0tLis7ZF3hnZ1zSc0V5ERBNVUMKPTqfDxo0bUV9fL54kX3zxRckyV111Fdra2qAfGA0khIOYmBhxpFB9fb1kKK5Op0Nvb6+4zbKyMqSkpIjDY0tKSnw2twSybV/L7N69G8uWLZO87sEM9vqcTieKioqmXBW/0Wj0uhBbrVZJCGVn2qGtXLkSAPCnP/1JnFdSUuJz9JOvPjueAcntdovHv36gWUlw5MgRqFQqaDQa6HQ6pKSk4MCBA2L5WJLfGAiT5w0BH4tARJfCqMOPcAfb1NQkOXG/8MILkgt9b28vdu7cKf575cqViIuLg81mEzte7ty5Ey6XS+z3YLPZsGnTJnEdh8OB+vp6pKWlDXpxDWTbK1euhEqlwvbt28VlbDYb6urqJNsazEhf32RmMpm8LsR6WZ+fse5MOxVYLBYUFRWho6NDXjQsarUaSqVSPlsk7Ic5c+ZAp9P5rfUZCyUlJV7HiRDOhBsCPhaBiC6FUYef+Ph4qFSqIZ9J0t3dLbkgZmVlobOzU9K3wVcfBcjuIP31TfEUyLazsrLgcrm8Lj7Nzc2SfwdiuK9vMvNsxqTxIW/Ssno0eyUkJAAeIUdOCOS33HILAGDbtm3yRcaM0BQub6IjIrrURh1+hBqO9vZ2eZFEW1ubfJbPIdKeHWuFJ8QCEO8a/fVNkRtq2/ARyIZrNK9vsnI6naitrYVWq2UAGieDNXvNnj3bK8TL5wmB3nM4/bPPPjvm/c+E4JWXl8cAREQTyqjDz2j462Ap9Alavnw57Hb7iKrGB9t2MIz29U0WvkZ7WSwWVFdXIyMjw2cnchofarUaaWlpaGxsFEO8ME8I9gaDAbm5uTh06BBycnLGdH/5Gu1lMplgt9uxfPnyKdsUTESTz6jDj8PhgMvlQmZmprxoUIcPH0ZKSsqwTsbCiX0ogWy7ra3N5zKjeSZKoK9vPI12qLsw2kseHC0WCwoKCoIyJJtGRui3VlNTA93Ab66Vl5dDpVKhqqoKRqMRubm52LFjBx5//HG0tLSgoKBADCHyWs/RDnX3rKHy7P9nMpnYD4yIJpRRhx/PZhDPqu3Vq1cPWq2+f/9+uFwurF+/XnJHuHXrVuh0OrGPjmfn4bvvvtvrxCucUIW+Dwhg2/B4iFxBQYFYbjAY/IYAuUBfn9AceKnuekc61N05MFrN1+gjT8Lor8LCQrhcLoahcZSVlSU+E8jzN9cKCgqQnZ2NtLQ0PPLII2IHZyG8FhYWoqOjw2tf+ast9Zx8DWV3OBwoKCjwGqIvJ/SNy8vLC/qPthIRDUfY3Llz++UzrVYr9Hq9fPagdDod1q5dK4486enpgdlsRkdHBzZv3ozGxkavC6larcbmzZslgaGhoUE8SWs0GpSUlIhPwG1oaEBbWxvS0tKwZcsWMfgYjUYxtFRXV4vD3QfbNnxsv7W1FQcPHsTNN9+MHTt2DDkqRr6+v9dnNpuRnp4Ot9sd0HZ9Gck+ofHFfTS2+PkSUbAELfzQ2OI+mfi4j8YWP18iCpZRN3tNZf4e0mb18YRdIiIimhxY8zNJcJ9MfNxHY4ufLxEFC2t+iIiIKKQw/BAREVFIYfghIiKikMLwQ0RERCGF4YeIiIhCCsMPERERhRSGHyIiIgopfp/zQ0Q00fA5P0QUDD7DDxEREdFUxWYvIiIiCikMP0RERBRSGH6IiIgopDD8EBERUUhh+CEiIqKQwvBDREREIYXhh4iIiEIKww8RERGFFIYfIiIiCik+n/DMn7cgIiKiqYo1P0RERBRSfNb8EBEREU1VrPkhIiKikMLwQ0RERCGF4YeIiIhCCsMPERERhRSGHyIiIgopDD9EREQUUhh+iIiIKKQw/BAREVFIYfghIiKikMLwQ0RERCGF4YeIiIhCCsMPERERhRSGHyIiIgopDD9EREQUUhh+iIiIKKQw/BAREVFIYfghIiKikMLwQ0RERCGF4YeIiIhCCsMPERERhRSGHyIiIgopDD9EREQUUhh+iIiIKKQw/BAREVFIYfghIiKikMLwQ0RERCGF4YeIiIhCCsMPERERhZSwuXPn9stnAkBERARiY2Mxffp0hIWFyYtpguvv78eFCxdw5swZ9Pb2youJiIhCliIuLu4x+cyIiAgkJydDqVQy+ExSYWFhmDZtGlQqFc6fP4++vj75IuTHt7/9baxfvx4nT55EeHg4Nm3ahBUrVuD1119Hf7/PewUiIppEfDZ7xcbGMvRMEWFhYYiNjZXPpkGo1WrMnj0by5cvR3NzM7q6unDllVciNzdXvijRpKNQKHD11VdDo9FgwYIF8mKikOCz5ic+Pp7hZwpRKBTo6uqSzyY/wsPDsWTJEsyYMQPvvPMOPvvsMyxduhSXXXYZ3nzzzUnXjDhv3jxs3boVhYWFWLhwIRwOBy5cuCBfjEJEf38/cnNzsW7dOtx8883o7e3FsWPH5IsRTWk+a34YfKYW7s/hOXToEFpaWpCYmIjs7GzY7XYcP34c06ZNw9y5c+WLT2gKhQJr165FcnIyPvzwQ/z85z/HmTNn5IuN2DXXXINnnnkGzz33HHQ6nbz4ktLpdNi1axcqKiqgVqvlxSGtqqoK+/fvx7Rp07Bq1SrMmzdPvgjRlOYz/BCFsrNnz+KDDz6AUqnENddcAwD493//dzz44IM4cuSIfPFBqdVqVFRUYNeuXZckHNx2223IyMjAmTNnUFVVFdTgAwBXXHEFVCoVlEolPvvsM3kxjcLs2bNRXl6OX/3qV/jud7+L1NRU+SKDyszMxH//93/ju9/9rrwIALB79240NjYiKSkJeXl58mKiKc3naC/eJU09TqdTPsuL2WxGenq6fPaIVVdXw2KxyGePuWC9D7fbjR07dsBms8mLJHQ6HdauXQu32w2z2QyHwyGWqdVqbN68GXFxcQFtK5iSk5Px6KOP4rLLLkNNTQ2effZZ+SKjVlRUhK9+9as4ffo0ysrK0NzcLF/kkhH2S2dnJ7Zs2RLQd2CiiY2NxW233YYbb7wRsbGx+OSTT2Cz2XDgwAH5ooiKisKGDRswZ84c/OxnP0N7ezsee+wxxMbG4qmnnvIZ3G+88UasX78en3/+Of77v/8bdrtdvgjRlMTwEyIm44n/UtFoNCgpKYFSqQwosEzU8HPbbbfhzjvvRGtrK8rKynD69Gn5IqMyY8YMPP7445g7dy4OHTqExx9/XL7IJRVo+FmwYAHmzJmDK6+8EldccQXi4uIQHx+PiIgItLe342c/+9mE6BOj1WqRl5eHK6+8El1dXbDZbHjppZckIznvuusu3HbbbXjzzTdRXl4uHgMHDx6EyWSSbA8DzaKbN2+GRqPBG2+8gaeeekq+CNGUxGYvIpmEhAQoFAp8/vnnE6omYzgUCgWuu+46KBQKHD58OOjBBwCysrKQnJyMvr4+n7UKE0VYWBjmzJmDr371qygqKsKWLVuwfft27NixA7///e/x2GOP4e6778b8+fPR2tqKv//977Db7QgLC8PHH388IYIPANjtdjz66KMoKSnBsWPHcOedd6KiogK33HILFAoFAGDfvn1oaWmBRqPB4sWL8de//hWNjY1QKBSYMWOGfJPo6+tDbW0tent7sWjRIvb9oZDB8EMkM2vWLEybNg1utxvnzp2TF08KGo0GqampOHv2LGpra+XFPikUCjz66KP42c9+huuvv15e7CUrKwuRkZHo7OzEwYMH5cUBmTFjBn74wx9i+/btWLx4sbw4YFFRUcjMzMTq1avxwAMP4D/+4z9wxx13YNq0aYiPj8cDDzyAb33rW7j88svxySef4MUXX8SWLVuQn5+PtWvX4r777sPGjRvxi1/8Ah9++CGys7Nx9uzZca2pC1RTUxPMZjM2bNiADz/8EN/+9rexbNkyAMDp06fx1ltvobe3F7NmzcLZs2fx4x//GFu2bMHZs2flmwIA1NXVoa2tDTNnzhT7uBFNdQw/RDJJSUlQKBTo7u5Ga2urvHhSSE9PR2RkJDo6OlBfXy8v9unmm2/GwoULccUVV+CHP/whnnzySWi1WvliwEB/oqysLISFheH999/HRx99JF9EIioqCvfffz9+85vf4MYbbxTnnz17FmFhYUhOTkZOTo5kHU86nQ7PP/88ysvLMXv2bHkxNm/eDKPRiJtvvhlJSUk4fvw4Dh06JNbe3H333Vi/fj1KS0vx9NNP45VXXsHRo0e9Hv4ZGxuL1atXQ6VS4fXXX5/QNVqnT5+GyWTCv/3bv+GNN94Q5+/cuRP3338/XnvtNcny/rS2tuLkyZNQKpWYP3++vJhoSmL4IZIR+ry1tbVN2vCTmpoKhUKBTz/91OsC78++ffvw0EMPwW63o7+/H/PmzcMjjzyCLVu2IC0tTbLsLbfcgpSUFJw7dw5vvfWWpMyXc+fOITw8HHFxcVi5cqXYTAMAf/vb39Dd3Y2srCy/tT+zZs2CUqn02xT5//7f/8PatWvFgPOb3/wG7e3t8sWGdMcddyA9PR0NDQ344x//KC8eF/feey8sFgt+8pOfYNmyZZLPaqx8/PHHuHjxIi6//HJ5EdGUNGSH59mzZ2P9+vU4d+4cXnrpJdxxxx2YNWsWzpw5g+effx4JCQm49dZbERUVhebmZuzYscOrY+GcOXNw66234qqrrkJkZCQuXrwIl8uFuro6/OlPf/L7wLU5c+ZAr9fjiiuuEH9j7OLFi+jt7cXx48fx9NNPy1cBACxfvhxf/epXxRMmBtq2z507h1deeQV//etf5atg8eLFWLZsGdLT06FSqRAeHo6LFy/izJkzeOedd7Bnzx5cvHhRvhoSEhLwzW9+E1dffTUiIyN9PlPn888/x//+7//i1VdfFeeFh4fj5ptvxo033oiEhASEh4fD7Xbj1KlT+POf/4zDhw9LtiEQ/t7ChQsRFRWF8PBw9Pf3o7e3FydPnsRzzz2Hjo4O+Wpe+4R8EzooJyYmwmaz4bnnnpMv4mUidnjesmULFi1aNOIRdxqNBnfeeSfmz5+P8PBw9Pb24rXXXoPFYkFiYiI2b96MpKQk2O12nx1pfcnMzMRDDz2EiIgI/PKXv8Sbb74plj366KPQaDR45ZVXfH6vN2zYgJtuuglvvfUWnnzySXmxTwaDAXl5eWhoaEBJSYm82Ms3vvEN3HXXXTh//jz++7//G++++658kXGRmpqKr3/96/jiF7+IWbNmweVy4c0338SuXbuC/qgCwde//nXcc889+OyzzybcqD2isRBwzY9KpcLtt9+O2NhYfP7554iLi8OKFSuQm5uLiIgI9Pf34/LLL/fqK5CdnY0f/OAHWLx4Mfr6+vDJJ5+gtbUVKpUKX/rSl/Dggw/67IiXnZ2NBx54AFdddRUiIiJw4cIFnD9/Hp9//jkiIyMxa9Ys+SrAwO8y3XnnnUhOTgYAnD9/HufPnwcAxMTEYObMmbI1/hXw7rjjDixevBgqlQq9vb04f/48+vv7MWvWLOTk5OC73/0uwsOlH5darcYPfvADLFmyBEqlEs3NzTh16hQ+//xzAMDFixfR0tKCTz75RPIMlPDwcNx777345je/iYSEBLS2tuKTTz5Bb28v5s6di3Xr1mHlypUef+lf1Go1HnzwQSxZsgRRUVHi6+zt7UVERATi4uIwffp0+WpDEh4GZ7Vagz5NtgfMLVq0CLGxsbhw4QKOHz8uLx7U559/DrfbLZ99SUyfPh1ut3tEtR8A4HA4YDQasX37drS3t0OpVOKrX/0qfv7zn6OwsBCJiYk4c+bMsMLckSNHcOTIEURFReGmm26SlL311ltwu91iJ2pPCoUCqampuHjxIpqamiRlwaLT6ZCfnw8AePHFFy9Z8MFAn57f/OY3+Ld/+zds3rwZR48exZe+9CVUVFSgpKRkWM/7USgUMBqN2LZtG2644QZ5sai5uRlut1v8TUCiqS7gmp/4+Hi43W7s2bMH/f39+OY3vyn+cviuXbtwzTXX4Prrr8dHH30kDpecPXs27r//fiQmJuLjjz9GRUWF2Onu2muvxR133AGVSoV3331XcocdHh6O4uJizJs3D5988gmeeeYZyUl8+vTpSEhIwKlTp8R5ALBw4UKsW7cOUVFReOONN/D73/9eUlsTHx8PAF41I8nJydDpdPjggw/wzjvviDVRCQkJuOuuu7Bw4UKcP38eO3fulHTsLCwsxNKlS9HV1YWdO3eKfSvS09Nxzz33ICEhQfJ5CL71rW9hxYoV6Ovrw549e7B//35g4H3dc889yMzMRHd3NyorKyUjTYS/197ejueeew4NDQ1iWXh4OC677DJ8+umnPmuoglXzM9xh4HLBegaPYDg1D4F49NFHkZ2djY8//hg/+clP/HYS9aTX67FmzRp0dHR4Dam+VDU/ZrMZqampQfmbCoUCer0et956K2JiYoCBYD+SZwddf/31+N73voeenh6YTCaxr9CMGTPw05/+FLNnz8bzzz+PP/3pT+I611xzDR555BEoFAqUl5fjn//8p8cW/Qu05ic3Nxd33XUXpk+fjr/85S945pln5IuIhG0GS2trq9cx44vwvJ+bbroJ0dHRsNvt2LFjx5Cj+ITarLCwMPzud79DdXW1fBHA43vtcrkCej1Ek13ANT8A8OGHH0oerjVt2jQcPHgQdXV14qiYiIgIsVyr1SIhIQEulwvV1dWSC8k777wjBol58+ZJOjEmJiaKP8bZ2trqdfd64cIFr+CDgRATERGBvr4+OJ1OrxDQ0dHhFXww0HHw2WefxRtvvCFpgmtvb8f+/ftx/vx5TJs2DXFxcWKZEDYA4IMPPpB0Km1oaMAHH3wAAIiLi5O8t4SEBGRlZSE8PByHDh0Sgw8G3tfLL7+MM2fOICYmBpmZmWIZBjriAsCZM2fw8ccfS8ouXryIU6dOeb1nCtzixYsxb948XLx4Ef/85z8DCj4YuDApFAr09/eLtX4j8dBDD8FoNHrVfFxqfX19eOGFF/DUU0+JzS7h4eH48pe/POynVgvD7mfNmiWpJT579iyOHj0KhUKBrKwsyTpLlixBTEwMmpqaJE2KwXD77bdj7dq1mD59Ovbt2xdQM+elcObMGVgsFtx3332wWq1YtGiRWFPlT2ZmJm6//XYolUrU1dXhpZdeki9CFLICDj/nz5/Hm2++Kbm4dnV1DdrZccGCBQgLC0NLS4sYBjwJTUTR0dGSgHD69GnxjiY7Oxvf+973AqotaGxshMvlglKpxDe/+U3o9XqfTWrD0dHRgZ6eHvlsREVFBdQRsb+/X9Lh9Morr0RsbCx6e3tx9OhRybIYqKHp6uoSn03i6eOPP0Z/fz/S0tLw0EMP+e0cOpZG+wyckpIS6PX6oE3BqvVRKBRYtWoVZs6ciU8//RR79+6VL+KXUFPa1dU1os8EAHJycrB06dJBO/0Ox4ULF6BUKpGQkCAvGpHY2FjcddddiI2NRWdnpxjQDQYD/t//+38BB7azZ8+Ko7CuueYayXfoyJEjaGtrw5kzZ8Tv7YwZM7BkyRL09/ejrq4u4M7bgXI4HGhubsbevXvxzDPPDLl9i8XidQyOZioqKhpWLUtfXx/+8Ic/4L777sPPf/5zebFo3rx5KCoqQmxsLD788ENs37590PemVquhVCrhdrvFbgJEU1nA4QcDIzY89fX1DfoL10ItUGJiIh555BGv6cYbbxTbmIWaHsEf/vAHOJ1OhIeH45prrsFDDz2EJ598EkVFRbj66qslywqcTidsNhtcLhdUKhVuvvlmbNmyBT/96U/x7W9/e8gLwcKFC7F69Wo89NBD4mv8zne+I1b1e3K5XDh58iQAYP78+ZJwlp6ejoULFwKyIIeB0BQeHi52eJZ/Jo888ohYw6RSqcT1AODll1/Ge++9BwBIS0vDfffdh//6r//CD3/4Q1x77bWSZcdKSkoKlEolzp07N2adLy+FVatWQaPRoLe3F3v37h2yOUGgVqvF4O7ZDDkc8+bNg16vR2RkJD744ANJx/iR6uzsBAZqQ0dLoVBg/fr1mD9/Ps6cOYNf//rXMBqNYs3tF77wBTz++ON+h8XLHTp0SKyF9axNfeONN1BUVISf//znYq3bLbfcgjlz5qClpcXnTzqM1kcffYSSkhL85je/GTQcTCbz5s3Dgw8+iNmzZ8PpdOLpp58e8rsqPNuqp6dn0o5wJBqOYYWfkZo5cybmzp3rNc2ZM8dv57qWlhb8x3/8BywWC44dO4YLFy6IDzJbv3491q9f77NW56233kJpaSn+/Oc/49SpU2Kn5S9/+cvYvHkzVq1aJV8FKSkp+PGPf4wf/OAHuOmmmzBv3jzxNarVaklTnqe3334bLpcL8fHx2LBhAzZt2oRNmzZhw4YNSEhIQHt7u9829mnTpmHOnDlen8ncuXN9dsrGwF3z9u3bsX37dhw6dAjd3d2IiIjA/PnzYTAY8OMf/xgpKSny1YJqwYIFCA8PR2tr64gv9hPNjTfeCL1eD6VSCYfDgZdfflm+iF9Lly7FrFmzcO7cORw6dEhePKTY2Fjcf//9SE5OxunTp7Fjx46gXISbmppw8eJFXHbZZQHVUPqjUCiwYcMGLFmyBN3d3fjVr36Ft956C6dPn8a///u/4/e//z3Onz+P5ORkFBcXY/Xq1fJNePnnP/+J++67D2az2atJ29O8efOQk5OD/v5+vPLKKwEH0lC2bNkybNy4Eampqfjoo49gNpuHfAYTBkbWhoWF+exOQDQVKeLi4h6Tz/SshZkxYwa0Wi2USiUOHjyItrY2pKenY9GiRbhw4QLeeecddHd34+qrr8a8efPQ1dWFv//978BA58bY2FjU19ejrKwML7/8ss/pz3/+MxobGz1ewf85deoU/vGPf2Dv3r1oampCQkICYmNjkZycjM8//9zno+f7+vpw7Ngx/O1vf8Orr76KCxcu4LLLLoNKpcLs2bPR2Ngo6ftzzz33YP78+Th37hz27t2LyspK/OlPf8LLL7+MgwcPIjMzE9OnT8cHH3wgeZ233XYb5syZg9OnTyM8PBzx8fGYMWMGent7cfjwYfz2t7/Fp59+Ki6PgZqCq6++Gm63G7/+9a9hsVi8Pg9hEj5Huba2Nrz77rvYt28f3n//fcTFxSEhIQFxcXGIjo722S+iq6tLPmvYtFotvv71r0OhUOD1118f0cV+otHpdDAYDFCpVHjnnXfw5JNPBhw+YmNjcc8992DWrFk4ceIEduzYgf5+6fiB2NhY3HTTTYiMjMShQ4ckx2tsbCw2btyIBQsWwOVy4Xe/+13AnXmHEhERgWuvvRaRkZH48MMP0dLSIl9kSFFRUXjooYdw3XXXobu7G08//bRXM3d9fT0+/PBDXH311YiNjRUHB/j6Xg6HQqHAfffdhwULFuDgwYN47rnnvD7boSxevBgLFy7EmTNn8Ne//nXY608mwud15513IioqCv/4xz/wn//5nz77OMolJyfjG9/4BiIjI/Haa6+Net8RTQZjWvMjDEudPXu2z6eyDtehQ4ewfft2nD59GmFhYQE9kOvChQvYu3cvrFYrzp8/j8jISK/RbEJtSV1dHWpqaiQdXSMiIryGuGOgBmT+/Pno7e3Fiy++CKPRiAceeAAPPPAAHnnkETz77LM+72o/+eQT9PT0YPr06X6b74ajoaEBv/zlL3HixAlg4P2MhdjYWNxxxx2IiYlBQ0PDpO88mZycDKPRiO985zuYPn06Xn311WEFHwBYs2YNUlNT0d3dDZvNNqx1NRoN/v3f/x1XXnklzp07h127dkk6v4+Ww+FAU1OT2GdmuFJTU1FWVoZrr70WJ0+ehMlk8go+AofDgS1btuDEiRPYu3fvqEeXRUVF4ZFHHsHSpUvx/vvvD9lfxZ+TJ0+it7cXMTExwxoePtlcf/31eOqpp/DVr34VZ8+eRUVFBcxms1c3BX+uu+46JCYmoq2tDW+//ba8mGhK8r6qB5HD4YDL5cKsWbNgMBi8Oi3Hx8eLHf88JSQk4IYbbhCHpnu6+uqrMXPmTPT396OtrU1StmjRIixdutTrWTfh4eG46qqrxGefeFaf9/X1iXeEycnJYlPa9OnT8Y1vfAPf+973JP0SBEqlEtOmTcO0adOwaNEinwHJl48//lisPbr++uvxzW9+U/J6w8PDkZ2djX/7t3+TfF4qlQo33HCDz3CTnp4ujgQL5E5vuNLS0vDoo49i/vz5aG5uDqgPwUQVFRWFu+66S/zphjNnzqCiogL/8z//M6wL7O23346bb74Z/f39eP311/0GA7moqCgUFRXBaDTi8ssvR0dHB/7nf/4HNTU18kVHpW/gx0YvXryIa6+9dlh9f2655Rb89Kc/xdy5c2G32/GTn/xkyNqApqYm/PjHPx720Hc5rVYLk8mEJUuW4B//+Ae2bt064mPt3XffRUtLC+Li4satT9x4USgUWLlypdjnLyEhAfv27cODDz44rBCtUChw/fXXY9q0aThx4gSbFilkBPycn+joaDzzzDM4evQobr75Znzzm99EV1cXtm/fjubmZtx+++34yle+gqamJskIHJ1Oh6985Svik5Z7e3tx8eJFhIWFISIiAmFhYairq8NvfvMbcZ2rr74a9957LyIjI9HX1yc+OC48PFzsf3Pq1ClUVlZKRtcIrwEefwcDQUWhUIhDmOXDWe+55x4sXboUYWFhcLvd6OvrE9cR/j1t2jTJU5pVKhXWr18veey/52v9/PPPcfr0adTW1uIf//iHZJRcSkoK1q1bJ47mujjw1Gp4vNaenh4888wz4ig5z+cteS7v+Tl2dnZi586dfkeRDVdUVBTy8/OxYsUKREdH49ixY9i+ffuYPWhuLKWmpuKb3/wmrrvuOsTExKCnpwevv/46duzYEfAdMgYuFgUFBfj617+OadOmDdlUJjznJz4+HsePH0dqaipiYmJw8eLFMf88k5OT8eijjyIlJQV/+tOf8Lvf/U6+iITQif7KK69EZ2cnnn/++WFdSEdDq9UiLy9PbKYK1t9etmwZioqKoFAo8Oqrr+KVV14Z0XdhIlAoFNBqtVixYgWuvvpqxMTEoLu7e1RPf87JyUFhYSEuXLiAp556akL/lhlRMI15+MFAmPna176G1NRU8Wcq3G43Wltb8c477+C1116TPF/niiuuwLe//W1cdtllmD59ulir0tfXhzNnzuDgwYN4+eWXvX4W46abbsJXvvIVxMTEiIEAA0FIGC3yj3/8Q7IOBmp5brvtNnzhC1+ASqVCWFgYLly4gI8//hh79uzBmjVrcNlll3n9RMWqVavEYCeEEXkz2cWLF+FwOLwenDZ9+nSsWrUKX/jCF8TnxFwc+NmPjz76CPv27ZN0KI6Pj8eaNWswd+5cyTB7YZ0jR47gz3/+s8+mNgwj/ERFRWHJkiW46aabkJGRgenTp6OlpQUvvvhiUC5G42XBggW4+uqrkZGRgfnz5yMuLg79/f04efIkXn/9dfz5z38eVugRFBcX44YbbkB/fz/eeustbNu2zW/wgUf4EWrmMND/qqamBlarddB1g0Gv12P16tXo6uqC2Wz2+cgJz+Bx9uxZ1NTU4I9//OOYvja1Wo3s7GwsWbJE/EmZzz77DPv27cOePXtGtG/8SUtLQ35+Pq655hpER0eL54VAjPTnQYJhwYIFSE9PR1ZWFtLS0pCcnCyOtDx+/Dj+8pe/wG63j3g/xcbG4rHHHoNarcZf//pXbN++Xb4I0ZQ1ZPgh366//nrccccdmDZtGv72t7/h97//vaQ8PT0d+fn5mDNnDrq7u/Gb3/xG7JdzKQQafpYtW4b7778fbrcbhw8fxt69e31eMCcyvV6PO+64A319fejo6EBjYyPq6upQW1s76ouqVqvFd77zHbz++ute+9yXpKQk/OhHP0J6ejo+++wzvP766/jDH/4w6tcRKIVCgc2bN0Oj0eDEiRNezUiFhYX4yle+gsbGRrzyyiv4+9//PuKLaaAWLlyIhx9+GFFRUWhpacHhw4fxt7/9LaBRSaHitttuQ35+Pvr6+sTnR73//vuora0N+Ls8GIVCgUceeQTXXnstmpub8dOf/pRNXhRSGH5G6Lvf/S6ys7PR2tqKX/ziFz772uTm5iI3Nxe9vb1irdmlEowTJo1MbGwsoqOjR/wAxNESfp09KSkJ77zzDrZt2zZu4YsmHoVCgXvvvRc5OTno6elBRUVFwH3WiKYKhp8REsJPT08Pfve736Gurk5S7tmv5+TJk/j5z38Ol8slWWY8MfwQERH9i8/wk5qaOqx28VCUnZ2NNWvWYMaMGbh48SK6urrE5oSYmBjExcVBoVDg7Nmz2L17t1c4Gk/9/f1j1qmWiIhosvEZfpKSkhAZGSmfTTJz5szBqlWrMG/ePKhUKknH7LNnz6K+vh579+712wl5vJw/f56PrCciIhrgM/xEREQgOTmZtT9TQH9/P06fPj3ob7ARERGFEp9P5uvt7cXp06dx/vz5Kf1I+Kmsv78f58+fZ/AhIiKS8VnzQ0RERDRV+az5ISIiIpqqGH6IiIgopDD8EBERUUhh+CEiIqKQwvBDREREIYXhh4iIiEIKww8RERGFFIYfIiIiCikMP0RERBRSGH6IiIgopDD8EBERUUhh+CEiIqKQwvBDREREIYXhh4iIiEIKww8RERGFFIYfIiIiCikMP0RERBRSGH6IiIgopDD8EBERUUhh+CEiIqKQwvBDREREIYXhh4iIiEIKww8RERGFFIYfIiIiCikMP0RERBRSGH6IiIgopDD8EBERUUhh+CEiIqKQEjZ37tx++Uyr1SqfRURENCHp9Xr5LKJB+Q0/PJimLu5fGms8xmi88FijkWCzFxEREYUUhh8iIiIKKQw/REREFFIYfoiIiCikMPwQERFRSGH4ISIiopDC8ENEREQhheFnCOvWrUNVVRW2bt2Ka665Rl5MPhgMBlitVlRVVUGj0ciLiYiILqkxecihTqfD2rVroVQqUV1dDYvFIl9kXCxYsAA/+tGPMH36dBw5cgS//OUv4XK55Iv5tXTpUvzgBz/AzJkz0draii1btsDpdMoXm3SGu3+NRiO0Wq18tqi1tRXNzc1YvHgx7HY7mpubkZeXh56eHpjNZjgcDvkqNMUN5xjzPF8Ienp68POf/xxf+cpXkJmZib///e+oqKgAABQVFeHGG2/EJ598gl/96ldobGyEwWBAXl6ex1b/pbW1Ffv378e3vvUtyfYFbrcbO3bsgM1mkxfRJDGcY41IMGFqfjQaDaqqqmC1WgOezGazfDMSixYtwsyZMxETEwOFQjGs4BMbG4vVq1dj5syZAICkpCSUl5dL/v6vf/1rLF26VL7qlGMymVBZWQm32w23243KykpUV1cDAxeXLVu24MKFC/LViAJis9mQn58PvV4vTgUFBbDb7QCAqKgoLFq0CDNmzMCMGTOwaNEiREVFAcCUuBkhovE3YcLPWJg/fz6USiX6+vpw/PhxebFfCoUC69evx/z58+VFEkql0ufdJBEFRq1Wo6KiwuvGZteuXdDpdDh+/Dj6+vqQmJiIrKwsLF68GElJSfj888/x9ttvo6+vT7K91tZWFBcXi8HJkxDc9Xq9GOaJKDQFJfyYzWbJiauwsFAMBXl5eV4nNs+Tm8DhcKCgoEBy9zfUVFJS4vEqpGbMmIH09HQAgMvlwtGjR+WL+KRQKHDvvfdiyZIl6O/vh91ux9q1a8W/+fLLL6Ovrw+9vb2wWq1466235JsgogA5nU4UFRV5fbfz8/ORkJCAu+66CwqFAlFRUXj44Yfx0EMPITIyEtOmTUN+fr7kHEJEFKighJ+JSLhDBIBTp07hvffeky/iRaFQoKioCDk5OVAoFOjs7MRf/vIXnDt3DgCwbNky3HTTTQCAffv2Yc+ePbItTD1Cc6QQaJVKJQoLC8X+FUlJSdi8eTOmT58uX5UoKBoaGiTBqKysDD09PfLFhiQcu/IbNCIKPUEJPyUlJZKTk1Dl7Ha78etf/1pSJvQVkTMajV61Q0NN8tojT5mZmZg+fTouXrwYUK1PcnIyHnvsMdx8881wu924cOEC4uPj8cADD+DGG2/EVVddBYPBgIiICPzxj3/EM888I9/ElCTUyAn7raurC48++ij7/FDQ6HQ67Nq1S/LdrqioQGRkpHzRIQl98wbroE9EFJTw40mhUCAhIQEAcO7cOXzyySfyRYLm4sWLPu8AZ8yYgYULFyIsLAzd3d04dOgQFAoF7rjjDvzqV7/CvffeK18FX/ziFzFnzhy88847+OEPf4iqqir09PQgNjYW69evx+bNmxEREYGKigo8//zz8tWnvLS0NABAW1sbPvjgA3kxTCYT9Ho9TCYTFAqFvJjIL18dnouKinD+/Hn5okNinx8iCkTQw8/ChQuRmJgIADhz5ozXaAxhlIaccPEcalq9ejU++ugjAMCFCxfw6aefyjeFrKwsJCcnAwCam5tRX1+PBQsW4Gtf+xoSEhKwcuVK3HjjjZJ19uzZg3Xr1sFkMuH06dOoqalBZWUluru7ERkZiZiYGMTFxeHBBx/0qoGqqKiAWq2WbG8q0Wq1mDdvHvr6+nDw4EGvTqYCofbu1ltvBQB8/vnnvMDQkIaq+UlPT5eUlZaWIjo6Wr4ZIqKABT38LFmyBDExMQCA999/H2fPnpWUx8XFAQD6+vrw2WefScoCkZGRIYYrf7UQWVlZiIyMxMWLF/Hee++hr68PH3zwAV599VX09fUhMjISd91116CBJTk5Gdddd53fsBYqYmNjcccddyAmJgYNDQ146aWX5IuImpubxf/v7e3F/v37A+prRaHNX83P008/jeLiYrS2tgIAqqur0dDQIP5/fn5+QM/nUalUUCgU7PNDRKKghp958+bhS1/6EsLDw9Hd3Y13331XvojYMfbixYvo7u6WFw9p1apVmDlzJvr7+3HixAmvWgjPJq/Ozk7JaKw9e/aItUbJycm48847Pdb8F4VCgdWrV+PJJ5+EVqtFR0cHiouLvWqg9B59m6a6rq4unDhxAr/4xS9w5swZAIDFYoHdbhc7PKvValgsFvGzufPOO1FVVSXfFJEX4YngnpPwdPDp06dDoVCgr69vROcLDHzXw8ODeqojokkuaGcEITQkJCSgv78fBw8e9AoHM2bMwKxZs4CB4ecdHR2S8qHceeed4s8ltLW14eWXX5YvgsWLFyMlJQUA8Mknn+DEiRNi2dmzZ/H73/8eXV1dCAsLg0ajQU5Ojli+YsUKlJeXY/Xq1WLtVag7c+YMHA4H5s6di23btkkuUEKnUl8PgPS8gBEFwm63e43kSklJQXR0NNxut1cT949//GM899xzuOWWW8R58g7P4eHhmDt3LjAwrP6ee+6Bnn1+iEJeUMKPQqHAww8/jKVLlyIsLAynT5+G1WqVL4b09HTExsYCANrb2736A/mTmpoKo9GI22+/HREREejt7cVLL73kc/0vfvGLiIyMRG9vr89n8Lz77rt4++230d/fj8jISNx6662IjY3FDTfcgO985zuYNWsWPv74Y5w6dUq+KhGNsyuvvBLTp09HR0cHjh07JikLCwtDZGQkIiIiJPM9xcXFISkpCf39/Th69KhXMzwRhaZRhx9hiPh1112H8PBwtLW14emnn/YKJlFRUVi1ahVmzJgx5PDzBQsW4Mtf/jK+//3vo7y8HE899RS0Wi0UCgW6u7vx29/+1uczdubNm4dFixYBAzVD06ZNw3e/+10UFRVhy5Yt+NnPfgaLxYKbb74ZYWFhAIA5c+bg1ltvxRtvvIF169Zh7dq1ePjhh3Hy5ElgkFoNz5qPqc5XnwzPZj9hhI28vKCggL/rRSMWFRUFjUYj1iQLfX8wcMM1Y8YMyfKQHYvFxcVoa2tDeHg4urq68MYbb8gXJ6IQNeofNn344YexfPlyhIWFwel04pe//KV4h+bvBzFbWlrwxBNPeAWkpKQklJaW4vLLL5fMx0AH6ffffx/PPvssGhsbJWVz587Fpk2bxI7Qw+XrR0v9vXZffK0/kQ1n/2o0GpSUlIx4dE1DQ8OgT+KmqWk4x5ivHyXt6emBw+HAddddh5MnT+Kxxx7DmTNnYDabxSe3Y2D4+nPPPYc///nPkvXh8R3u6+vDyy+/jOeee87rbw22Pk0OwznWiASjrvl54YUXcOrUKbz55pvYuHGjpGpa6N8j6Ovrw4kTJ3zWDGEgRLS1taG/vx/nzp1De3s76uvr8Yc//AHf//73UVpa6hV8AODjjz9GZ2enuF5PTw96enpw8uRJnDhxAu+//z5eeeUV1NTUoKKiAo8//jg2bNiA48ePo6WlBbW1tejq6pJvFhikVsOz5oOIRs9ut4vfre9973sIDw/Hp59+Kulof+DAAfGJ6xcvXsQHH3yA2tpa2Zb+5dlnn8UHH3yA1157Tex8397eLvb1EW6o/K1PRFPXqGt+aPLh/qWxxmOMxguPNRqJUdf8EBEREU0mDD9EREQUUhh+iIiIKKQw/BAREVFIYfghIiKikMLwQ0RERCGF4YeIiIhCCsMPERERhRSGHyIiIgopDD9EREQUUvz+vAUREdFkwJ+3oOHyG354ME1d3L801niM0XjhsUYjwWYvIiIiCikMP0RERBRSGH6IiIgopDD8EBERUUhh+CEiIqKQwvBDREREIYXhh4iIiEIKww8RERGFFIYfIiIZg8GAXbt2QafTyYuIaApg+CGiSUOn02HXrl0wGAzyoilFo9GgqqoKVqt1yPdqMBhQUVEBtVotLyIiP4ISfsxm85BfPrVajYqKCpjNZnkREVFAEhIS4Ha7UVdXJy+aUhwOBwoKCqDX65GVlQWr1SqpiRLOpwaDAfv37wcArFy5EvAITkajUdye0WiE1Wr1mqqqqqDRaMTliEJFUMIPTW3C3bb8xOl5coWfECycpNmEQMGQlZWFlpYWOBwOedG48ayVEaahamdGo6SkBHq9Ho888gh0Oh0qKioAALW1tVi+fLn4/1lZWbI1pXp6elBWVga9Xi9O9fX1KC0t9fouE011QQk/JSUlKCoqgtPplBfRFFJdXS2eNCsrK5GdnT3kSXPDhg1QqVR44oknYLPZ5MVEIs/aDF90Oh1SU1Nx+PBheZFPOp0OVVVVPkO32Wwe8thVKpUoLCz0Cv0lJSUwm83Q6/Ww2+1obW0Va1/GktPpRFFRkXiu9azxsVgsKCkpka8yJJPJhOrqami1Wr+fO9FUFJTwQ6HHZrOhrq4OGRkZfqvNjUYjUlNTsXv37kt6p06Tw7x589DY2Ii8vDyfzTGZmZno7Oz0GzTknZRtNhtaWlqwYsUKyXJqtRoxMTGSefLanLy8PLjdblRWVkpqSvR6PQoKCuBwOKDT6ZCdnY3a2tqg3viZzWafNatyQhiyWCzyomGxWCxoaGgYsuaIaCoJSvgxm81efXnkTSXr1q2TlNPk19zcLJ8lMhgMyM7Oxo4dO1jjQwF57bXXYDKZoNfr0dLSgtLSUvG8otFokJGRMWjQsFgsaGpqkoSdAwcOICUlRVL7Ex8fj4iICBw5ckSc59nHRq/Xo7q6WizzRa1WQ6fToampadThw5NarUZVVRXKysqQkZERcLOawWDwGRgD1dbWhpSUlBGvTzTZBCX8yBkMBhQWFqKmpkY8mcyYMQNJSUnyRWkSmz17NlwuFzo6OiTzV61ahby8PNTU1DD40IiUlJSgsrISqamp2LVrF0pKSuByufzW+ggOHz6M1NRUMew4HA64XC5kZmaKy2RnZ0OpVPoNUYHYsGEDAGDbtm2S+f46Fg81CeHG6XTC4XBIwlhxcTGWL1/uN9xoNBrk5OTA7XYjLi5OXhyQwW5kiKaioIcftVqN5cuXw263S+6Iqqqq0NPTI1mWJi+DwQCtVut1J56UlIRbbrkF1dXVQb0jptBjs9mQn5+PpqYmREdHo7u7e8jAsn//fnR2dophx+l0ora2VtI8O9pO02azGSkpKdi+fbvX6xFqroY7DfZdEZq3hOY2uYKCAmAgiL322mvyYiLyIejhR6PRIC4uzutOoqOjAy6XSzKPJpe8vDzxTjU3NxeVlZVeJ+0zZ87gzJkzWL58+aCPPiAKhMFgQHp6OhoaGpCenu41mlDO6XSisbERaWlp4nIWi0XSTyclJQUHDhyQrxoQYf2J0o/NbDYHpV+dv1pcoqkq6OEHANxuN9rb2+WzaZLzHO2Vn5/vs0mrt7cXFosFKpVKbBogGgmdTofc3FzY7XaxGSwuLg5PPvmkzxFcApPJ5HP0qdBPp6WlxeexGwibzYaCgoIRrx8swsi41NTUUferU6vVSEtLQ2Njo9dnRjRVjUn4odD20UcfYffu3UhNTfXqCE8UCKHfYF1dHUwmEzAQPJ544gm43W4UFhYO2QlYTnjsQlVVlbxoUjEYDCgvLw/aIyTuvvtuqFQq1NTUyIuIpqyghx/hzsGzgyEGRlioVCrJPJq6bDYbampqkJ6ePuSQXSJPZrNZbFYVgo/A4XBg06ZNOHnyJNLS0iRl/gjD2GNiYrBp06aAmofa29vhdrvlsy8pg8EA68AwfLvd7rcPUKCE2qPs7OxRN5sRTTZBDz8OhwP19fXIzs4Wq6bVajXWr1+P6Oho+eI0hVksFtjtdj5AjQIijJQC4LdZFQM3WA8++CAef/xxeZGEEBZKS0tRX1/vsynMH2GUmE6nG7SP0VgT3oNn6NHr9V6hMBDR0dEoLS0Vt1deXo7GxsZBP2uiqSps7ty5/fKZVqsVer1ePtsvoWnD8wmjRqMRWq1W/PfevXvxhS98Ad3d3SN6EikFz3D3r06nw9q1a1FTU+PVwdmT2WxGTEwMtmzZIrnImM1mpKenw263j+ikTZPPcI4xg8EgXtiDcXwI23O73aPqD6NWq7F58+YhH9HR2trqdcyPhvzvcuTk4IZzrBEJghJ+aHLh/qWxxmOMxguPNRqJoDd7EREREU1kDD9EREQUUhh+iIiIKKQw/BAREVFIYfghIiKikMLwQ0RERCGF4YeIiIhCCsMPERERhRSGHyIiIgopDD9EREQUUvz+vAUREdFkwJ+3oOHyG354ME1d3L801niM0XjhsUYjwWYvIiIiCikMP0RERBRSGH6IiIgopDD8EBERUUhh+CEiIqKQwvBDREREIYXhh4iIiEIKww8R0RRkMBhQUVEBtVotLwoatVqNiooKGAyGcfl7RMHC8ENENMVoNBrk5OSgtrYWTqcTAKDT6bBr1y5YrVafk9lslm9mSE6nE7W1tVi+fDnq6uoAACtXrpQvRjThMPwQ0YQl1CyM5MIcLGazeVLVaJSWlmL9+vWor6+HxWKBwWBAVVUVnE4n8vPzUVlZiZ6eHlRWVkKv10Ov16OhoUG+mYDt378fAJCdnY3a2lpkZWWJZcLf1mg0HmtI6XQ6VFVVQafTyYuIxsyYhx/h5GU0GuVFNAjhLs1gMMiLJAwGA3bt2jVlTxxms/mSXvimgkCPJY1Gg6qqqkv2XZ0IQUdOo9EgJSUFjY2NYg3KePNXY+Pre69Wq9HV1QUA2LlzJ9RqNZYvX476+no4HA5xObfb7fV+2traJP8W+Pv7wvTkk0/CZrPBYrHAYrGgpKREXHf27NlwuVzo6OiQbJPoUhvz8BNMgdxFUPD5O/kJ+8LfRVNYT37XbDQafZ64xxJD+PAI+y7UP6/s7GwolUocOXJEXhQQg8HgN6gMRfheFRYWoqamBpWVlThz5gzKysqg1+uxY8cOrF27VnJOdDqdKC8vR3d3NzZs2IC7774bGAhCgRL+rvA91+l0eOSRR8RaIvkkvA55aFWr1UhLS7ukwZHIn0kVfkKJzWZDfn4+LBaLvOiSqa6ulpz0CgoKJHeTnjQaDdasWYOmpiYUFRWJJz+NRoOMjAzU1NTAZrPJV6MxMJJjyWazoaamBhkZGSF9s5GVlYXOzk6/x/lgdDodcnJyUFlZibq6OqxZsybgz9JgMKC0tBT19fXQ6/WwWCxISEiAUqkUlxH2a319PUpKSiTb3rZtG2JiYpCdnQ2bzSYJHwkJCejt7fVbG+NwOFBQUCB+zz2/v77YbDY88cQTSElJ8Vm72NzcLP6/2Xv/HwsAACqFSURBVGz2uokqLCxEdHQ0CgsLxXmhHrpp7DH8UNCp1WqsX78eLpcL27Ztk5Tl5ubC5XKJ/QRo4tq/fz9cLhdyc3PlRSFBp9MhNTVV0mk4UGq1GjqdDvX19bDZbDCZTKivr8f69euH7Duk0+mQm5uL6upqmEwmcb6/JiSTyYSWlhYUFBRI5gNATU0NAODZZ58NOHiNhMPhQH19PZYvXy6+v/j4eERERKC9vV1crqSkxKvmyFcfJM/3TTQWghZ+5FWlvqp5jUbjoOXyuwKhGlVossjLy0N0dDRKS0t9ri+nG+hIJzSXWa1WyZ2Jv78nN9RyQr8UoYrb6tEk5DkvkNcsEF67fHnP11JVVYVZs2ZJyieCDRs2AAC2bNkiuWgI1eC+Libyz1h+5+f5OVpl+xGyY8tqtUqa2gwGA8rLy5GUlAStVutzH8p5NpMJr81zHaFZaKh9O9jrgkdT7q233ir5/hgMBq/vlPwzkb8Gf03C/o4l+Wd68803S8qFkTxpaWlDXrCnoszMTLjdbnEUE4bRx85Xc5PJZEJ3dzc2b97s9/MUQlNTU5NXTV1iYiK6u7u9vjsAcPjwYaSkpIj7f8OGDeju7obFYoHD4UB3dzeys7NRVVWFvLw8JCUloby8XNz36enp0Gq1fo+hQDQ3N0OlUiE+Ph4YeC+eNVVEE0lQwo9Op8PGjRvFKlq9Xo8XX3xRsoxWqwUA6PV6FBcXo7OzEzqdTjwJ6HQ69Pb2iuuXlZUhJSUFRqMRTqcTRUVFqK6uRk9PD8rKypCfnx9ws8mXv/xl7N69W6w+Fi4qGHg9nn/P8wIX6HIAkJ6ejqysLHEZDNzlLF26FMXFxdDr9WhqapK85+EQLsYxMTHi9nbv3o1ly5bJF72kzGYzUlJSsH37dq+TtEajQUREhORi4ut9lZWV4bPPPhOX8fxs9QMjU3JycsSTtEajQWJiorh+cXEx4BHCLBYLiouL0draCrvdDr1eL+mUOZirrroKbW1tknWMRiPWrl2LHTt2iK+prq4Oa9euFS+KwvtKS0vzel3yi190dDTy8/NhNpvF95ebm4sNGzaIx211dTWys7PF7WsGmhVramrE13D8+HFxm0MxGo3Izc0V77aLi4uxaNEiREdHS5arq6tDRETEiC+I40UeFAOd5GFUIAT1lpYWSZPX/v37vc5dcgaDwWdzEwbOCUJ/HF80Gg1UKhUOHDggma9WqxETE+O3U3J7ezvcbjfmz5+PqqoqpKenIz09HVarFeXl5ZgzZw4AoKCgAHa7HQ0NDeJx4/ndGKwpeyjCa/Dkq2M10UQw6vDjeafiWVX5wgsvSMJJa2ureBfkdDphs9mgUqnEk6rNZsOmTZvE5YVq1NHedSqVShw7dkzyWoRqfCHYYODv7d69GykpKeIFJtDlAKCnp0dcTnjtSqUSe/fuFb/8Bw4ckLzn4Vi5ciVUKpUkVNhsNkmQGGt5eXmSC4c8AGq1WjEY+jqB+uprcPfdd3u9L4fDgaefflpcxvOzhcf+yM7OFpcvKSkR1xdqLDzvhEeqt7dXcveuGeizVFdXJzmmTCYTmpqasGLFCmBgf8XFxUkugE6nE9u3b4dKpfJ6Fsq+ffvEz0y48Hket8JFNzMzE/B47577v6yszOfnLie8B89+V8J3Un7x6ujoQG9vLxISEiTzx0J8fDxUKpXfC7ycWq3Gz3/+c+h0Oq9+KoFO/vqzCPtPHkKEzykuLs5ngNENNFkN1qdN6I8j//5g4DuCgb/jSQhFQ3W8/vDDD8XPwbODtN1ux+zZs4GBGqSxIO+TRDSRjTr8CCesw4cPy4skfFXXKpVKr5OqZ/OHUFs0Wp4d7vzd0cHjhJOZmRnwcgL5cs3NzUG968nKyvLZ3u/53saavMOzvPbk5MmTUCqVfvuICCdfT4mJiV6fnZyv9w0f2/NsYsrLy5OUjZT8uB1s9E9bW5sYuPx1lO3o6IDL5ZI8C6Wnp0cSYpxOJ9xu96D7Vlg+kD4kcsJ78OyLAY+/K5/X3d3t9VmPBfVAM8lg79vT3XffjTlz5nidQ4IhKysLTU1NPgOMcNORnp4uaX4VauPq6uq8mqw8OZ1ObNmyxW8A8nW8r1ixAi0tLT5fDwbORcKNhWHgSctCLV5cXBwuv/xyyTEbaMAcjqysLK/vslKpFG+QB+t3FMxzJVEgRh1+hBOv/EQqN9SXTeh/AI8mJrvdLl9s2Nxut8/X5uv1CBcmT4EuNx7kF+KJ5tSpU6ipqYFWq/XqkyPwfA9DVeULhnrfuoG+L55NTNXV1fLFRsTXa/N3opZftH29biFMjJbD4YDZbIZKpUJ5efmw+2r4ew+XknAz4ev7KqfT6ZCdnQ273T5o0BgJ3UBH58Fu6Hbu3InW1lZJ82tubi5aWloC6qzrGYA8m97a29u9aod1Oh1SUlK8aqEEQk2eMKR89uzZ6O7uRk9Pj7hMRETEmIREgcFgQGpqquQ1eobpFStW4NixY143A/BTI0w01kYdfoJBPfAgLrvd7lWbMFZ8Vf0KtVieAl2O/sViscButyMvL89nAIqJiRl2TcVQVqxY4TWkfiwJd7Ny8toRX+9VCHzBIDT1FBcXw+VyYePGjZKm2MlEuID7q23xpNPpsHbtWq+m9mBZsWIFOjs7Bx2R6Bxo/vKs6TSZTMM6fwkBCAC2bt0KjUYDh8MBl8slNp8KtUnCqDE5jUaDkpISuFwusXk2MTFREtw6OzvF2jvh+JMH9dEwm83Iy8vzauoTmkxXrFiBlJQUceSZXFZWls8bBaKxNOrwI3xZPZuAgkFodgo2p9OJxsZGvxcmADhy5EjAy40XzyYVT/IL7kRgMpnETrueF2P5CVf4jEfbr8sXz2alYKqrq4Pb7fZ5F+3ZhHf48GHJyBdBoM3Ew+Ec6Evk73XJtbe3Q6lUiv2GBGofo3PG4mIppx54NAJk/et8MRgMKCwsRFNT07CCRqCEWh/5iET5yDjrwPNphM9xpKHTOTCYo6WlRfwMhBohq9UqPutHHvKE2k6hXAj+Go0G8fHxXrVnbW1tPm/kPA1nH3s2MaekpKCsrMyrBk6o5UxPT5f0afPkq8aIaDyMOvw4BzqXyps6Vq9eHfAJQfiSeF4E7777biQlJUmWE77Qo71Q1tTUQKVSSTos+rrDCnS58SDcNXk+y8NgMAStX1Swbdu2DZ2dnZIHu7W3tyMiIkISCPx9xvfff7/476HIg6HBYEB6erpkGeEYG+oCMBTHQGd2ebAzGo1ISUkRL97CM3I8++QIF/mWlhavC8VwGQZ+RVvg2Y9HMzDyyVd/Egz0WWlqavIaMbdmzRqv8OPrWS3BpFarsXnzZsTFxWH37t0+L5AYGPEn9OWqrq4OevARPjMh0Mg79y9fvlxsUvWcysrK4Ha7xZqakSopKREDjBCIhL/hGXyE0FFYWIi6ujqvcofDgXXr1nmdm4RaqZHUWgtBy/Pz8GxiHmyE2OHDh736tAkMBoPPGiOi8TDq8IOBpo7Kykrk5uaKX45vfOMbw6rGrKqqEvsvWK1WJCYmevX5sdlsaGlpQWFhYUDP2vDH4XBg06ZN4t2VcIe1b98+rxNJIMuNB6GPR0pKiuSEvHfvXvmiE4JQGwFAbI5xOp1eNQ7+PuPz5897bG1wO3fuhMvlQmlp6aCfy4EDB5Camgqrj5Fqw2EymVBTUyN5Im1aWho2bdokXgSEC1h3d7d4TJeXl6OxsTFoF27PC3Rubi527NgR8EWkpKQELS0t4me2ceNG7Nu3T9JPBAOhqre31+/FbbSEUYxPPPHEkK9dGJ492uDoi9CEKA83wuSvSVVYL1j7dCgmk8lnKAqE2WxGaWkpoqOjJceO8AysvLw8n0P/bQNPkg7k85CzWCw+w5HRaEROTo7PGiOi8RA2d+7cfvlMq9UKvV4vn01TxKXcv0ajEYmJieN2saDRMZvNaGtrG/aF9lIeYxRaeKzRSEzq8GM0Gv02+9jt9mGfsMfTpXztl3L/ajQabNiwAS+++OKQd/pjSeg0K2/mwcAzqeRPpw5FBoMBOTk5fp/bNJhLeYxRaOGxRiMxqcMPjcyl3r9GoxHZ2dnDaqah8SWEw5qamhE1S1zqY4xCB481Gomg9PkhGg6TyTSsnyeh8Sf08xhJ8CEimugYfoiIiCikMPwQERFRSGH4ISIiopDC8ENEREQhheGHiIiIQgrDDxEREYUUhh8iIiIKKX4fckhERDQZ8CGHNFx+ww8PpqmL+5fGGo8xGi881mgk2OxFREREIYXhh4iIiEIKww8RERGFFIYfIiIiCikMP0RERBRSGH6IiIgopDD8EBERUUhh+CGiKUOn02HXrl2oqqqCRqPxKquqqoJOp5PMJ6LQw4cchiDuXxprIznGjEYjEhMTUVJSIs4zm81IT0+XLNfa2ootW7bA6XQCADQaDUpKShAdHQ0AsNvtMJlMMBqN0Gq1knV9aWhokPxNTzqdDmvWrMHu3bths9nkxTQBjORYI2L4CUHcvzTWRnKM+Qs/AMR5RqMRaWlpkvDjyWw2o62tDSaTSV4UEF9hS87tdmPHjh1wOBzYvHkzuru7/YYnGnsjOdaIpnSzl8FgwK5du4as5jYajT6ryYkEgR5LgS5HgWtra5PPCpjBYIDVavU7GQwGyfIlJSXQ6/XiVFlZiZ6eHlRWVorz8vPzkZCQgPLycgYfoklqSocfCg6hH4X8wiEERo1Gg6qqKhiNRp/rVVRUQK1Wi/ONRmNIBAThwiu/wNL/UavVqKiogNVqhVarRXp6OqxWK4xGIzQaDVJSUtDc3CxfDRho7qqoqBjypqW1tRXFxcWSUFNcXIzW1lb5okMSjvWcnByUlZUx+BBNUlM6/FgsFuTn57OtPkiqq6slF5CCggI4HA75YsDARWLNmjVoampCUVGRpH9GRkYGampqJtV+GcmxZLFYYLfbsXz5ckn4o//jdDpRVFQEvV4Pu92OhoYG6PV6mEwm5ObmwuVyYf/+/fLVgIHgFBERgeTkZDFApaenQ6vVjih0ms1mr4BfWFiI6OhoFBYWwmq1orS0FNHR0YiOjkZpaam4nNA8R0STw5QOP3RpqNVqrF+/Hi6XC9u2bZOUDXVBm2pqamqgUqmwcuVKeRENQqPR4KqrroLNZpP07Tly5Aji4uJQXl6OwsJCdHR04JVXXkFRURHKysrQ09MDu90OvV4Pi8UCAEhKSkJ5ebkk1JSXlyMpKcnjL3o3eQlTdXU1MNAxWl4mTKwBIppcRh1+hGprX00e8mGlRqNRcgKS3y3J2+c979yE7RkMBlRVVXmV+yIs61kt7lnNbrVaUVFRgenTp0vWo9HZsGEDAHh1SlWr1UhLS0Ntba0432g0ejWL+Tqm5E1v8v0qL/dc13N7wt29cOwNdUwKfB1LkNUWVFVVYdasWZJyh8OB+vp6ZGVlSebT4BwOB9atW+dV02az2ZCfn+8zdGRnZyM6OhoZGRnifrJYLF5BxXMSApIvbOIimrpGHX4CZTAYkJGRgbKyMuj1epSVlaGrq0ssNxqNyM3NFTsWVlZWIjc31yvgfPnLX8bu3buHPHH5otFosHXrVnR3d4snv9raWixevFi+KI2Q2WxGSkoKtm/f7jUaR6PRICIiAnV1dZL5QxGa0GpqasT9dvz4cbHcYDCgsLBQLC8rK0NGRoZXIL/qqqvQ1tYmXjSHOiYHIwSqmJgYsT/J7t27sWzZMvmiOHLkCOLj472CE3kT+vzcf//9kpsUX5M8jC5cuBA9PT1wu90oKCjwCrb+Jvk5Rti3/pq4PCd5cCeiyWHcwk9WVhZaWlrEPiIOhwNlZWWARz+Quro68U7PZrOhrq5O0l9CqVTi2LFjXneDgRKaXDybYiwWCxoaGiTLkW95eXmSE7+8lkSr1SIlJQVms9lnX6CEhAT09vaio6NDXjSo7OxsAJCEprKyMjgcDqjVaixfvhwNDQ1iGHY4HNi3b5+kBgAAent7sXPnTvHfgx2TQ1m5ciVUKpUk5AnHrJxQzoukN6F2xTrQ4VloWnr66adRVFSEhoYGsRnLc2poaJDsO51Oh5iYGHz22Wc4duwYurq6MHPmTJ+dnYVJ3ulZeC1Ck5ivv+s52e12j3dCRJPJuIWfw4cPIz093etuHAMXN6VSiSNHjkjmNzc3Q6VSIT4+XjJvJIQml+7ubq8aidEMpQ0l8g7P8maAkydPQqlUIjc3VzJfMHv2bPmsgAiBYv369V4BQqPRIC4uDocPH5bMb29vB2SBQ77vBzsmh5KVlQWXy+UV5Hwdnx0dHejt7UVCQoK8KOQ5HA4UFBT4DROHDx/2CrGagVFgnvt8xYoVePfdd9Hb2wsMhGOhFi8+Pt6rFkke3DUDD0rct2+fVygioqln3MKPxWJBdXW1OBJDfvJRKpXiiAphysvLkyzjdrvFi9pIMeiMnVOnTqGmpgZardarKUEgDyCBcDgcMJvNUKlUKC8v92rugI9aqcLCQiiVSsky8n0/1DE5lJG8Fxqe/fv3w+VySYJvQUGBpNO8cKwN1QwuhHdfIUsIYZ7bEI4Lf1MgT48moolp3MIPPDofVlZWIjU1VdJe3tPTI/a98JwGG05NE48wvDsvL89nAIqJifGqvQmEcHEqLi6Gy+XCxo0bxc70brdb8hA6YQpkaPpgxyRdek6nE9u3b4dKpcLjjz+OZ5991qtPmcVi8aqFDAY2exFNXaMOP06nE93d3UhMTJTMT0hI8LrzFthsNnEIcHx8vNisIfTtGAvC60xLS/O6uMlfO42OyWRCQ0MDcnNzJaP9fDUJ+WrajI+Ph0qlkiwnEC6GbrcbCQkJcDgccLlcyMzMlC86LPJjcihtbW1ISUnxqoHy1bQXHx+PiIiIUddahiqHw4Hdu3cjOjoasbGx2Ldv34huiITaQdbYENGoww8G2uVTU1PFC51Go0FOTo5kmdLSUsmFwrPPhGNgOLD8YmkwGEbUH8OfAwcOIC4uDnfffbc4z2g0DvlbPjR827ZtQ2dnJ9asWSPu9/b2dkREREjChRB8PfsJFRQUiD9SiYHjwLMWSegj1t7eDqfTidraWq+mNp1Oh61bt4r/9mWwY1IYOu/v+KupqQEGXqvAYDD4vLAKYZtNZMMnjNgSRvNVV1cjLy/PZ9OnPx0dHeKDFIUpkJoiNnsRTV1BCT8WiwVNTU1inx2h46Db7RaXmTlzpmS4aExMjOQ5MCaTCXV1dZJ+Pzk5OeJFJhhsNht27NiB7Oxs8W8kJiay+noMCDU0AMQmKqfTCaVSKanhE0ZmeV5ojh8/7tXh1LNPT25uLnbs2CE2aQl9dzyXWbt2Ld58803JNuSGOiYHI/RDSklJEddfvnw59u7dK18UmZmZYsgnb8KzkrRardgvSwg9no8isFgsYjPl7t27sXHjxhE3UxqNRpSXlyMuLs5vjRybvYimLv6qewi6lPvX6OOXu6cytVqNzZs3o7a2dsgOuVPJpTzGKLTwWKORCErNz6Xi67d4hMlXZ1u69GpqahAfHz/lf9RUIDSxhsrPeRARTQaTOvz4+y0e/Qie/kzjw+Fw4NixY1i7du2UD0AGgwHZ2dlev09FRESX1qQOPzQ5mUymgIahT3aWEfwSPBERjT2GHyIiIgopDD9EREQUUhh+iIiIKKQw/BAREVFIYfghIiKikMLwQ0RERCGF4YeIiIhCit+ftyAiIpoM+PMWNFx+ww8PpqmL+5fGGo8xGi881mgk2OxFREREIYXhh4iIiEIKww8RERGFFIYfIiIiCikMP0RERBRSGH6IiIgopDD8EBERUUhh+KFLSqPRoKqqCgaDQV5EREGkVqtRUVEBo9EoLyIKOQw/NGLjGVyEv2W1Wn1OVVVV0Gg0knV0Oh2qqqqg0+kk84mGYjAYsGvXLh47MuP5nScaS3zCcwgK1v7VaDQoKSnBvn37YLFY5MUSZrMZ6enp8tkBqa6ulmzfaDQiMTERJSUlkuXUajU2b96M2tpaWCwW6HQ6rFmzBrt374bNZpMsS2MrWMeYnE6nw9q1a1FTUzPkMTcaBoMBubm52LFjxyU5doTvVnR0tNfxL2cwGLB8+XJs2bIFTqdTXiwSvh+NjY0wmUzyYolgfl/H2lgdazS1seaHxo3dboderw94KisrQ09Pj2QbarUaaWlpaGtrk8yn0JCQkAC32426ujp50ZTicDhQUFAAvV6PrKwsWK1WSU2U0IRlMBiwf/9+AMDKlSuBgYC4a9cur9rR8vJyJCUlQavVepXJt48gfV+JJqpJF37GuiljrLc/2QzW3FRaWoro6Gjk5eV5lQlTsPsXxMfHQ6VSeZ3AzWazfFGagrKystDS0gKHwyEvGje+vhNj2QxUUlICvV6PRx55BDqdDhUVFQCA2tpaLF++XPz/rKwscR23243KykpJOCkuLkZraysaGhq8gktlZSXcbre4vpzRaPQKR2az2WdzM9FkMOnCD40vzzvQhoYGtLa2ori42OvkKUx2u12yjFC9XlJSApPJBIPB4BWQfE1VVVUAgIKCAkkVenZ2Nlwul7h94YTOmqDJz7M2wxedTofU1FQcPnxYXuTTYDcyZrN5yGCuVCpRWFjodWyWlJTAbDZLjneh9mUsOZ1OFBUVoaioCE6nU1LjY7FYvJqB5TQaDeLi4pCSkjJkYBG+r0ajEVarFWlpaXjkkUckTYBCk3dpaanf7yvRRMXwQwE7cOAAVCqV3xOnRqNBRkYGGhsb/fY9sFgsXoFJHp4AYN++fV5392q1GsuXL5dsX6gJam5ulixLk8+8efPQ2NiIvLw8nzUKmZmZ6Ozs9Bs05J2UbTYbWlpasGLFCslyarUaMTExknny2py8vDyftSd6vR4FBQVwOBzQ6XTIzs5GbW2t3+N9JMxmM6wB1JoKYSjQsJGZmYmenh643W5kZ2fLiyWEm5TExETo9XoxcAmvTfiche/z7t27sXHjRlRUVECtVss3RzThBC38yE8e8ipSeTu0r/KqqiqsXr0aFRUV4nKeXyaz2YzCwkJER0eLd2Sed4nyWgXPsmBsP9T5u5gIcnNzAQA1NTXyoiEJx0dGRgbKysp8ntCFO9e0tDRxnwn/bW9vly1Nk81rr70Gk8kEvV6PlpYWlJaWis2ZQrAeLGhYLBY0NTVJjs8DBw4gJSVFcq6Jj49HREQEjhw5Is7zrOHU6/Worq4Wy3xRq9XQ6XRoamryeayOlFqtRlVVFcrKypCRkeHzXOaLwWDwGRgFQl+5Y8eO4bXXXsPy5csHDSlCqBFqk4Tze0pKCsrKylBTU4PCwkLxddlsNuTn54shiWiiC0r40el02LhxI+rr68WTx4svviiWG41GrF27Fjt27BDL6+rqsHbtWslJSalU4lvf+hZsNhv0A+3QcXFxuPvuu4GBatbKykr09PSId2TCicdoNCI3N1ecX1lZidzcXMlJYzTbp38RToDyk7FwcfJVYzMYoamjsLAQdXV14l21nHCxOXr0KACgvLwcRqMRmZmZcLlcPtehyUv4LqampmLXrl0oKSmBy+XyW+sjOHz4MFJTU8XzisPhgMvlQmZmprhMdnY2lErlqC7SGzZsAABs27ZNMl9oJhruJHyfnE4nHA6HJIwVFxdj+fLlfsONRqNBTk4O3G434uLi5MUAIJ7jdu7cKX6GwryhmM1mlJaWor6+Xvx+WiwWlJWVIScnh7U9NCmNOvx43gF5Dp984YUXYLPZxItiXV2dpL3YZDJ53aUBkCxns9nQ1NQkudP3xdffsNlsqKur87rDkS8TyPbp/zgcDuzbtw85OTmSE3FBQUFAFyd/GhoaBh1+q9Fo0Nvbi2effRZFRUWorKxEdnY2tFrtoM1sNHkJtQlNTU2Ijo5Gd3f3kPt5//796OzsFMOO0+lEbW0tMjIyxON1tJ2mzWYzUlJSsH37dq/XI9RcDXca7CZLaN7yd2NQUFAADASx1157TV4Mg8GA7Oxs2Gw2OJ1OOJ1O2Gw2ZGdne93ECDxr8gFA79F/TyAEtNraWpSXlzME0aQy6vAj9Lnw1wlRuMvyrGIWtLW1STrfud1ur+Xa2tqgUqkQHx8vme/J399obm6WrDvS7ZOUxWJBfX09SkpKoNFoBr0YwEeTqOckDL9NT0/3KhMmo9EIm82GBx98UNy+EG57enpG1MxGk4PBYEB6ejoaGhqQnp4+5AXW6XSisbFRckNjsVgk/XRSUlJw4MAB+aoBEdbfvXu3zyAy3sxmM1JTU/2+HrPZ7PN5RTabDTU1NcjLy/PqW2QwGFBaWooTJ06gtbV10O+mdaB/FAbOt08++aTfGiqiiWTU4SeQPhdut9vnRTGYnVR9jcwQvpQUfCaTCfX19SgtLUVKSgrMZrPPky989KfwnAYbfitM8jtODFyEsrOzh93MRpOHTqdDbm4u7Ha72AwWFxeHJ598UtJcLmcymXz2PRFqqVtaWiRBYDhsNhsKCgpGvH6wCM3FqampXsFGsGDBAsTHx+OJJ57wWW6xWFBZWYmMjAwsWLBAMl+v1+PZZ58FAnjej/B8n8bGRuTn5/utoSKaSEYdfgKhVCp93q3Nnj1bPmvEenp6UFZW5vXF5BdxbBgMBmi1WgBAdHS02Nl5PGg0GqxZs8ars6nQPDBYEwJNDgaDQewHJoRfm82GJ554Am63W9LZNlAbNmyASqUSh2VPVgaDAeXl5VCpVH6DDQCcOHEC69atG/T8J4S5EydOyIuIprRRhx+Hjw6Fnurq6uB2u5GQkCAvQmJi4qja3gXC016HGr5JoyeMysrLy0N1dTX0A7U3aWlpXiP4xoJm4LH/LpfLq7MpTQ1CU01lZaVXrZ/D4cCmTZtw8uRJpKWlScr8EZpdY2JisGnTpoDON+3t7YM+9O9SMAyMZs3Ly4PdbueNHdEojDr8CB0KtVqt5E5s9erV0Ol0cDgcqK+vR25uruTCaDQakZKSMuy7MKEq2zNM+fsbBoPBqz17KL62T/83ikW4G9d7dNIUalyeeOIJrFmzBtYAhuaOhNAXweVyDfk7RjT5CMcYAOTn5/ut0XA6nXjwwQfx+OOPy4skhLAgjFTy1RTmj3BTp9PpfNZajxfhPXiGHn9NwWNF/jR1+SQ86Z1oMgnaD5vqBn5wUKlUAgPNUJ79QAwGg6QPTmtrq+QCpvPzI5RGoxEZGRmSbRmNRrHJxfNH9DznQ/YagrH9qWI4+1eoacHAHXmgd5rmgR9GtNvtPk/UQrlgqM9ZPYwfZfTcf/LjjMbHcI4x4dzg71gZLmF7brfbb3+YQAjHXFJSkrxIItjHmPzvDvXdkPN3rpOTn7MbGhokT4kO9DsnnCMC+YHjsTCcY41IELTwQ5MH9y+NNR5jNF54rNFIjLrZi4iIiGgyYfghIiKikMLwQ0RERCGF4YeIiIhCCsMPERERhRSGHyIiIgopDD9EREQUUhh+iIiIKKQw/BAREVFIYfghIiKikOL35y2IiIgmA/68BQ2X3/DDg2nq4v6lscZjjMYLjzUaCTZ7ERERUUhh+CEiIqKQwvBDREREIYXhh4iIiEIKww8RERGFFIYfIiIiCikMP0RERBRSGH5owtDpdKiqqoJOp5MXEQVEp9Nh165dqKqqgkaj8SqbCMeX0WhERUUF1Gq1vIiIxgkfchiCRrJ/DQYD8vLy5LP9am1txZYtW+B0OoGBE75WqxXLe3p6YDab4XA4xHk6nQ5r1qzB7t27YbPZxPk0+YzkGDMajUhMTERJSYk4z2w2Iz09XbKc/NjSaDQoKSlBdHQ0AMBut8NkMnkdc/40NDSIf3M0x7larcbmzZuRlJQklntuW2A0GpGWliZ5DzRyIznWiBh+QtBI9q/BYEBOTo5XYPHF18ndc97KlSuRk5OD3/zmN7jzzjslFws5XyGJJr6RHGP+wg8AcZ6vY8uT2WxGW1sbTCaTvCggoznOhfDT2NgIk8kkvvYDBw5g7dq1UCqV8k2IfIUkCsxIjjUiNnvJGAwG7Nq165JXjYeCzs5OFBUVQa/XQ6/Xo7KyEj09PaisrBTnFRQUDHkRoqmtra1NPitgBoMBVqvV72QwGOSrBJ3NZkN+fr54TNvtdrS2tqK4uFicx+BDNL4mffiZKO34/hgMBp/9D4gIUKvVqKiogNVqhVarRXp6OqxWK4xGIzQaDVJSUtDc3CxfDRho7qqoqBjyuyUPGnq9HsXFxWhtbZUvSkQhYtKHH5q81qxZI7kLLywsRHR0NAoLCyXzheYDmnqcTqdY+2e329HQ0AC9Xg+TyYTc3Fy4XC7s379fvhowEJwiIiKQnJwsBqj09HRotdpxq9UZSkREhPjahEmr1SIpKQnl5eXjXgtFRP/C8EOXzO7duyV34/K7crvdziaBEKXRaHDVVVfBZrNJ+vYcOXIEcXFxKC8vR2FhITo6OvDKK6+gqKgIZWVl6OnpEY8bi8UCAD6DRnl5+aB9zYKlt7dX0rTrOcmbeYXXS0RjL2gdnuUjLtxuN3bs2AGHwyF2AkxMTER6erqkc5/naA5fnVvloz38rSuorq4WTyJDbdvXMu+++y6WLVuGHTt2BDTiSP4ahNfna+SH8JkEst2xNJL9O5pRMAhwtJdA3nGUJp+RHGO+OjwPh3CMDnZsDWU0x7mv7/xgHZk5ujE4RnKsEQWl5ken02Hjxo2or68X72pefPFFyTJXXXUV2traxDt5oa0/JiZGbI+vr69HSUmJ2Iav0+nQ29srbrOsrAwpKf+/vft3aeQJ4zj+qV1R8Q6CRcDOQuWuEbQ70wnB5gsiSBAr9T8Id3CghVhcL9ccBBFU+DaLYHNcaxGOMwQbmxSxETWKGAuvucJM2N1sNonR+GPeL9jCbDJudLJ5duaZZ2NKp9NSZQVI2NVTM22HPWdnZ0fj4+O+444SdXxmON91Xd3e3mp1dVWzs7Ov+iRn3od5v/W2bDYbfKnkyb1wXTe4C5Ckas7P4uJizXRRcAvm0g0NDen29lZ///5VKpVSOp2ueU3YFpxuarefm5GnQqEQ3AXghWg7+InH40omkzo5OfFdpe/u7vq+6O/u7rS1tVX9OZFIqK+vzzesvbW1pXK5rKmpKamySuLz58/V1+RyOR0dHWlwcDCyQFgzbScSCTmOo42Njepz9vb2dHh46GsrykOPD/c+fvyo7e3tmi8jMyUxNjbGyrs37sOHD9rc3NT/lVwYk/Pz/ft3LS0tqVAoVIMJ71YoFHR6elod3Ukmk+ru7tbl5aWOj491fX2tnp6e0GRns3Uq6bleEObNcaPoIdBZbQc//f39chxH+Xw+uMvn5ubGN3c/Ojqqq6sr39B0sVjUzc2N3r9/X31Mlaklc8JopmhZM22Pjo6qXC6rVCp5Xqm6K0uitHp8uHd4eOhbAhz8Uspms69+tAzRcrmcUqlU3ZGUfD6v4eFh3wiPWQXmPed8+vRJv3//1t3dnSRpdXVV19fXUuUcFRxF6mQS/fr6ek0f/y+Q87O0tBRatwjA02g7+DFXKxcXF8FdPmG1OsISEb35M6ZGh6TqCSPsBBmmUdsKCcha1c7x4V6aUv+I8OvXL5XLZS0vL1f7SCqV8q0CM9NWjRKGXdd9ls+omWI30/UAnl/bwU87zBB3cDM5QRMTE8pms3UTBqNEtf0Y2j0+3Nvf35fjOPry5QsBEGoUi0VtbGzIcRytrKzox48fisVivunqTCbzoj+DxWJRBwcHGhsbIwACXoi2g59cLqdyuayRkZHgrkj5fF6xWKxhgTKveDyuwcHB4MM1mmn7/Pw89DkDAwO+n1vR7PHZyozGeVfT5HI5ffv2TY7jKJFI+J4PqNJHdnZ21NXVpd7eXv38+fNBK7mmp6c7MjVt6gx5R5ozmYxc162ZwgPwPNoOfrxXNd5VEzMzM5GJqmHD2ZK0tramZDJZzdHxJg/Pzc3V1OYwV3/v3r2rPtaobVVGHFQZQjfm5+ebPjE2e3xmOvAtjGp0dXXp69evvqnEsK3e39CbfOq9bYXJ+2g0bQH7mGThhYUF7e/vy3VdTU9P16z0ilIqlWpq7USNFLXbz70J2t7fk8lkuF0L8EI8Wp2fZDLpu3mfqbVRKpXq1myJN6iLEawdVCgUdH5+XnNjQ28NGVPnp1HbCmn/7OxMf/780eTkZFP1eIKvr3d8phbQa6/z89AbPjbL24deyt8KD9NKH/PWysoG7sher2aP6StXV1c1nzVzY9OofmjaD/azTvRz7/kqWA8LrWulrwHGowU/eD34/+Kp0cfQKfQ1PETb015vmXcJe3ALFkYDAACvAyM/FuL/i6dGH0On0NfwEIz8AAAAqxD8AAAAqxD8AAAAqxD8AAAAqxD8AAAAqxD8AAAAqxD8AAAAqxD8AAAAq9QtcggAwGtAkUO0KjT4AQAAeKuY9gIAAFYh+AEAAFYh+AEAAFYh+AEAAFYh+AEAAFYh+AEAAFYh+AEAAFYh+AEAAFYh+AEAAFYh+AEAAFYh+AEAAFYh+AEAAFYh+AEAAFYh+AEAAFYh+AEAAFYh+AEAAFYh+AEAAFYh+AEAAFYh+AEAAFYh+AEAAFYh+AEAAFYh+AEAAFb5B1fjJPlgKQJlAAAAAElFTkSuQmCC;" vertex="1" parent="1">
          <mxGeometry x="820" y="80" width="365.81" height="640" as="geometry" />
        </mxCell>
      </root>
    </mxGraphModel>
  </diagram>
</mxfile>
